<svg xmlns="http://www.w3.org/2000/svg" xmlns:xlink="http://www.w3.org/1999/xlink" width="90" zoomAndPan="magnify" viewBox="0 0 67.5 31.5" height="42" preserveAspectRatio="xMidYMid meet" version="1.0"><defs><g/></defs><g fill="#efe393" fill-opacity="1"><g transform="translate(2.311523, 20.302735)"><g><path d="M 4.078125 -10.734375 C 5.035156 -11.234375 6.09375 -11.484375 7.25 -11.484375 C 8.40625 -11.484375 9.460938 -11.234375 10.421875 -10.734375 C 11.378906 -10.242188 12.140625 -9.550781 12.703125 -8.65625 C 13.273438 -7.757812 13.5625 -6.742188 13.5625 -5.609375 C 13.5625 -4.472656 13.273438 -3.457031 12.703125 -2.5625 C 12.140625 -1.664062 11.378906 -0.96875 10.421875 -0.46875 C 9.460938 0.0195312 8.476562 0.265625 7.46875 0.265625 C 6.457031 0.265625 5.5625 0.125 4.78125 -0.15625 C 4.007812 -0.445312 3.335938 -0.847656 2.765625 -1.359375 C 2.203125 -1.867188 1.753906 -2.492188 1.421875 -3.234375 C 1.097656 -3.972656 0.9375 -4.835938 0.9375 -5.828125 C 0.9375 -6.816406 1.21875 -7.757812 1.78125 -8.65625 C 2.351562 -9.550781 3.117188 -10.242188 4.078125 -10.734375 Z M 3.71875 -1.78125 C 4.664062 -0.789062 5.835938 -0.296875 7.234375 -0.296875 C 8.628906 -0.296875 9.800781 -0.789062 10.75 -1.78125 C 11.695312 -2.769531 12.171875 -4.046875 12.171875 -5.609375 C 12.171875 -7.171875 11.695312 -8.445312 10.75 -9.4375 C 9.800781 -10.425781 8.628906 -10.921875 7.234375 -10.921875 C 5.835938 -10.921875 4.664062 -10.425781 3.71875 -9.4375 C 2.78125 -8.445312 2.3125 -7.171875 2.3125 -5.609375 C 2.3125 -4.046875 2.78125 -2.769531 3.71875 -1.78125 Z M 3.71875 -1.78125 "/></g></g></g><g fill="#efe393" fill-opacity="1"><g transform="translate(16.504275, 20.302735)"><g><path d="M 4.53125 -10.640625 L 3.53125 -10.640625 L 3.53125 -1.203125 C 3.539062 -0.816406 3.71875 -0.519531 4.0625 -0.3125 C 4.21875 -0.226562 4.394531 -0.1875 4.59375 -0.1875 L 4.84375 -0.1875 L 4.859375 0 L 1.03125 0 L 1.03125 -0.1875 L 1.296875 -0.1875 C 1.578125 -0.1875 1.820312 -0.28125 2.03125 -0.46875 C 2.238281 -0.664062 2.34375 -0.898438 2.34375 -1.171875 L 2.34375 -10.0625 C 2.34375 -10.332031 2.238281 -10.5625 2.03125 -10.75 C 1.820312 -10.9375 1.578125 -11.03125 1.296875 -11.03125 L 1.03125 -11.03125 L 1.03125 -11.21875 L 5.71875 -11.21875 C 6.894531 -11.21875 7.820312 -10.945312 8.5 -10.40625 C 9.175781 -9.875 9.515625 -9.171875 9.515625 -8.296875 C 9.515625 -7.429688 9.238281 -6.703125 8.6875 -6.109375 C 8.144531 -5.523438 7.453125 -5.191406 6.609375 -5.109375 C 7.003906 -4.929688 7.484375 -4.441406 8.046875 -3.640625 C 8.035156 -3.640625 8.25 -3.363281 8.6875 -2.8125 C 9.132812 -2.269531 9.488281 -1.84375 9.75 -1.53125 C 10.019531 -1.226562 10.242188 -1 10.421875 -0.84375 C 10.878906 -0.40625 11.40625 -0.1875 12 -0.1875 L 12 0 L 11.421875 0 C 10.441406 0 9.671875 -0.191406 9.109375 -0.578125 C 8.679688 -0.867188 8.296875 -1.222656 7.953125 -1.640625 C 7.878906 -1.742188 7.5625 -2.1875 7 -2.96875 C 6.445312 -3.75 6.148438 -4.160156 6.109375 -4.203125 C 5.441406 -5.046875 4.816406 -5.46875 4.234375 -5.46875 L 4.234375 -5.640625 C 5.691406 -5.640625 6.566406 -5.71875 6.859375 -5.875 C 7.273438 -6.082031 7.554688 -6.304688 7.703125 -6.546875 C 8.015625 -7.046875 8.171875 -7.59375 8.171875 -8.1875 C 8.171875 -8.945312 7.945312 -9.53125 7.5 -9.9375 C 7.050781 -10.351562 6.445312 -10.582031 5.6875 -10.625 C 5.351562 -10.632812 4.96875 -10.640625 4.53125 -10.640625 Z M 4.53125 -10.640625 "/></g></g></g><g fill="#efe393" fill-opacity="1"><g transform="translate(28.228736, 20.302735)"><g><path d="M 1.296875 -0.1875 C 1.585938 -0.1875 1.835938 -0.28125 2.046875 -0.46875 C 2.253906 -0.664062 2.363281 -0.898438 2.375 -1.171875 L 2.375 -10.03125 C 2.363281 -10.300781 2.25 -10.535156 2.03125 -10.734375 C 1.8125 -10.929688 1.550781 -11.03125 1.25 -11.03125 L 1.03125 -11.03125 L 1.03125 -11.21875 L 4.90625 -11.21875 L 4.90625 -11.03125 L 4.671875 -11.03125 C 4.378906 -11.03125 4.125 -10.929688 3.90625 -10.734375 C 3.6875 -10.535156 3.578125 -10.300781 3.578125 -10.03125 L 3.578125 -0.578125 L 6.484375 -0.578125 C 7.054688 -0.578125 7.539062 -0.675781 7.9375 -0.875 C 8.34375 -1.070312 8.648438 -1.304688 8.859375 -1.578125 C 9.066406 -1.859375 9.269531 -2.222656 9.46875 -2.671875 L 9.65625 -2.671875 L 8.625 0 L 1.03125 0 L 1.03125 -0.1875 Z M 1.296875 -0.1875 "/></g></g></g><g fill="#efe393" fill-opacity="1"><g transform="translate(38.158064, 20.302735)"><g><path d="M 4.078125 -10.734375 C 5.035156 -11.234375 6.09375 -11.484375 7.25 -11.484375 C 8.40625 -11.484375 9.460938 -11.234375 10.421875 -10.734375 C 11.378906 -10.242188 12.140625 -9.550781 12.703125 -8.65625 C 13.273438 -7.757812 13.5625 -6.742188 13.5625 -5.609375 C 13.5625 -4.472656 13.273438 -3.457031 12.703125 -2.5625 C 12.140625 -1.664062 11.378906 -0.96875 10.421875 -0.46875 C 9.460938 0.0195312 8.476562 0.265625 7.46875 0.265625 C 6.457031 0.265625 5.5625 0.125 4.78125 -0.15625 C 4.007812 -0.445312 3.335938 -0.847656 2.765625 -1.359375 C 2.203125 -1.867188 1.753906 -2.492188 1.421875 -3.234375 C 1.097656 -3.972656 0.9375 -4.835938 0.9375 -5.828125 C 0.9375 -6.816406 1.21875 -7.757812 1.78125 -8.65625 C 2.351562 -9.550781 3.117188 -10.242188 4.078125 -10.734375 Z M 3.71875 -1.78125 C 4.664062 -0.789062 5.835938 -0.296875 7.234375 -0.296875 C 8.628906 -0.296875 9.800781 -0.789062 10.75 -1.78125 C 11.695312 -2.769531 12.171875 -4.046875 12.171875 -5.609375 C 12.171875 -7.171875 11.695312 -8.445312 10.75 -9.4375 C 9.800781 -10.425781 8.628906 -10.921875 7.234375 -10.921875 C 5.835938 -10.921875 4.664062 -10.425781 3.71875 -9.4375 C 2.78125 -8.445312 2.3125 -7.171875 2.3125 -5.609375 C 2.3125 -4.046875 2.78125 -2.769531 3.71875 -1.78125 Z M 3.71875 -1.78125 "/></g></g></g><g fill="#efe393" fill-opacity="1"><g transform="translate(52.257303, 20.302735)"><g><path d="M 12.515625 -11.03125 L 12.359375 -11.03125 C 12.085938 -11.03125 11.816406 -10.941406 11.546875 -10.765625 C 11.285156 -10.585938 11.0625 -10.316406 10.875 -9.953125 C 8.164062 -4.117188 6.753906 -1.0625 6.640625 -0.78125 C 6.421875 -0.257812 6.304688 0.0859375 6.296875 0.265625 L 6.125 0.265625 L 1.515625 -9.9375 C 1.148438 -10.664062 0.671875 -11.03125 0.078125 -11.03125 L -0.078125 -11.03125 L -0.078125 -11.21875 L 3.75 -11.21875 L 3.75 -11.03125 L 3.609375 -11.03125 C 3.367188 -11.03125 3.1875 -10.945312 3.0625 -10.78125 C 2.945312 -10.613281 2.890625 -10.460938 2.890625 -10.328125 C 2.890625 -10.191406 2.910156 -10.046875 2.953125 -9.890625 L 6.296875 -1.734375 L 9.734375 -9.859375 C 9.796875 -10.015625 9.828125 -10.164062 9.828125 -10.3125 C 9.828125 -10.457031 9.765625 -10.613281 9.640625 -10.78125 C 9.515625 -10.945312 9.332031 -11.03125 9.09375 -11.03125 L 8.953125 -11.03125 L 8.953125 -11.21875 L 12.515625 -11.21875 Z M 12.515625 -11.03125 "/></g></g></g></svg>