<svg xmlns="http://www.w3.org/2000/svg" xmlns:xlink="http://www.w3.org/1999/xlink" width="90" zoomAndPan="magnify" viewBox="0 0 67.5 31.5" height="42" preserveAspectRatio="xMidYMid meet" version="1.0"><defs><g/></defs><g fill="#efe393" fill-opacity="1"><g transform="translate(3.88659, 25.102844)"><g><path d="M 14.328125 -10.6875 C 14.328125 -13.015625 12.734375 -13.171875 11.03125 -13.171875 L 4.46875 -13.171875 C 2.75 -13.171875 1.15625 -13.015625 1.15625 -10.6875 L 1.15625 -2.484375 C 1.15625 -0.171875 2.75 0 4.46875 0 L 11.03125 0 C 12.734375 0 14.328125 -0.171875 14.328125 -2.484375 Z M 4.4375 -9.265625 C 4.4375 -10.03125 4.90625 -10.0625 5.65625 -10.0625 L 9.84375 -10.0625 C 10.578125 -10.0625 11.046875 -10.03125 11.046875 -9.265625 L 11.046875 -3.90625 C 11.046875 -3.140625 10.578125 -3.109375 9.84375 -3.109375 L 5.65625 -3.109375 C 4.90625 -3.109375 4.4375 -3.140625 4.4375 -3.90625 Z M 4.4375 -9.265625 "/></g></g></g><g fill="#efe393" fill-opacity="1"><g transform="translate(19.3746, 25.102844)"><g><path d="M 7.890625 -10.0625 L 7.890625 -13.171875 L 1.296875 -13.171875 L 1.296875 0 L 4.578125 0 L 4.578125 -10.0625 Z M 7.890625 -10.0625 "/></g></g></g><g fill="#efe393" fill-opacity="1"><g transform="translate(27.890249, 25.102844)"><g><path d="M 4.578125 0 L 4.578125 -18.390625 L 1.296875 -18.390625 L 1.296875 0 Z M 4.578125 0 "/></g></g></g><g fill="#efe393" fill-opacity="1"><g transform="translate(33.760258, 25.102844)"><g><path d="M 14.328125 -10.6875 C 14.328125 -13.015625 12.734375 -13.171875 11.03125 -13.171875 L 4.46875 -13.171875 C 2.75 -13.171875 1.15625 -13.015625 1.15625 -10.6875 L 1.15625 -2.484375 C 1.15625 -0.171875 2.75 0 4.46875 0 L 11.03125 0 C 12.734375 0 14.328125 -0.171875 14.328125 -2.484375 Z M 4.4375 -9.265625 C 4.4375 -10.03125 4.90625 -10.0625 5.65625 -10.0625 L 9.84375 -10.0625 C 10.578125 -10.0625 11.046875 -10.03125 11.046875 -9.265625 L 11.046875 -3.90625 C 11.046875 -3.140625 10.578125 -3.109375 9.84375 -3.109375 L 5.65625 -3.109375 C 4.90625 -3.109375 4.4375 -3.140625 4.4375 -3.90625 Z M 4.4375 -9.265625 "/></g></g></g><g fill="#efe393" fill-opacity="1"><g transform="translate(49.248268, 25.102844)"><g><path d="M 13.59375 -13.171875 L 10.203125 -13.171875 L 7 -4.546875 L 3.796875 -13.171875 L 0.28125 -13.171875 L 5.3125 0 L 8.578125 0 Z M 13.59375 -13.171875 "/></g></g></g></svg>