<?xml version="1.0" standalone="no"?>
<!DOCTYPE svg PUBLIC "-//W3C//DTD SVG 20010904//EN"
 "http://www.w3.org/TR/2001/REC-SVG-20010904/DTD/svg10.dtd">
<svg version="1.0" xmlns="http://www.w3.org/2000/svg"
 width="1000.000000pt" height="1000.000000pt" viewBox="0 0 1000.000000 1000.000000"
 preserveAspectRatio="xMidYMid meet">
<rect width="100%" height="100%" fill="var(--bg-color, #EFE393)" />

<g transform="translate(0,1000) scale(0.1,-0.1)" fill="var(--svg-color, #181818)">
<path d="M0 5000 l0 -5000 5000 0 5000 0 0 5000 0 5000 -5000 0 -5000 0 0
-5000z m5064 4235 c9 -14 23 -25 30 -25 31 0 35 -67 6 -98 l-20 -21 25 -37
c32 -47 34 -114 5 -151 -28 -36 -25 -47 16 -69 l36 -19 23 29 c17 22 31 29 55
28 48 -1 189 -73 236 -119 65 -65 79 -102 79 -218 -1 -87 -5 -112 -34 -195
-18 -52 -60 -148 -93 -212 l-60 -116 17 -36 c35 -73 191 -208 310 -269 100
-50 215 -97 240 -97 23 0 35 17 35 47 0 9 -21 61 -46 116 -39 86 -46 110 -47
171 -3 130 46 185 175 194 l70 5 -6 35 c-3 23 1 48 11 70 15 32 15 35 0 43
-18 11 -39 73 -30 94 2 8 13 17 22 20 10 3 23 17 29 30 10 21 18 25 56 25 35
0 46 -4 51 -19 3 -11 17 -27 32 -36 22 -15 24 -22 20 -52 -4 -20 -14 -44 -23
-54 -15 -17 -15 -23 -4 -44 8 -15 11 -40 7 -69 l-6 -44 67 -7 c92 -8 151 -33
180 -75 22 -32 23 -43 20 -125 -4 -83 -7 -97 -51 -188 -38 -78 -46 -102 -36
-113 16 -20 59 -17 126 7 73 28 131 82 143 132 10 46 -7 133 -45 232 -82 212
-94 304 -49 371 35 51 48 60 121 83 82 26 197 36 250 22 45 -12 66 -34 116
-121 38 -65 86 -99 189 -135 142 -50 208 -109 208 -188 0 -39 -35 -118 -67
-152 -44 -46 -53 -69 -40 -95 13 -27 44 -37 115 -39 84 -2 111 -64 78 -175
-22 -74 -76 -118 -76 -63 -1 47 -29 65 -110 69 -86 3 -84 7 -59 -100 12 -48
11 -56 -8 -96 -33 -68 -115 -121 -193 -126 -83 -6 -99 5 -58 38 90 71 97 101
45 190 -18 31 -39 72 -45 91 -26 75 -6 169 56 266 76 117 81 170 22 227 -22
22 -40 44 -40 49 0 5 -9 9 -20 9 -11 0 -20 5 -20 10 0 6 -12 10 -27 10 -21 0
-24 3 -14 9 11 7 5 11 -22 16 -21 4 -40 11 -43 16 -8 13 -78 11 -97 -3 -16
-12 -15 -19 13 -98 65 -185 26 -332 -118 -446 -76 -59 -151 -94 -204 -94 -50
0 -88 -9 -88 -20 0 -4 22 -22 50 -40 36 -23 66 -33 107 -37 173 -16 253 -134
212 -312 -16 -72 -49 -137 -74 -151 -22 -12 -27 -11 -46 14 -11 14 -40 36 -62
48 -75 39 -228 25 -199 -18 16 -24 157 -114 204 -130 71 -23 187 -17 225 14
36 28 84 55 89 49 3 -2 -3 -26 -12 -52 -42 -125 -103 -171 -215 -163 -78 6
-138 32 -202 88 -25 22 -47 40 -50 40 -3 0 -5 -47 -4 -104 2 -98 1 -106 -22
-130 -34 -36 -45 -28 -43 30 9 168 -201 270 -324 157 -68 -62 -80 -68 -109
-49 -13 9 -33 16 -44 16 -29 0 -183 -151 -237 -231 -62 -94 -87 -166 -88 -259
-1 -93 27 -157 87 -201 51 -37 90 -48 210 -56 118 -7 122 -16 43 -96 -38 -38
-71 -61 -111 -76 -30 -12 -60 -21 -65 -21 -19 0 -21 -22 -5 -46 26 -40 103
-84 147 -84 52 0 83 18 142 80 46 49 50 51 63 34 17 -24 43 -110 43 -143 0
-81 -40 -148 -126 -212 -30 -23 -54 -49 -54 -59 0 -24 96 -97 154 -116 122
-42 305 29 364 141 46 88 30 167 -53 265 -150 175 -153 303 -13 450 29 30 159
159 288 286 129 127 245 244 257 260 l22 29 24 -29 c29 -35 10 -52 164 154 60
80 120 173 135 208 15 34 31 62 34 62 4 0 16 -8 27 -17 19 -17 20 -17 46 16
14 19 49 61 77 95 177 214 417 593 507 803 6 12 15 24 22 27 14 5 85 -96 129
-182 52 -103 55 -262 6 -376 -38 -90 -195 -301 -335 -452 -110 -118 -155 -172
-155 -186 0 -17 35 11 145 113 197 184 493 439 509 439 23 0 29 -39 24 -163
-4 -90 -10 -124 -30 -174 -38 -91 -92 -166 -193 -272 -103 -107 -109 -104 89
-52 130 34 216 40 236 16 38 -46 -93 -274 -234 -405 -21 -20 -36 -41 -33 -47
4 -6 33 -6 82 -1 73 9 262 -2 285 -17 22 -14 7 -55 -48 -131 -67 -91 -130
-155 -208 -210 -30 -22 -53 -45 -51 -53 1 -8 24 -19 53 -26 131 -30 264 -103
264 -146 0 -28 -117 -126 -207 -171 -45 -24 -83 -48 -83 -55 0 -7 18 -17 40
-23 46 -12 104 -59 126 -101 37 -72 -6 -148 -114 -203 -37 -19 -74 -42 -82
-51 -15 -18 -6 -39 51 -126 79 -120 10 -209 -163 -209 -39 0 -72 -5 -83 -14
-19 -13 -18 -16 18 -86 41 -80 45 -119 21 -180 -21 -51 -56 -70 -131 -70 -76
1 -142 25 -226 83 -101 69 -112 59 -29 -27 84 -87 111 -139 112 -216 0 -92
-46 -145 -123 -142 -79 4 -155 63 -260 205 -52 70 -77 92 -77 68 0 -5 19 -49
42 -97 38 -79 43 -96 46 -179 7 -145 -28 -197 -128 -197 -98 0 -173 57 -231
177 -67 137 -91 154 -59 39 22 -76 26 -173 9 -207 -17 -33 -70 -87 -102 -103
-69 -37 -216 52 -245 148 -6 18 -13 82 -16 142 -3 59 -8 111 -11 114 -15 16
-25 -31 -25 -124 0 -95 -2 -103 -29 -140 -51 -70 -121 -124 -158 -124 -15 0
-51 27 -103 76 l-80 77 0 189 0 190 -27 -2 c-62 -4 -84 2 -129 36 l-47 36 -23
-29 c-13 -15 -23 -31 -24 -35 0 -9 -59 -28 -89 -28 l-27 0 1 -259 c0 -302 -6
-285 118 -341 58 -27 84 -34 141 -34 39 -1 78 3 88 7 12 6 19 2 30 -20 12 -25
20 -29 78 -36 125 -15 216 -87 252 -197 6 -19 14 -121 17 -227 6 -186 7 -192
31 -218 14 -15 38 -34 53 -42 26 -13 28 -16 14 -36 -45 -69 -133 -85 -226 -42
-31 15 -57 22 -60 16 -3 -5 -2 -55 3 -110 13 -138 4 -146 -67 -58 -21 26 -42
47 -46 47 -4 0 -12 -17 -17 -37 -7 -31 -11 -35 -21 -23 -81 101 -103 109 -103
39 0 -83 58 -142 211 -213 132 -61 219 -81 359 -81 103 0 120 3 165 25 82 41
97 104 38 153 -80 66 -83 71 -83 144 0 63 3 75 40 134 22 35 59 99 82 143 75
136 168 223 282 262 52 18 60 26 51 54 -7 23 -37 26 -55 6 -6 -8 -18 -12 -26
-9 -11 4 -14 28 -14 104 0 91 2 99 19 99 11 0 23 -4 26 -10 3 -5 17 -10 30
-10 21 0 23 3 15 28 -4 15 -11 35 -15 45 -7 15 2 17 95 17 l102 0 -7 -27 c-16
-60 -9 -65 70 -51 19 3 20 -3 23 -99 3 -102 -3 -118 -28 -87 -8 8 -25 14 -39
12 -36 -4 -37 -47 -1 -64 134 -61 170 -83 226 -141 67 -69 114 -153 144 -257
11 -38 26 -76 33 -85 33 -37 47 -81 47 -149 0 -77 -5 -85 -65 -101 -55 -14
-139 -122 -155 -198 -14 -63 -40 -90 -164 -172 -79 -53 -100 -62 -162 -70 -47
-7 -100 -24 -155 -51 -134 -65 -194 -56 -324 45 -114 89 -235 137 -485 190
-179 39 -648 155 -676 167 -29 13 -30 28 -5 93 18 46 25 83 22 111 -1 7 -17
15 -37 19 -48 8 -100 42 -147 94 -54 60 -50 71 23 69 47 -2 66 2 87 18 44 33
54 61 51 145 -3 66 -7 81 -32 113 -84 111 -264 98 -389 -26 -58 -58 -77 -100
-77 -170 0 -71 30 -132 119 -241 72 -89 117 -164 106 -175 -3 -3 -25 4 -49 15
-64 32 -109 38 -126 19 -11 -14 -10 -20 6 -37 27 -30 86 -63 179 -99 150 -59
213 -95 443 -256 71 -49 120 -57 160 -26 26 20 30 46 18 106 -7 38 -7 38 21
32 68 -17 150 -97 187 -183 27 -62 19 -138 -22 -194 l-32 -43 21 -30 c47 -71
54 -98 54 -206 0 -88 -6 -126 -34 -231 -18 -70 -37 -133 -42 -140 -13 -21 -62
32 -104 112 -20 38 -40 69 -45 69 -5 0 -16 -25 -25 -55 -13 -46 -24 -62 -76
-105 -70 -58 -101 -76 -150 -85 -53 -10 -115 10 -192 62 -37 25 -71 43 -74 39
-4 -4 -19 -30 -33 -59 -30 -63 -102 -115 -203 -148 -80 -26 -142 -23 -210 11
l-46 23 -70 -66 c-121 -114 -166 -113 -285 6 l-68 69 -27 -19 c-49 -37 -97
-46 -164 -33 -62 12 -154 52 -208 91 -30 21 -69 86 -69 114 0 30 -29 26 -82
-10 -103 -71 -174 -83 -256 -42 -71 35 -156 124 -171 180 -8 26 -17 47 -22 47
-5 0 -18 -19 -30 -43 -35 -68 -89 -137 -109 -137 -15 0 -23 24 -51 137 -53
223 -50 327 12 412 16 23 29 47 29 54 0 7 -13 31 -29 53 -39 53 -46 92 -27
156 26 89 123 190 197 205 29 5 32 4 25 -13 -22 -55 -19 -83 12 -114 52 -52
79 -44 252 75 136 93 188 121 342 185 133 55 198 98 198 131 0 28 -55 25 -122
-6 -29 -13 -54 -21 -56 -16 -6 17 36 85 93 151 106 124 134 177 135 263 0 62
-19 105 -71 162 -83 90 -215 134 -301 101 -87 -33 -128 -95 -128 -192 0 -107
52 -162 144 -152 60 7 68 -9 31 -57 -35 -47 -95 -85 -153 -100 -58 -15 -62
-29 -27 -120 31 -84 31 -90 -2 -104 -52 -21 -362 -92 -638 -146 -282 -56 -478
-133 -596 -233 -48 -41 -57 -57 -69 -123 -5 -28 -19 -64 -31 -80 -20 -28 -20
-59 -1 -59 5 0 19 11 32 25 13 14 30 25 37 25 16 0 53 -58 53 -84 0 -50 -164
-137 -227 -121 -40 10 -72 43 -84 88 -15 56 -2 66 56 45 50 -19 78 -14 73 11
-2 10 -19 19 -43 25 -92 19 -175 51 -218 82 -47 34 -47 34 -47 93 0 59 0 60
-39 82 -32 18 -43 32 -56 73 -9 28 -32 76 -51 106 -54 89 -41 143 49 200 66
42 86 92 52 136 -8 10 -15 31 -15 47 0 24 -4 27 -35 27 -26 0 -39 6 -51 25
-22 34 -15 58 24 74 41 19 41 38 0 49 -45 11 -59 51 -35 94 23 40 22 45 -10
53 -59 14 -71 55 -28 95 32 30 31 41 -8 65 -29 18 -38 37 -84 175 -56 167
-137 468 -159 590 -22 122 -21 120 -54 120 -39 0 -48 19 -21 42 22 17 23 48 3
48 -5 0 -7 11 -5 24 4 21 1 25 -23 28 -18 2 -34 13 -43 30 -14 24 -13 30 4 62
15 27 16 39 8 47 -12 12 -31 -4 -75 -59 -39 -49 -87 -13 -99 74 -7 52 -12 60
-71 117 -71 68 -98 116 -98 171 0 44 17 53 59 32 31 -16 81 -22 81 -9 0 4 -10
31 -21 59 -27 64 -21 88 16 74 47 -18 55 -13 55 31 0 45 14 79 33 79 7 0 27
-16 45 -35 20 -20 39 -32 47 -28 8 3 15 8 15 12 0 3 4 12 9 20 16 25 41 -6 41
-48 0 -21 6 -45 13 -56 20 -26 65 -13 73 21 8 31 -10 74 -31 74 -10 0 -15 10
-15 30 0 43 -28 66 -91 73 -63 8 -97 30 -121 80 -13 25 -33 44 -65 61 -108 55
-161 137 -134 208 15 39 78 95 122 110 24 8 44 19 47 26 2 6 -25 25 -60 43
-82 41 -199 128 -217 163 -14 24 -13 28 13 55 29 30 167 92 249 112 26 6 47
15 47 19 0 8 -27 32 -118 105 -54 44 -143 151 -182 220 -24 42 -24 45 -7 62
15 16 42 19 194 23 l177 5 -38 35 c-96 88 -219 277 -241 371 -11 46 17 63 94
55 58 -5 182 -34 279 -64 21 -7 32 -7 32 -1 0 6 -34 45 -76 87 -119 121 -183
222 -209 334 -19 83 -20 237 -1 264 14 19 15 19 38 -2 13 -11 100 -87 193
-169 94 -82 217 -194 275 -250 98 -95 146 -132 156 -122 8 7 -52 80 -154 190
-97 103 -250 303 -304 397 -45 77 -61 152 -56 255 6 104 20 142 98 264 35 54
58 81 68 79 17 -3 19 -6 82 -142 74 -161 299 -511 427 -662 37 -44 78 -94 89
-110 20 -26 24 -28 43 -16 29 17 34 12 69 -61 25 -54 162 -251 237 -342 l25
-30 21 26 21 26 301 -303 c165 -166 313 -321 328 -344 71 -105 45 -229 -76
-369 -57 -66 -74 -98 -81 -154 -12 -85 59 -186 166 -236 46 -22 69 -26 140
-26 79 0 89 2 135 32 28 18 63 46 79 62 l28 30 -25 23 c-14 13 -46 41 -72 62
-80 66 -104 159 -71 270 25 82 32 84 88 22 31 -35 64 -60 93 -72 42 -16 48
-16 88 0 46 17 131 91 122 106 -3 5 -29 16 -58 25 -59 20 -97 46 -156 107 -65
68 -56 78 68 78 106 0 171 21 225 73 45 43 76 116 76 180 0 41 -28 144 -52
191 -43 84 -156 215 -240 280 -35 26 -38 27 -67 12 -45 -24 -57 -20 -109 28
-73 68 -133 83 -210 50 -79 -33 -123 -97 -126 -183 -1 -64 -16 -73 -50 -28
-22 30 -28 104 -13 185 4 25 3 42 -2 42 -6 0 -31 -19 -57 -41 -108 -94 -258
-117 -335 -52 -48 41 -110 183 -80 183 4 0 25 -13 46 -30 67 -53 174 -66 264
-31 50 19 185 103 197 123 13 21 -25 42 -78 42 -76 0 -135 -20 -174 -60 -40
-39 -45 -41 -68 -15 -54 59 -86 264 -51 330 37 72 97 109 198 122 66 8 146 43
163 70 11 18 -18 29 -81 29 -49 0 -71 6 -117 33 -96 53 -163 119 -200 194 -30
61 -33 76 -33 158 0 75 5 101 28 158 36 90 36 104 -8 113 -37 7 -138 -23 -129
-38 5 -7 -10 -12 -29 -9 -5 1 -20 -7 -35 -17 -15 -10 -36 -22 -46 -26 -10 -3
-16 -9 -13 -12 3 -3 -6 -22 -19 -41 -39 -58 -33 -101 30 -212 92 -161 98 -236
28 -343 -22 -35 -44 -75 -47 -89 -9 -36 16 -82 60 -109 56 -34 44 -56 -29 -52
-65 3 -106 20 -154 66 -64 59 -78 125 -46 206 10 24 13 45 8 49 -5 5 -45 5
-89 2 l-79 -6 -11 -37 c-13 -49 -21 -55 -45 -33 -24 21 -47 84 -54 147 -4 35
-1 52 12 68 18 22 74 39 129 40 34 0 73 29 73 53 0 8 -22 42 -50 75 -124 156
-84 269 122 338 117 39 164 75 212 163 51 91 82 111 177 111 90 0 215 -33 259
-69 94 -76 96 -144 11 -391 -76 -217 -80 -269 -27 -328 47 -52 119 -86 181
-87 44 0 50 3 53 22 2 12 -8 43 -21 70 -65 127 -85 262 -49 333 24 49 85 80
171 87 l70 6 -6 43 c-4 32 -1 50 12 70 16 25 16 26 -4 41 -17 11 -21 25 -21
64 0 36 4 49 15 49 8 0 20 10 26 23 16 29 28 37 62 37 21 0 32 -8 45 -29 9
-17 25 -32 34 -35 28 -7 25 -89 -3 -108 -21 -13 -21 -15 -5 -47 10 -19 16 -49
14 -73 l-3 -40 72 -3 c132 -6 178 -55 178 -190 0 -75 -3 -87 -47 -181 -78
-164 -64 -188 77 -129 193 80 298 147 403 259 81 87 82 100 23 216 -27 52 -66
140 -87 195 -36 95 -38 106 -39 215 0 99 3 120 22 156 40 75 147 150 261 185
42 12 43 12 75 -19 39 -38 41 -38 77 -12 30 21 31 48 4 71 -33 27 -1 169 38
169 6 0 2 9 -10 20 -40 37 -41 97 -3 107 10 2 24 16 30 29 16 35 82 35 105 -1z"/>
<path d="M4987 9212 c-15 -9 -27 -22 -27 -29 0 -7 -7 -13 -15 -13 -31 0 -13
-26 29 -43 40 -17 47 -17 68 -3 13 8 28 15 33 15 24 0 13 30 -23 58 -37 30
-39 30 -65 15z"/>
<path d="M4972 9020 c-60 -37 -34 -110 40 -110 83 0 93 99 13 124 -12 3 -33
-2 -53 -14z"/>
<path d="M4958 8839 c-16 -9 -18 -28 -18 -162 0 -164 5 -197 26 -197 11 0 14
30 14 159 0 131 3 161 15 171 12 10 19 10 27 2 11 -11 8 -23 -14 -55 -11 -15
-10 -20 5 -31 21 -16 23 -46 2 -46 -8 0 -15 -6 -15 -14 0 -8 7 -16 15 -20 9
-3 15 -18 15 -36 0 -20 -5 -30 -15 -30 -8 0 -15 -6 -15 -14 0 -8 7 -16 15 -20
8 -3 15 -16 15 -30 0 -27 17 -43 30 -30 5 5 12 82 16 172 7 153 6 163 -12 177
-22 17 -81 19 -106 4z"/>
<path d="M4793 8799 c-7 -7 1 -54 28 -162 43 -172 53 -197 73 -197 27 0 24 28
-16 186 -45 180 -56 202 -85 173z"/>
<path d="M5201 8792 c-18 -33 -93 -321 -86 -332 3 -5 15 -10 25 -10 21 0 22 3
76 204 30 114 34 140 23 147 -20 13 -27 11 -38 -9z"/>
<path d="M5308 8763 c-20 -22 -7 -53 21 -53 28 0 47 28 34 48 -15 24 -37 26
-55 5z"/>
<path d="M4585 8690 c-18 -20 -18 -21 2 -41 l21 -21 22 22 c21 21 21 23 4 41
-22 24 -27 24 -49 -1z"/>
<path d="M5256 8667 c-13 -10 -16 -20 -12 -35 10 -29 51 -29 67 0 10 18 8 24
-7 35 -22 16 -26 16 -48 0z"/>
<path d="M5390 8665 c-19 -23 -3 -57 27 -53 38 4 54 35 29 54 -25 18 -40 18
-56 -1z"/>
<path d="M4728 8656 c-22 -16 -23 -33 -4 -52 21 -20 42 -17 60 7 14 20 13 23
-9 40 -27 22 -25 22 -47 5z"/>
<path d="M5300 8569 c-9 -15 -8 -24 1 -35 15 -19 55 -18 63 2 8 21 8 20 -10
38 -21 22 -41 20 -54 -5z"/>
<path d="M4543 8533 c-28 -19 -29 -27 -3 -53 23 -23 50 -26 50 -6 0 8 7 17 16
20 15 6 14 10 -6 31 -27 29 -28 29 -57 8z"/>
<path d="M5424 8536 c-11 -29 1 -51 28 -54 22 -3 29 2 34 22 3 14 3 30 -1 35
-9 16 -55 13 -61 -3z"/>
<path d="M5210 8505 c-20 -25 -8 -50 25 -50 24 0 31 5 33 24 6 37 -34 55 -58
26z"/>
<path d="M4719 8467 c-16 -22 -16 -24 6 -45 26 -25 45 -28 45 -8 0 8 7 17 16
20 15 6 14 10 -6 31 -29 31 -40 31 -61 2z"/>
<path d="M5360 8445 c-26 -31 13 -82 44 -56 19 16 21 42 4 59 -16 16 -33 15
-48 -3z"/>
<path d="M3783 8423 c-7 -2 -13 -11 -13 -18 0 -8 -9 -19 -20 -25 -25 -14 -26
-30 -1 -30 10 0 21 -7 25 -15 3 -8 14 -15 25 -15 10 0 21 7 25 15 3 8 15 15
26 15 31 0 22 30 -12 43 -10 3 -18 13 -18 22 0 15 -14 18 -37 8z"/>
<path d="M5245 8401 c-9 -28 5 -51 31 -51 30 0 51 35 33 56 -17 20 -56 18 -64
-5z"/>
<path d="M6193 8413 c-7 -3 -13 -11 -13 -19 0 -8 -6 -14 -13 -14 -7 0 -18 -9
-25 -20 -10 -17 -10 -20 3 -20 8 0 23 -9 33 -20 18 -20 52 -19 52 1 0 5 6 9
14 9 8 0 17 4 20 9 9 14 -4 41 -20 41 -8 0 -14 6 -14 14 0 16 -19 25 -37 19z"/>
<path d="M4604 8359 c-13 -15 -16 -24 -8 -36 21 -33 40 -37 64 -15 22 20 22
21 4 46 -23 31 -35 32 -60 5z"/>
<path d="M4991 8357 c-12 -31 -14 -99 -5 -134 7 -26 29 -30 38 -7 12 30 6 130
-8 150 -14 18 -15 18 -25 -9z"/>
<path d="M3140 8340 c-47 -16 -125 -44 -175 -61 -247 -85 -287 -100 -324 -118
-52 -27 -86 -75 -86 -123 0 -28 11 -53 44 -99 57 -80 65 -131 27 -176 -14 -17
-39 -36 -56 -43 -16 -7 -30 -16 -30 -21 0 -17 54 -9 94 15 79 46 92 120 36
209 -57 90 -63 106 -53 140 12 43 67 71 268 137 88 28 202 67 252 86 51 19
101 34 111 34 55 0 55 -71 2 -215 -73 -194 -86 -286 -49 -362 20 -41 68 -78
90 -71 6 2 -4 23 -21 46 -59 81 -53 152 30 385 56 156 61 194 27 232 -33 39
-84 40 -187 5z"/>
<path d="M6680 8323 c-30 -25 -32 -30 -28 -77 2 -28 23 -99 46 -158 83 -211
90 -293 33 -373 -17 -24 -31 -46 -31 -49 0 -15 33 -3 63 24 71 62 73 160 6
350 -55 157 -66 201 -59 230 5 22 11 25 51 24 26 -1 147 -36 302 -89 348 -118
370 -138 285 -265 -33 -49 -43 -75 -46 -117 -4 -51 -2 -57 28 -88 38 -39 78
-58 112 -53 20 3 18 6 -24 33 -83 52 -88 114 -19 211 59 83 52 151 -20 202
-43 30 -595 222 -640 222 -15 0 -42 -12 -59 -27z"/>
<path d="M4875 8329 c-10 -15 22 -93 46 -115 47 -42 49 40 2 96 -26 32 -38 36
-48 19z"/>
<path d="M5103 8328 c-22 -27 -43 -78 -43 -103 0 -63 66 6 72 74 3 36 -12 50
-29 29z"/>
<path d="M5340 8315 c-26 -31 13 -82 44 -56 22 18 20 48 -3 61 -25 13 -26 13
-41 -5z"/>
<path d="M3766 8251 c-26 -29 -17 -73 16 -85 55 -19 93 55 46 88 -29 21 -41
20 -62 -3z"/>
<path d="M6170 8240 c-11 -11 -20 -27 -20 -35 0 -8 9 -24 20 -35 11 -11 27
-20 35 -20 18 0 55 35 55 53 0 18 -38 57 -55 57 -8 0 -24 -9 -35 -20z"/>
<path d="M4792 8224 c4 -21 45 -51 81 -60 25 -6 28 -4 25 12 -2 10 -18 29 -37
41 -40 27 -74 30 -69 7z"/>
<path d="M5153 8210 c-45 -27 -45 -55 -1 -46 41 8 78 32 78 51 0 21 -39 19
-77 -5z"/>
<path d="M4840 8131 c-84 -7 -144 -26 -134 -42 7 -12 581 -11 589 1 3 5 -5 16
-17 24 -27 17 -301 28 -438 17z"/>
<path d="M3785 8100 c-4 -7 -3 -16 3 -22 14 -14 45 -2 40 15 -6 16 -34 21 -43
7z"/>
<path d="M6181 8096 c-14 -17 -7 -36 14 -36 22 0 29 20 13 36 -13 13 -16 13
-27 0z"/>
<path d="M3724 8087 c-7 -20 1 -120 12 -138 22 -36 26 101 4 141 -7 13 -10 12
-16 -3z"/>
<path d="M3529 8074 c-16 -20 0 -49 27 -49 35 0 28 64 -7 65 -4 0 -12 -7 -20
-16z"/>
<path d="M3866 8073 c-13 -34 -19 -133 -8 -133 14 0 32 63 32 113 0 38 -13 50
-24 20z"/>
<path d="M6255 8068 c-20 -91 -8 -181 14 -102 14 49 14 124 1 124 -5 0 -12
-10 -15 -22z"/>
<path d="M3630 8065 c-20 -25 -8 -50 25 -50 21 0 31 5 33 18 4 21 -14 47 -33
47 -7 0 -18 -7 -25 -15z"/>
<path d="M4002 8063 c-14 -26 3 -53 34 -53 14 0 27 7 31 16 15 39 -46 73 -65
37z"/>
<path d="M5946 8064 c-19 -19 -20 -36 -4 -52 18 -18 46 -14 58 9 9 16 8 25 -6
40 -21 23 -28 24 -48 3z"/>
<path d="M6111 8038 c1 -55 11 -90 27 -96 13 -4 16 38 6 101 -9 53 -34 50 -33
-5z"/>
<path d="M6430 8065 c-19 -23 -8 -50 20 -50 16 0 26 6 28 18 4 18 -14 47 -28
47 -4 0 -13 -7 -20 -15z"/>
<path d="M6320 8055 c-20 -25 -8 -50 25 -50 21 0 31 5 33 18 4 21 -14 47 -33
47 -7 0 -18 -7 -25 -15z"/>
<path d="M4770 8053 c-32 -6 -63 -34 -52 -45 5 -5 29 -4 56 3 46 11 387 7 484
-7 54 -8 59 16 8 40 -28 13 -70 16 -253 15 -120 -1 -229 -4 -243 -6z"/>
<path d="M3784 8015 c-7 -18 3 -35 22 -35 20 0 30 30 13 41 -20 12 -29 11 -35
-6z"/>
<path d="M6174 8005 c-4 -9 -2 -21 4 -27 15 -15 44 -1 40 19 -4 23 -36 29 -44
8z"/>
<path d="M4650 7928 c-81 -85 -83 -117 -3 -59 45 32 83 77 83 97 0 32 -24 20
-80 -38z"/>
<path d="M4760 7930 c-29 -34 -74 -75 -99 -92 -63 -43 -79 -68 -43 -68 48 0
237 162 230 196 -7 37 -35 25 -88 -36z"/>
<path d="M4927 7976 c-9 -23 2 -26 80 -26 66 0 74 2 71 18 -3 14 -16 18 -74
20 -55 2 -73 0 -77 -12z"/>
<path d="M5157 7983 c-16 -15 -3 -34 68 -104 68 -67 179 -139 192 -125 11 11
-8 36 -45 60 -22 13 -70 59 -107 100 -63 70 -90 87 -108 69z"/>
<path d="M3525 7959 c-10 -30 19 -53 47 -38 29 15 20 53 -14 57 -20 2 -28 -2
-33 -19z"/>
<path d="M3929 7964 c-17 -21 0 -49 31 -49 31 0 48 28 31 49 -8 9 -21 16 -31
16 -10 0 -23 -7 -31 -16z"/>
<path d="M6016 7964 c-21 -21 -20 -41 3 -54 41 -21 82 30 45 57 -23 17 -29 16
-48 -3z"/>
<path d="M6425 7966 c-24 -17 -15 -50 14 -54 30 -5 45 10 37 36 -9 26 -30 34
-51 18z"/>
<path d="M8077 7964 c-36 -19 -38 -66 -3 -89 26 -18 50 -11 76 20 11 13 11 20
-1 41 -19 37 -40 45 -72 28z"/>
<path d="M1905 7962 c-6 -4 -16 -19 -22 -33 -14 -32 6 -69 38 -69 63 0 84 67
29 95 -33 17 -32 17 -45 7z"/>
<path d="M3649 7954 c-9 -11 -10 -20 -2 -32 14 -22 43 -22 57 1 9 15 7 21 -8
33 -25 18 -31 18 -47 -2z"/>
<path d="M5300 7945 c0 -37 137 -151 157 -131 5 5 -95 119 -122 138 -17 13
-35 9 -35 -7z"/>
<path d="M6300 7946 c-27 -33 18 -72 48 -42 13 13 14 20 6 34 -15 23 -38 26
-54 8z"/>
<path d="M3791 7936 c-14 -17 -7 -36 14 -36 22 0 29 20 13 36 -13 13 -16 13
-27 0z"/>
<path d="M6175 7920 c-4 -7 -3 -16 3 -22 14 -14 45 -2 40 15 -6 16 -34 21 -43
7z"/>
<path d="M4902 7903 c3 -16 15 -18 103 -18 82 0 100 3 100 15 0 12 -19 16
-103 18 -95 2 -103 1 -100 -15z"/>
<path d="M4006 7888 c-27 -39 18 -80 52 -46 18 18 14 46 -7 58 -26 14 -28 13
-45 -12z"/>
<path d="M5942 7888 c-18 -18 -14 -46 9 -58 16 -9 25 -8 40 6 23 21 24 28 3
48 -19 19 -36 20 -52 4z"/>
<path d="M3566 7868 c-19 -26 -4 -51 28 -46 29 4 33 43 7 57 -16 9 -23 7 -35
-11z"/>
<path d="M6390 7865 c-16 -20 -9 -49 14 -53 11 -3 26 4 33 14 11 15 10 21 -4
36 -20 22 -27 22 -43 3z"/>
<path d="M3792 7858 c-16 -16 -15 -43 3 -58 12 -10 16 -7 25 16 13 33 -7 63
-28 42z"/>
<path d="M3720 7836 c0 -30 26 -54 42 -38 9 9 9 18 0 37 -15 32 -42 33 -42 1z"/>
<path d="M3854 7834 c-12 -18 -14 -28 -6 -36 16 -16 42 8 42 38 0 31 -15 30
-36 -2z"/>
<path d="M4782 7811 c-44 -40 -182 -121 -207 -121 -18 0 -195 -84 -195 -93 0
-14 92 0 146 23 50 22 94 26 94 10 0 -24 -36 -78 -88 -132 -30 -32 -53 -59
-51 -61 2 -1 24 -9 49 -17 63 -21 61 -45 -8 -74 -29 -12 -60 -30 -70 -40 -16
-17 -15 -20 27 -57 64 -57 129 -74 274 -72 l118 1 -19 -31 c-12 -21 -44 -45
-97 -74 -44 -23 -84 -48 -89 -56 -7 -11 3 -29 39 -69 84 -93 163 -232 268
-471 10 -21 21 -36 26 -33 4 3 16 27 26 53 54 146 177 359 260 451 26 29 45
58 42 65 -3 8 -33 28 -66 45 -83 43 -131 80 -131 104 0 18 5 19 88 13 98 -8
182 5 247 37 47 24 85 56 85 73 0 18 -31 42 -80 61 -25 9 -49 21 -54 25 -17
15 25 49 60 49 44 0 49 12 17 41 -41 38 -113 139 -113 160 0 25 32 25 89 -1
48 -22 158 -39 148 -23 -3 5 -50 29 -104 52 -192 83 -240 110 -297 162 l-58
52 -30 -18 c-40 -23 -219 -23 -255 0 -12 8 -26 15 -30 15 -4 -1 -32 -23 -61
-49z"/>
<path d="M6175 7841 c-7 -23 3 -51 20 -51 7 0 16 7 19 16 9 23 -2 54 -19 54
-8 0 -16 -8 -20 -19z"/>
<path d="M6105 7840 c-8 -12 20 -60 35 -60 18 0 21 22 6 45 -18 27 -31 31 -41
15z"/>
<path d="M6238 7825 c-8 -18 -8 -29 -1 -36 13 -13 43 15 43 42 0 28 -28 23
-42 -6z"/>
<path d="M1895 7820 c-14 -23 -17 -122 -5 -182 25 -129 95 -290 185 -427 49
-74 115 -141 140 -141 22 0 19 10 -20 65 -105 150 -131 197 -184 342 -37 102
-47 153 -28 153 18 0 56 -43 98 -110 71 -114 250 -322 265 -308 13 13 -74 147
-267 413 -48 66 -100 138 -116 160 -29 41 -56 55 -68 35z"/>
<path d="M3656 7822 c-9 -14 24 -52 45 -52 24 0 24 15 -1 40 -21 21 -36 25
-44 12z"/>
<path d="M3916 7814 c-18 -17 -20 -30 -8 -38 13 -8 52 23 52 40 0 19 -25 18
-44 -2z"/>
<path d="M6040 7812 c0 -10 5 -23 12 -30 16 -16 48 -15 48 1 0 16 -32 47 -48
47 -7 0 -12 -8 -12 -18z"/>
<path d="M8047 7783 c-17 -25 -91 -128 -164 -227 -138 -188 -239 -343 -230
-352 15 -16 178 171 286 329 86 124 117 132 88 20 -33 -127 -106 -271 -204
-407 -65 -88 -57 -112 16 -50 79 68 208 290 256 444 36 113 45 242 20 270 -10
11 -22 20 -27 20 -5 0 -23 -21 -41 -47z"/>
<path d="M6302 7804 c-25 -17 -29 -44 -7 -44 20 0 57 38 50 50 -8 14 -17 12
-43 -6z"/>
<path d="M3743 7733 c-47 -3 -63 -8 -63 -18 0 -12 22 -15 118 -16 151 -2 166
1 146 21 -11 11 -119 19 -201 13z"/>
<path d="M6063 7723 c-7 -2 -13 -11 -13 -19 0 -11 25 -14 135 -14 108 0 135 3
135 14 0 7 -14 16 -31 20 -37 7 -208 7 -226 -1z"/>
<path d="M3620 7650 c0 -37 36 -45 193 -45 133 0 150 2 162 18 31 42 14 47
-176 47 -171 0 -179 -1 -179 -20z"/>
<path d="M6014 7649 c-11 -19 22 -42 73 -50 26 -4 93 -5 148 -2 101 5 145 20
145 48 0 13 -28 15 -179 15 -120 0 -182 -4 -187 -11z"/>
<path d="M2726 7550 c-56 -63 -43 -107 18 -59 26 20 56 68 56 89 0 23 -40 7
-74 -30z"/>
<path d="M3579 7579 c-17 -10 15 -28 67 -38 27 -5 215 -13 419 -16 203 -4 372
-9 374 -11 3 -2 -12 -21 -32 -42 -41 -42 -47 -62 -19 -62 23 0 124 117 120
139 -3 14 -48 17 -393 23 -215 4 -421 9 -458 10 -38 2 -73 0 -78 -3z"/>
<path d="M6208 7574 c-5 -4 -153 -7 -640 -13 -96 -1 -99 -12 -32 -92 51 -59
69 -73 84 -64 17 11 11 23 -32 64 -29 29 -37 42 -27 45 8 3 192 7 409 8 311 3
401 7 423 17 56 29 28 41 -92 41 -48 0 -90 -2 -93 -6z"/>
<path d="M7205 7558 c7 -25 78 -98 95 -98 22 0 8 50 -24 84 -39 42 -81 50 -71
14z"/>
<path d="M3487 7469 c-56 -43 -34 -96 105 -256 158 -181 318 -325 318 -287 0
4 -51 59 -113 123 -172 177 -297 328 -297 357 0 46 32 22 97 -71 106 -153 272
-305 333 -305 8 0 -36 48 -98 108 -63 59 -150 156 -195 216 -100 134 -114 144
-150 115z"/>
<path d="M6453 7465 c-12 -9 -48 -52 -79 -96 -56 -80 -210 -244 -288 -307 -51
-41 -38 -53 22 -22 75 40 205 172 280 284 68 102 95 122 100 76 3 -31 -78
-131 -275 -338 -128 -135 -153 -172 -100 -143 57 31 340 329 399 420 33 53 35
79 7 115 -24 30 -36 32 -66 11z"/>
<path d="M3665 7459 c-12 -18 4 -75 26 -94 19 -18 21 -18 72 0 37 14 86 20
171 22 236 6 262 43 38 55 -75 3 -171 11 -212 17 -94 13 -88 13 -95 0z"/>
<path d="M6279 7455 c-3 -2 -88 -9 -190 -14 -179 -9 -219 -14 -219 -31 0 -15
101 -30 206 -30 86 0 115 -4 156 -22 35 -15 55 -19 65 -12 20 13 47 80 39 99
-5 14 -46 21 -57 10z"/>
<path d="M3221 7341 c-44 -44 -53 -79 -40 -160 10 -64 32 -101 60 -101 11 0
48 9 82 21 92 31 161 22 276 -36 89 -44 121 -54 121 -36 0 17 -74 74 -134 102
-53 25 -73 29 -147 29 -54 0 -106 -6 -139 -17 -50 -16 -52 -16 -64 3 -32 55
-25 115 24 183 34 47 36 51 15 51 -8 0 -32 -17 -54 -39z"/>
<path d="M6737 7313 c32 -47 38 -65 38 -109 0 -36 -5 -59 -16 -69 -15 -15 -21
-15 -69 -1 -31 9 -90 16 -139 16 -74 0 -95 -4 -147 -29 -60 -28 -134 -85 -134
-102 0 -17 29 -9 123 37 123 59 186 67 287 33 79 -26 95 -22 120 27 8 16 16
58 18 94 4 64 3 66 -38 113 -23 26 -50 47 -61 47 -17 0 -14 -7 18 -57z"/>
<path d="M4173 7299 c-9 -9 -1 -26 33 -67 53 -65 97 -138 92 -152 -1 -5 -39
19 -83 53 -44 35 -97 74 -117 86 -35 21 -38 21 -38 4 0 -10 18 -40 40 -68 41
-52 85 -125 75 -125 -4 0 -52 32 -109 70 -100 69 -128 81 -141 60 -10 -17 10
-35 88 -81 40 -23 104 -66 143 -95 69 -53 104 -67 104 -41 0 6 -11 36 -25 65
-38 82 -32 91 28 40 93 -80 126 -86 103 -20 -23 63 -49 115 -88 174 -21 31
-38 62 -38 67 0 6 18 11 40 11 29 0 40 4 40 15 0 12 -14 15 -68 15 -38 0 -73
-5 -79 -11z"/>
<path d="M5680 7300 c-19 -12 -13 -16 38 -27 l42 -8 -36 -50 c-44 -62 -104
-185 -104 -214 0 -37 27 -26 125 53 19 16 38 27 40 24 2 -2 -9 -33 -26 -68
-28 -60 -32 -90 -10 -90 5 0 42 25 83 56 40 30 105 73 144 95 40 21 77 46 84
54 13 16 7 45 -9 45 -5 0 -57 -31 -115 -70 -59 -38 -111 -70 -116 -70 -13 0
12 39 61 100 40 50 63 89 56 97 -9 9 -71 -29 -155 -94 -46 -36 -86 -63 -88
-60 -9 9 21 59 81 137 54 68 56 74 39 87 -20 15 -112 17 -134 3z"/>
<path d="M1703 7188 c11 -79 47 -176 89 -238 85 -128 209 -240 266 -240 22 0
19 5 -28 47 -46 41 -85 88 -193 232 -18 23 -27 47 -25 61 3 22 7 20 63 -29
107 -95 307 -222 323 -207 9 10 -36 52 -163 154 -65 54 -146 122 -180 152
-138 127 -162 138 -152 68z"/>
<path d="M3322 7214 c-12 -8 -22 -22 -22 -30 0 -18 4 -18 40 1 19 10 27 20 24
30 -8 19 -14 19 -42 -1z"/>
<path d="M8205 7159 c-44 -38 -145 -123 -225 -188 -152 -124 -187 -157 -177
-167 10 -10 140 65 228 133 46 35 102 77 124 94 33 25 41 28 43 14 7 -32 -59
-120 -202 -272 -53 -56 -65 -73 -50 -73 51 0 190 127 268 244 37 56 72 145 85
218 14 78 -3 77 -94 -3z"/>
<path d="M6636 7213 c-11 -12 -6 -22 19 -39 29 -19 53 -10 34 12 -17 20 -45
35 -53 27z"/>
<path d="M4480 7190 c0 -5 14 -19 30 -32 17 -12 30 -25 30 -29 0 -10 -75 16
-118 41 -62 37 -84 20 -32 -23 39 -33 130 -67 181 -67 44 0 109 23 109 39 0
14 -28 28 -75 36 -22 4 -57 16 -77 26 -43 22 -48 23 -48 9z"/>
<path d="M5460 7181 c-19 -10 -51 -22 -70 -25 -42 -8 -80 -26 -80 -37 0 -5 14
-16 32 -25 46 -24 140 -15 211 20 53 25 87 60 73 73 -3 4 -42 -11 -86 -32 -45
-20 -83 -35 -85 -33 -3 2 9 17 25 33 48 46 40 57 -20 26z"/>
<path d="M2270 7140 c0 -31 87 -156 148 -213 29 -28 62 -33 69 -12 4 12 -193
235 -207 235 -6 0 -10 -5 -10 -10z"/>
<path d="M7610 7029 c-56 -60 -100 -116 -97 -122 2 -7 13 -13 24 -15 25 -4
132 116 177 197 45 84 9 63 -104 -60z"/>
<path d="M4567 6978 c80 -83 120 -134 111 -143 -3 -3 -47 26 -99 65 -60 44
-97 66 -103 60 -6 -6 5 -38 31 -87 54 -102 125 -272 120 -286 -2 -6 -23 15
-48 48 -24 33 -81 98 -126 145 -75 77 -83 82 -83 59 0 -15 11 -64 25 -110 85
-284 84 -326 -4 -192 -75 113 -161 194 -161 151 0 -7 30 -49 66 -93 62 -75
104 -150 193 -347 47 -106 55 -92 47 85 -7 141 -10 160 -47 271 -22 65 -38
120 -36 123 14 13 127 -191 216 -389 40 -90 65 -128 76 -116 6 5 -20 230 -36
311 -8 39 -38 112 -80 195 -37 72 -62 132 -56 132 6 0 59 -50 119 -111 104
-106 138 -128 118 -74 -32 85 -108 220 -154 275 -49 60 -121 110 -156 110 -8
0 23 -37 67 -82z"/>
<path d="M5437 7039 c-45 -24 -118 -97 -155 -154 -22 -35 -112 -227 -112 -240
0 -20 36 9 124 100 107 109 159 140 112 67 -85 -135 -128 -258 -151 -429 -17
-136 -18 -163 -6 -163 13 0 63 90 100 181 48 115 174 329 187 317 2 -3 -12
-50 -32 -106 -35 -102 -49 -192 -56 -352 -5 -125 5 -115 110 110 43 92 78 149
131 214 46 56 69 92 63 98 -6 6 -19 4 -36 -7 -31 -21 -113 -122 -147 -182 -13
-24 -28 -43 -33 -43 -15 0 3 95 39 211 39 123 52 189 39 189 -15 0 -146 -138
-199 -209 -27 -36 -50 -60 -52 -54 -5 15 61 173 115 275 25 48 43 90 39 94 -9
9 -41 -8 -105 -56 -28 -21 -63 -47 -78 -56 l-27 -18 18 35 c10 18 53 69 96
113 44 43 79 80 79 82 0 9 -28 2 -63 -17z"/>
<path d="M3593 6935 c-25 -11 -33 -20 -33 -40 0 -14 5 -25 10 -25 28 0 110 54
110 72 0 13 -51 9 -87 -7z"/>
<path d="M6310 6931 c0 -11 16 -24 63 -50 49 -27 57 -26 57 5 0 19 -8 28 -35
40 -38 16 -85 19 -85 5z"/>
<path d="M2562 6909 c-35 -56 -21 -183 33 -290 15 -28 24 -54 21 -57 -3 -3
-31 0 -62 7 -106 24 -168 -10 -167 -92 1 -52 26 -103 83 -171 44 -53 46 -69 9
-74 -47 -5 -108 -33 -123 -57 -36 -55 -12 -156 60 -251 31 -40 30 -46 -7 -73
-64 -48 -85 -122 -55 -195 7 -18 39 -55 70 -81 l56 -49 -21 -19 c-60 -56 -46
-183 26 -234 74 -52 70 -45 52 -92 -47 -117 16 -213 142 -216 l56 -2 5 -89 c7
-103 25 -145 70 -164 36 -15 106 -8 150 15 40 20 50 13 50 -36 0 -67 41 -125
95 -135 31 -5 73 11 128 49 14 10 19 9 27 -3 5 -8 10 -25 10 -36 0 -51 71
-104 140 -104 48 0 73 11 116 52 l31 29 36 -40 c45 -50 66 -61 116 -61 35 0
48 7 100 55 l59 56 17 -28 c23 -39 83 -76 125 -77 47 -1 46 23 -2 40 -57 20
-85 42 -123 100 l-36 54 -23 -42 c-26 -49 -97 -108 -131 -108 -31 0 -83 55
-95 102 -6 20 -15 40 -19 43 -5 3 -25 -14 -45 -37 -49 -57 -84 -78 -129 -78
-61 0 -107 64 -107 151 0 49 -23 54 -74 15 -26 -19 -63 -40 -83 -45 -79 -22
-96 26 -67 182 8 38 -19 36 -81 -8 -133 -95 -204 -60 -193 98 3 39 7 79 9 87
3 12 -11 16 -66 21 -80 7 -101 14 -132 42 -39 35 -28 101 30 179 11 14 16 31
13 36 -3 6 -31 16 -60 22 -93 19 -134 83 -100 155 9 21 32 47 50 58 19 12 34
25 34 29 0 4 -27 23 -59 43 -65 39 -108 83 -117 120 -13 52 56 126 134 144 70
15 69 18 -18 74 -46 30 -98 99 -106 144 -13 70 24 93 154 93 102 0 115 10 62
48 -16 12 -63 68 -105 124 -77 105 -90 143 -60 168 21 18 147 -2 226 -36 91
-38 91 -33 -2 103 -62 91 -88 166 -96 274 -3 49 -9 89 -12 89 -3 0 -12 -9 -19
-21z"/>
<path d="M7403 6821 c-11 -115 -44 -194 -123 -301 -28 -37 -50 -73 -50 -79 0
-14 27 -8 83 21 21 10 76 24 122 30 94 13 115 5 115 -39 0 -28 -113 -183 -179
-247 -22 -22 -38 -43 -35 -48 3 -4 46 -8 95 -8 142 0 181 -33 141 -122 -27
-61 -63 -100 -117 -127 -55 -28 -58 -53 -5 -61 47 -8 72 -23 109 -65 59 -67
30 -134 -84 -200 -27 -16 -53 -34 -57 -39 -4 -5 7 -20 24 -33 111 -82 79 -197
-62 -219 -23 -4 -44 -12 -46 -19 -3 -6 11 -35 31 -64 46 -70 48 -118 5 -155
-32 -26 -62 -34 -145 -38 -47 -3 -50 -5 -47 -28 1 -14 4 -57 5 -97 2 -60 -2
-76 -19 -100 -18 -23 -29 -28 -65 -28 -35 1 -57 10 -107 44 -75 51 -94 49 -81
-6 21 -94 2 -173 -42 -173 -24 0 -92 34 -135 67 -38 29 -48 20 -59 -52 -13
-90 -42 -125 -105 -125 -44 0 -83 23 -125 75 -21 25 -41 45 -46 45 -4 0 -13
-19 -20 -42 -6 -23 -26 -57 -45 -76 -30 -30 -39 -34 -67 -28 -38 8 -104 68
-123 114 -8 17 -16 32 -18 32 -2 0 -16 -20 -30 -44 -32 -55 -76 -93 -124 -106
-28 -7 -38 -15 -38 -31 0 -17 5 -20 29 -15 50 10 97 38 124 73 l26 33 56 -53
c87 -83 131 -83 207 0 41 44 42 45 61 27 50 -51 76 -64 125 -64 27 0 62 7 78
15 36 19 70 61 70 89 0 47 15 51 66 18 26 -18 61 -32 77 -32 65 0 117 62 117
140 0 21 4 41 8 44 4 2 27 -4 51 -15 24 -10 64 -19 90 -19 86 0 119 45 128
176 l6 84 50 0 c73 0 130 36 153 96 18 49 17 59 -20 145 -5 12 6 26 44 53 54
39 89 97 90 149 0 32 -33 103 -52 110 -8 3 9 25 45 57 67 61 87 94 87 148 0
42 -33 101 -76 134 -13 11 -24 24 -24 30 0 6 16 32 35 58 62 84 82 181 49 229
-21 29 -89 60 -131 61 -18 0 -33 3 -33 6 0 3 23 35 50 69 91 115 109 195 55
243 -29 25 -92 30 -158 11 -22 -6 -41 -8 -45 -5 -3 3 11 41 31 83 43 94 58
164 47 218 -21 105 -35 98 -47 -24z"/>
<path d="M2090 6781 c0 -14 80 -104 130 -146 100 -84 139 -98 154 -58 8 20 -6
37 -53 65 -20 12 -65 43 -101 68 -75 55 -130 85 -130 71z"/>
<path d="M7852 6747 c-119 -75 -224 -150 -229 -164 -3 -8 1 -22 10 -30 14 -14
20 -13 59 10 75 44 231 197 216 212 -2 3 -27 -10 -56 -28z"/>
<path d="M1626 6702 c-15 -45 48 -159 133 -240 91 -88 238 -178 257 -159 11
11 -12 36 -86 92 -102 78 -158 133 -181 177 -45 87 -13 89 165 8 128 -58 166
-70 166 -51 0 12 -84 73 -139 101 -156 79 -303 112 -315 72z"/>
<path d="M2720 6690 c0 -59 122 -210 169 -210 49 0 40 13 -146 210 l-23 25 0
-25z"/>
<path d="M8194 6675 c-111 -40 -142 -56 -216 -108 -114 -79 -56 -75 121 8 120
56 167 67 178 39 10 -26 -61 -115 -143 -179 -116 -90 -155 -127 -151 -139 7
-19 39 -6 122 49 108 72 176 134 217 197 46 70 62 112 54 143 -6 22 -12 25
-49 24 -23 0 -83 -15 -133 -34z"/>
<path d="M7173 6601 c-94 -100 -111 -131 -72 -131 45 0 179 162 179 217 0 25
-15 12 -107 -86z"/>
<path d="M2980 6453 c0 -103 56 -241 135 -330 l46 -52 -43 -11 c-100 -24 -143
-67 -127 -124 5 -17 9 -45 9 -63 0 -19 10 -43 25 -61 l25 -30 -59 -59 c-33
-32 -66 -71 -75 -87 -14 -28 -13 -30 41 -95 46 -54 80 -84 111 -97 2 -1 -6
-17 -17 -35 -14 -24 -22 -62 -27 -130 -6 -93 -6 -97 16 -109 12 -6 64 -14 115
-17 l93 -6 6 -41 c13 -80 37 -146 53 -146 9 0 52 12 95 27 l80 27 32 -36 c17
-19 46 -54 64 -77 18 -22 40 -41 48 -41 8 0 47 25 85 56 l70 57 27 -25 c42
-40 131 -81 146 -68 7 5 30 37 50 69 28 45 36 70 36 105 0 55 -24 65 -35 14
-10 -45 -54 -125 -73 -133 -8 -3 -39 9 -68 26 -38 24 -56 42 -67 71 -18 46
-33 49 -42 8 -5 -21 -23 -42 -62 -70 -31 -22 -61 -40 -68 -40 -17 0 -62 51
-75 85 -6 16 -9 44 -5 62 8 45 -12 53 -44 16 -24 -27 -122 -73 -156 -73 -19 0
-56 115 -48 151 3 16 10 32 14 35 10 6 12 44 3 44 -3 0 -19 -11 -35 -24 -36
-30 -102 -41 -157 -26 l-42 11 0 81 0 81 60 55 c33 30 60 59 60 64 0 4 -28 8
-63 8 -69 0 -76 4 -132 67 l-37 42 44 53 c58 71 67 77 110 78 20 0 39 4 42 8
3 5 -15 23 -40 41 -56 39 -80 91 -75 164 1 21 111 77 151 77 14 0 32 5 40 10
12 8 6 18 -37 57 -83 77 -159 203 -187 307 -18 70 -36 95 -36 49z"/>
<path d="M1962 6449 c9 -28 123 -109 220 -158 95 -47 128 -54 128 -26 0 20
-29 39 -170 113 -151 78 -185 92 -178 71z"/>
<path d="M6973 6387 c-29 -95 -83 -184 -165 -272 -38 -40 -68 -75 -68 -78 0
-2 17 -7 38 -11 20 -3 65 -19 100 -35 62 -30 62 -30 62 -73 0 -57 -28 -107
-79 -141 -22 -16 -41 -33 -41 -38 0 -5 19 -9 42 -9 39 0 47 -5 100 -62 65 -70
65 -69 -7 -138 -46 -45 -46 -45 -111 -43 -76 3 -76 3 11 -78 l50 -47 0 -78 0
-79 -43 -14 c-57 -18 -123 -7 -162 26 -17 14 -33 23 -36 20 -3 -3 2 -27 12
-55 17 -48 17 -50 -5 -110 -13 -34 -29 -62 -35 -62 -36 0 -137 44 -160 71 -32
36 -49 29 -40 -15 6 -37 -19 -97 -55 -130 -18 -16 -25 -17 -47 -7 -48 21 -97
65 -111 98 -7 18 -15 33 -18 33 -3 0 -13 -17 -22 -37 -23 -47 -116 -108 -143
-93 -20 11 -70 105 -70 131 0 10 -5 21 -11 25 -17 10 -30 -18 -23 -51 9 -46
77 -159 98 -163 21 -4 85 28 129 65 16 13 32 23 37 23 5 0 37 -25 73 -55 35
-30 71 -55 80 -55 9 0 29 17 44 37 15 20 44 55 64 77 l37 40 80 -27 c43 -15
87 -27 95 -27 16 0 36 52 55 145 l8 40 99 6 c86 6 102 10 117 29 20 25 20 27
9 129 -6 48 -16 83 -30 102 l-21 28 27 15 c36 19 143 140 143 161 0 10 -32 50
-71 90 l-71 73 21 29 c12 15 25 54 31 86 5 31 12 62 15 67 18 29 -45 76 -132
99 l-42 12 47 58 c77 96 132 227 132 316 0 45 -15 26 -37 -48z"/>
<path d="M4860 6411 c0 -23 7 -56 16 -73 32 -61 60 -329 33 -313 -6 4 -24 36
-41 71 -28 59 -53 92 -62 83 -3 -2 -9 -42 -15 -89 -15 -110 -21 -140 -29 -140
-4 0 -17 32 -29 70 -22 70 -68 144 -83 135 -5 -3 -26 -42 -48 -88 -22 -46 -59
-103 -81 -127 l-40 -45 -1 68 c0 37 -4 67 -9 67 -4 0 -36 -36 -71 -80 -35 -44
-67 -80 -72 -80 -6 0 -7 17 -3 40 10 58 -4 70 -68 63 l-52 -6 58 59 c50 51 70
84 50 84 -3 0 -29 -17 -57 -39 -60 -45 -99 -66 -143 -76 -79 -17 7 -74 111
-75 l59 0 -6 -27 c-4 -16 -13 -50 -21 -76 -14 -42 -14 -49 -1 -54 19 -7 56 17
123 80 l52 50 0 -57 c0 -41 4 -56 14 -56 23 0 121 114 167 194 32 57 46 73 55
65 19 -15 42 -90 55 -179 10 -66 16 -80 30 -80 31 0 59 77 74 208 4 28 10 52
13 52 4 0 26 -29 49 -65 23 -35 52 -69 64 -76 l22 -11 -6 178 c-3 105 -12 200
-20 229 -17 60 -50 126 -71 144 -14 12 -16 9 -16 -28z"/>
<path d="M5094 6417 c-38 -56 -51 -90 -63 -158 -16 -92 -27 -369 -14 -369 13
0 53 45 93 104 29 43 34 47 41 30 4 -10 8 -32 8 -47 2 -52 32 -166 51 -189 27
-33 37 -16 56 92 17 98 47 175 65 165 5 -4 22 -32 38 -64 46 -90 153 -217 173
-204 5 2 8 26 8 54 0 27 3 49 7 49 3 0 32 -25 63 -54 52 -50 102 -77 116 -63
3 3 -4 36 -15 73 -11 37 -18 71 -15 74 3 3 32 6 64 6 58 1 130 28 137 51 2 6
-11 14 -29 18 -44 10 -99 39 -154 80 -82 63 -87 42 -9 -38 30 -31 55 -59 55
-62 0 -4 -25 -4 -55 0 l-55 6 0 -50 c0 -28 -4 -51 -8 -51 -11 0 -52 46 -92
103 -46 65 -60 62 -60 -15 l-1 -63 -39 44 c-35 39 -73 106 -109 195 -12 28
-12 28 -32 10 -26 -24 -63 -96 -79 -153 -17 -64 -30 -40 -44 78 -7 56 -16 104
-20 108 -10 10 -39 -29 -72 -99 -15 -32 -31 -58 -36 -58 -22 0 7 228 42 318
20 52 27 112 13 112 -5 0 -18 -15 -29 -33z"/>
<path d="M7860 6369 c-158 -82 -183 -100 -173 -125 8 -20 12 -19 125 37 135
66 267 169 216 169 -7 0 -83 -37 -168 -81z"/>
<path d="M2740 6289 c0 -19 63 -71 115 -95 58 -27 75 -30 75 -10 0 16 -51 56
-116 91 -51 27 -74 31 -74 14z"/>
<path d="M7174 6265 c-66 -33 -120 -83 -106 -97 21 -21 182 77 182 111 0 17
-22 13 -76 -14z"/>
<path d="M1506 6264 c-14 -13 -14 -19 -1 -43 30 -59 220 -204 327 -250 54 -24
128 -37 128 -23 0 6 -53 42 -117 80 -129 76 -203 135 -203 159 0 21 75 14 217
-18 56 -13 106 -19 110 -15 13 13 -42 53 -104 76 -126 47 -325 67 -357 34z"/>
<path d="M8306 6259 c-131 -20 -249 -64 -271 -100 -14 -22 8 -21 134 5 136 27
186 32 196 17 11 -19 -64 -80 -192 -157 -73 -43 -133 -83 -133 -88 0 -16 79 2
146 33 82 38 210 128 275 193 49 49 55 62 41 85 -10 16 -124 24 -196 12z"/>
<path d="M3260 6208 c0 -7 24 -43 53 -79 28 -36 65 -84 81 -107 29 -43 69 -63
88 -44 14 14 -16 73 -55 108 -18 15 -59 52 -91 81 -61 54 -76 62 -76 41z"/>
<path d="M6685 6188 c-48 -35 -159 -139 -172 -162 -20 -35 -16 -66 8 -66 24 0
48 25 144 148 80 103 86 127 20 80z"/>
<path d="M1916 6071 c-11 -17 31 -37 181 -86 139 -47 173 -51 173 -21 0 25
-44 47 -152 76 -129 34 -194 44 -202 31z"/>
<path d="M7920 6039 c-151 -39 -180 -49 -190 -69 -13 -25 -5 -40 21 -40 32 0
311 98 328 115 14 13 10 15 -34 14 -28 0 -84 -9 -125 -20z"/>
<path d="M2670 6012 c0 -23 92 -76 152 -87 55 -10 56 11 1 45 -64 41 -153 65
-153 42z"/>
<path d="M7216 5985 c-71 -29 -109 -61 -84 -70 9 -4 33 -2 54 4 47 13 144 68
144 81 0 17 -53 10 -114 -15z"/>
<path d="M4626 5899 c-9 -13 -16 -28 -16 -34 0 -5 -14 -28 -30 -49 -32 -43
-39 -76 -15 -76 8 0 22 11 31 25 9 14 20 25 25 25 5 0 9 -11 9 -25 0 -19 5
-25 21 -25 21 0 22 3 16 82 -7 92 -17 111 -41 77z"/>
<path d="M5327 5913 c-3 -5 -8 -45 -12 -91 -7 -79 -7 -82 14 -82 16 0 21 6 21
25 0 14 4 25 9 25 5 0 16 -11 25 -25 18 -27 46 -34 46 -11 0 7 -11 30 -25 50
-14 21 -31 52 -39 70 -15 35 -31 52 -39 39z"/>
<path d="M3204 5895 c-8 -20 19 -41 70 -56 48 -13 74 -6 55 17 -15 19 -54 39
-92 48 -20 5 -29 2 -33 -9z"/>
<path d="M4855 5900 c-13 -21 -44 -143 -39 -151 11 -19 36 -7 49 24 l14 32 11
-32 c14 -38 50 -47 50 -13 0 42 -72 160 -85 140z"/>
<path d="M5071 5838 c-36 -71 -39 -98 -12 -98 12 0 23 11 31 33 l12 32 14 -33
c18 -40 51 -41 46 -2 -5 54 -33 130 -46 130 -8 0 -28 -28 -45 -62z"/>
<path d="M6716 5884 c-65 -23 -84 -47 -44 -57 28 -8 108 27 108 46 0 22 -21
26 -64 11z"/>
<path d="M1690 5839 c-86 -11 -147 -35 -168 -66 -16 -26 -16 -27 21 -59 52
-44 161 -100 233 -119 63 -16 229 -21 238 -6 8 13 -62 37 -164 57 -89 17 -163
48 -193 81 -33 37 -1 47 164 53 184 6 207 20 90 54 -58 17 -117 18 -221 5z"/>
<path d="M8074 5816 c-107 -35 -71 -51 113 -51 121 0 145 -3 159 -17 17 -16
17 -18 0 -37 -29 -32 -97 -59 -204 -81 -110 -22 -130 -28 -150 -43 -37 -29 87
-36 203 -12 77 16 212 78 263 122 30 25 32 31 23 55 -7 19 -25 32 -68 48 -73
28 -274 38 -339 16z"/>
<path d="M3837 5740 c-8 -29 18 -128 40 -159 11 -14 32 -27 46 -29 33 -4 33
-1 2 46 -13 20 -26 48 -27 62 -3 23 0 25 36 22 36 -3 38 -2 26 13 -12 14 -101
65 -114 65 -2 0 -6 -9 -9 -20z"/>
<path d="M6067 5720 c-56 -35 -60 -51 -12 -43 30 5 35 3 35 -14 0 -11 -13 -40
-30 -64 -37 -54 -37 -61 -3 -57 36 4 67 51 83 126 19 91 4 101 -73 52z"/>
<path d="M2681 5732 c-14 -4 -26 -13 -28 -19 -6 -17 41 -28 119 -28 70 0 102
15 81 36 -14 14 -138 21 -172 11z"/>
<path d="M7160 5722 c-14 -4 -25 -14 -25 -22 0 -21 53 -31 120 -25 70 7 96 18
79 35 -14 14 -140 22 -174 12z"/>
<path d="M1935 5714 c-11 -3 -27 -7 -35 -10 -30 -11 16 -23 163 -44 148 -21
187 -19 187 13 -1 38 -17 42 -157 44 -76 1 -147 -1 -158 -3z"/>
<path d="M4124 5702 c-16 -10 -28 -1861 -13 -1916 15 -56 90 -126 184 -172
l78 -39 141 3 c260 5 344 -33 427 -189 19 -35 41 -64 49 -64 8 0 29 26 46 58
60 113 143 175 246 184 32 3 58 9 58 12 -1 8 -41 54 -62 70 -14 10 -24 10 -52
0 -28 -10 -40 -10 -62 0 -24 11 -31 10 -53 -8 -117 -94 -161 -119 -161 -92 0
5 -12 23 -26 40 -19 23 -34 31 -58 31 -29 0 -33 4 -42 38 -9 35 -11 37 -53 40
-29 2 -55 12 -74 28 -16 13 -34 24 -40 24 -7 0 -25 12 -40 26 -26 23 -34 26
-75 20 -131 -19 -147 -19 -194 3 -70 34 -91 61 -96 130 -4 60 20 137 39 125 5
-3 9 -33 9 -68 0 -67 14 -92 68 -119 67 -34 117 -29 195 20 31 19 37 29 37 57
0 52 16 84 52 106 74 45 159 15 278 -96 109 -101 145 -117 178 -76 20 26 14
60 -43 230 -61 181 -70 202 -88 202 -21 0 -87 -74 -87 -98 0 -23 40 -84 126
-192 58 -73 69 -102 40 -108 -14 -3 -55 33 -148 129 -106 110 -128 138 -123
157 3 12 8 33 11 46 14 56 -68 85 -142 50 -107 -51 -194 -247 -154 -345 13
-29 12 -33 -9 -50 -27 -22 -50 -24 -75 -6 -17 12 -17 17 -5 51 11 30 11 40 0
58 -11 18 -9 28 18 82 21 42 34 86 41 145 6 50 17 94 27 109 47 64 53 85 53
189 0 56 -4 104 -10 108 -13 8 -35 -31 -54 -97 -34 -119 -76 -188 -76 -124 0
37 -16 40 -40 6 -25 -34 -40 -39 -40 -11 0 32 -17 33 -38 4 -23 -31 -40 -26
-23 6 6 11 20 58 31 106 36 147 81 232 150 280 48 33 68 28 116 -31 43 -53 65
-55 121 -15 53 38 73 68 73 107 0 18 8 38 19 48 18 17 20 17 29 -1 5 -10 12
-31 16 -48 4 -16 13 -43 20 -60 15 -34 76 -227 76 -238 0 -17 -80 40 -88 63
-5 14 -15 45 -23 69 -13 41 -41 72 -53 60 -3 -3 1 -29 10 -59 16 -60 21 -214
9 -297 -6 -43 -4 -53 8 -53 8 0 20 7 27 15 11 13 16 13 47 0 39 -17 69 -19 77
-7 10 17 -13 35 -60 47 -68 17 -65 39 6 45 30 3 54 8 53 13 -2 4 -3 11 -3 16
0 6 -24 11 -52 13 -49 3 -53 5 -56 30 -3 27 -3 27 50 21 29 -3 56 -8 59 -12 4
-3 18 -45 33 -93 27 -86 47 -120 61 -98 12 19 -4 77 -66 249 -32 90 -59 171
-59 179 0 8 -16 67 -36 131 -20 64 -56 181 -81 261 -24 80 -50 160 -58 178
-14 31 -38 42 -50 22 -3 -6 21 -93 54 -194 34 -101 61 -187 61 -192 0 -4 -9 2
-20 14 -12 12 -24 22 -28 22 -5 0 -23 -16 -42 -35 -37 -38 -87 -48 -109 -21
-9 11 -2 26 39 72 49 56 59 77 41 88 -10 7 -85 -65 -128 -120 -28 -37 -62 -44
-83 -18 -11 13 -4 24 48 77 57 57 75 87 54 87 -5 0 -37 -20 -73 -45 -35 -25
-69 -45 -75 -45 -14 0 -44 33 -44 48 0 6 36 39 80 72 44 33 80 67 80 74 0 29
-31 24 -82 -14 -29 -22 -56 -40 -59 -40 -21 0 -39 14 -39 31 0 19 103 95 186
137 58 30 70 47 54 77 -8 15 -10 35 -5 57 13 55 10 151 -6 183 l-14 30 -215 2
c-118 2 -220 0 -226 -5z"/>
<path d="M4620 5706 c0 -33 26 -119 45 -148 19 -29 25 -51 25 -92 l0 -55 72
-42 c71 -42 149 -61 162 -41 11 19 -6 43 -45 63 -22 11 -39 24 -39 29 0 6 18
28 39 49 86 86 235 78 280 -15 12 -23 12 -39 3 -84 -14 -66 -50 -105 -89 -95
-54 13 -70 -52 -33 -126 30 -58 58 -67 112 -37 33 18 42 29 40 46 -2 16 8 30
42 54 35 24 43 35 35 45 -6 7 -15 10 -20 7 -5 -3 -9 1 -9 9 0 25 30 41 84 47
47 5 51 7 54 33 3 23 8 27 33 27 41 0 100 -33 124 -69 10 -16 29 -34 42 -40
12 -6 25 -21 28 -34 4 -14 17 -29 31 -36 28 -13 29 -18 8 -61 -17 -33 -17 -84
2 -267 7 -60 6 -63 -20 -74 -43 -20 -78 -2 -96 49 -9 26 -25 48 -40 55 -21 11
-25 20 -25 54 0 23 -4 45 -8 49 -16 16 -42 -13 -45 -50 -4 -45 16 -79 58 -101
36 -19 39 -35 6 -35 -42 0 -41 -33 2 -130 11 -25 23 -74 26 -110 3 -36 5 -66
5 -68 3 -12 60 -18 129 -13 45 4 89 3 97 -2 23 -13 18 -63 -14 -120 -16 -28
-39 -82 -51 -119 -31 -98 -84 -134 -130 -88 -20 20 -20 20 1 60 20 38 23 40
39 25 34 -30 47 -19 59 50 16 93 6 110 -61 101 -61 -8 -133 -41 -153 -69 -21
-30 -19 -81 5 -127 14 -27 20 -59 20 -102 0 -88 25 -247 43 -282 19 -35 16
-44 -15 -40 -13 1 -26 3 -31 3 -4 1 -12 12 -19 26 -13 29 -28 24 -28 -10 0
-47 85 -83 130 -55 22 13 20 93 -2 117 -24 26 -23 29 13 42 39 14 109 14 109
1 0 -5 -11 -26 -25 -46 -29 -43 -31 -57 -10 -74 24 -20 18 -29 -30 -50 -46
-20 -58 -43 -34 -67 22 -22 0 -34 -32 -17 -38 19 -65 11 -84 -26 -28 -55 -23
-60 64 -60 149 0 296 72 357 175 l27 47 -7 946 c-4 521 -10 950 -14 953 -7 7
-1242 22 -1242 15z"/>
<path d="M7750 5685 c-18 -22 -2 -49 33 -53 28 -3 307 35 315 43 15 15 -26 20
-172 23 -141 3 -164 1 -176 -13z"/>
<path d="M3163 5650 c-31 -12 -29 -28 4 -41 27 -10 73 -4 107 13 19 10 19 11
1 24 -21 16 -78 17 -112 4z"/>
<path d="M6711 5636 c-18 -21 15 -36 78 -36 39 0 51 4 51 15 0 32 -106 49
-129 21z"/>
<path d="M1773 5475 c-85 -18 -162 -61 -170 -94 -9 -34 -5 -52 15 -68 29 -22
165 -71 217 -78 71 -9 224 20 205 39 -3 2 -57 9 -120 15 -154 15 -220 38 -220
76 0 20 61 44 162 66 159 33 146 28 124 45 -25 18 -129 17 -213 -1z"/>
<path d="M8010 5470 c-23 -14 -7 -22 76 -36 152 -27 223 -56 211 -87 -14 -36
-86 -55 -269 -72 -38 -4 -68 -11 -68 -15 0 -19 87 -32 180 -28 79 4 108 10
172 37 93 39 104 50 92 94 -12 40 -80 80 -176 102 -74 17 -195 20 -218 5z"/>
<path d="M2743 5463 c-32 -6 -51 -32 -32 -44 18 -13 136 -4 172 12 61 28 -41
51 -140 32z"/>
<path d="M5018 5453 c-16 -19 -38 -57 -38 -67 0 -13 25 -5 45 14 19 18 23 18
43 5 17 -12 20 -22 15 -46 -4 -23 -3 -28 9 -24 22 9 37 46 28 70 -18 47 -78
75 -102 48z"/>
<path d="M7120 5463 c-80 -15 -8 -53 100 -53 56 0 70 3 70 15 0 9 -10 19 -22
24 -31 11 -117 19 -148 14z"/>
<path d="M2090 5409 c-88 -10 -185 -33 -194 -48 -8 -13 320 -21 355 -9 25 8
30 15 27 37 -3 24 -7 26 -53 27 -27 1 -88 -2 -135 -7z"/>
<path d="M3285 5408 c-32 -17 -75 -61 -75 -75 0 -33 89 10 109 53 15 33 1 42
-34 22z"/>
<path d="M6660 5397 c0 -18 60 -73 88 -82 36 -10 28 28 -13 64 -37 32 -75 41
-75 18z"/>
<path d="M7718 5404 c-15 -14 -8 -43 12 -54 12 -7 88 -9 202 -8 179 3 182 3
148 20 -19 9 -62 21 -95 27 -84 15 -258 25 -267 15z"/>
<path d="M4591 5311 c-16 -29 -13 -83 5 -109 16 -24 53 -29 85 -11 24 12 16
29 -15 29 -32 0 -46 19 -46 61 0 44 -14 58 -29 30z"/>
<path d="M4767 5317 c-3 -8 -2 -20 3 -27 11 -18 42 -4 38 17 -4 22 -34 29 -41
10z"/>
<path d="M5347 5253 c-62 -48 -137 -151 -137 -189 0 -49 17 -50 41 -2 32 63
71 110 134 158 30 23 52 46 49 51 -10 17 -51 9 -87 -18z"/>
<path d="M2886 5250 c-55 -28 -106 -69 -106 -86 0 -26 47 -15 112 29 93 62 89
104 -6 57z"/>
<path d="M3444 5252 c-20 -12 -54 -76 -54 -99 0 -30 25 -30 45 0 36 56 42 120
9 99z"/>
<path d="M7030 5251 c0 -25 128 -111 165 -111 38 0 -1 52 -68 90 -51 29 -97
39 -97 21z"/>
<path d="M6517 5242 c-7 -11 19 -83 37 -100 8 -8 22 -12 30 -9 15 6 15 10 1
44 -24 56 -55 87 -68 65z"/>
<path d="M4810 5202 c0 -23 55 -76 69 -68 19 12 12 33 -20 60 -36 31 -49 33
-49 8z"/>
<path d="M4927 5214 c-4 -4 -7 -28 -7 -53 0 -41 -14 -108 -36 -179 -6 -21 -4
-23 17 -20 34 4 49 44 55 140 5 62 2 88 -8 101 -7 10 -17 15 -21 11z"/>
<path d="M2205 5141 c-112 -47 -125 -53 -153 -84 -52 -55 21 -47 178 19 107
46 133 65 123 90 -8 23 -52 15 -148 -25z"/>
<path d="M7981 5170 c-21 -12 -1 -36 64 -74 66 -38 135 -105 135 -131 0 -23
-58 -27 -169 -11 -108 17 -130 14 -109 -11 28 -34 148 -62 265 -63 72 0 85 3
109 23 22 19 26 29 20 50 -10 41 -62 94 -152 154 -82 54 -141 77 -163 63z"/>
<path d="M1947 5155 c-56 -16 -77 -31 -77 -57 0 -25 22 -32 62 -19 36 12 108
66 108 82 0 12 -35 10 -93 -6z"/>
<path d="M7642 5143 c3 -24 15 -31 119 -74 135 -56 199 -70 199 -45 0 20 -69
71 -118 87 -20 6 -63 22 -94 35 -32 13 -69 24 -83 24 -23 0 -26 -4 -23 -27z"/>
<path d="M3642 5143 c-5 -10 -13 -39 -16 -66 -6 -39 -4 -48 9 -53 25 -10 37 9
42 63 4 36 1 52 -10 62 -13 10 -17 9 -25 -6z"/>
<path d="M3864 5136 c-8 -34 22 -116 43 -116 24 0 12 95 -15 122 l-21 21 -7
-27z"/>
<path d="M6074 5125 c-18 -45 -19 -105 0 -105 21 0 51 87 41 120 -9 30 -24 24
-41 -15z"/>
<path d="M6311 5142 c-15 -28 -14 -56 4 -99 12 -28 18 -34 27 -25 15 15 11 87
-6 120 -13 25 -13 25 -25 4z"/>
<path d="M3030 5063 c-64 -53 -114 -143 -80 -143 18 0 95 77 115 114 28 51 9
66 -35 29z"/>
<path d="M6900 5075 c0 -35 102 -155 131 -155 11 0 19 4 19 8 0 19 -61 102
-92 126 -32 24 -58 33 -58 21z"/>
<path d="M5070 4980 c0 -42 3 -50 19 -50 23 0 71 37 71 54 0 21 -35 46 -63 46
-26 0 -27 -2 -27 -50z"/>
<path d="M2033 4993 c-18 -7 -16 -23 9 -74 30 -63 31 -177 0 -241 -29 -62 -28
-84 8 -138 36 -55 37 -65 5 -86 -19 -13 -39 -15 -80 -11 -58 6 -83 -8 -50 -27
31 -19 75 -57 75 -66 0 -5 -12 -21 -27 -35 -26 -24 -27 -27 -11 -39 10 -7 16
-22 13 -34 -3 -18 2 -22 31 -28 41 -7 51 -19 27 -32 -27 -15 -23 -54 9 -90 15
-18 25 -38 22 -44 -4 -6 -3 -8 3 -5 6 4 14 -5 18 -21 3 -15 34 -99 67 -187 33
-88 75 -200 93 -250 18 -49 47 -128 65 -175 25 -69 30 -93 25 -131 l-7 -46 35
-7 c54 -10 63 -28 32 -64 -34 -41 -32 -54 15 -74 33 -14 40 -21 40 -44 0 -17
-11 -39 -27 -56 -21 -22 -24 -31 -15 -40 9 -9 19 -9 45 0 49 18 64 15 71 -13
8 -30 2 -42 -31 -69 -28 -22 -25 -38 8 -46 13 -3 36 -25 52 -48 32 -48 49 -51
109 -21 31 16 53 20 85 16 64 -7 88 -35 107 -121 20 -90 53 -140 103 -157 55
-18 170 -5 308 35 310 89 454 173 473 276 16 91 -11 105 -63 33 -34 -47 -55
-54 -55 -19 0 45 -21 40 -71 -15 -40 -45 -50 -51 -59 -39 -6 8 -8 31 -5 50 13
101 17 170 7 170 -5 0 -35 -11 -66 -25 -85 -38 -142 -31 -198 23 -37 34 -35
49 6 66 60 25 70 59 73 241 4 189 14 246 53 308 46 73 152 127 247 127 21 0
37 7 47 21 13 20 25 22 108 23 85 1 99 4 170 38 42 20 84 47 92 61 14 21 16
59 14 278 l-3 254 -49 6 c-48 5 -60 14 -96 68 l-15 23 -45 -36 c-40 -32 -52
-36 -102 -36 l-58 0 0 -186 0 -185 -50 -54 c-74 -78 -123 -109 -157 -100 -32
8 -139 112 -153 150 -6 15 -10 70 -10 123 0 98 -13 150 -24 101 -4 -13 -10
-77 -15 -142 -9 -133 -15 -147 -96 -209 -51 -39 -99 -53 -145 -43 -38 8 -106
84 -119 132 -11 42 -2 127 22 206 8 26 11 49 7 52 -10 6 -32 -27 -70 -111 -35
-79 -66 -115 -129 -152 -58 -34 -136 -37 -177 -6 -76 56 -72 222 9 376 22 43
38 81 34 85 -10 9 -52 -33 -102 -102 -110 -155 -237 -217 -309 -150 -83 77
-56 213 64 329 54 52 71 76 55 76 -14 0 -73 -35 -103 -61 -18 -16 -39 -29 -47
-29 -18 0 -75 70 -75 92 0 9 12 39 26 65 23 43 25 57 22 134 -6 123 -47 202
-95 182z"/>
<path d="M5207 4993 c-4 -3 -7 -9 -7 -13 0 -11 168 -120 185 -120 37 0 8 32
-74 84 -94 59 -94 60 -104 49z"/>
<path d="M5170 4942 c0 -19 210 -174 238 -176 17 -1 25 15 14 29 -8 11 -239
165 -247 165 -3 0 -5 -8 -5 -18z"/>
<path d="M4976 4910 c-20 -22 -36 -45 -36 -52 0 -7 14 -26 31 -44 36 -38 48
-83 49 -184 0 -50 7 -91 19 -125 11 -27 23 -63 26 -78 3 -15 10 -25 15 -22 15
9 11 97 -5 125 -9 15 -15 54 -15 100 0 41 -5 95 -11 120 -6 25 -12 52 -14 60
-2 8 -4 43 -4 78 -1 34 -5 62 -10 62 -5 0 -25 -18 -45 -40z"/>
<path d="M3220 4893 c-49 -55 -88 -153 -62 -153 26 0 112 132 112 171 0 28
-14 23 -50 -18z"/>
<path d="M2343 4874 c-104 -71 -175 -144 -140 -144 24 0 236 133 242 152 7 22
-1 38 -20 38 -8 0 -44 -21 -82 -46z"/>
<path d="M6715 4893 c13 -56 80 -153 105 -153 25 0 -7 81 -58 148 -31 41 -57
44 -47 5z"/>
<path d="M7543 4895 c-3 -9 2 -24 12 -35 26 -29 223 -143 237 -137 28 10 -189
187 -229 187 -7 0 -16 -7 -20 -15z"/>
<path d="M1753 4854 c-64 -31 -70 -56 -19 -81 49 -23 83 -12 92 31 6 35 -2 77
-14 75 -4 0 -31 -12 -59 -25z"/>
<path d="M5085 4868 c-14 -47 -11 -77 11 -126 29 -64 30 -84 4 -107 -23 -21
-27 -55 -7 -55 8 0 22 9 32 20 10 11 22 17 26 14 16 -10 9 -61 -11 -87 -27
-34 -25 -47 5 -47 69 0 72 110 6 247 -23 48 -41 100 -41 119 0 33 -17 47 -25
22z"/>
<path d="M3446 4823 c-30 -96 -29 -178 3 -159 17 11 42 111 39 157 -4 59 -23
59 -42 2z"/>
<path d="M6494 4856 c-15 -38 18 -201 41 -201 28 0 12 152 -21 199 -12 18 -14
18 -20 2z"/>
<path d="M7830 4857 c0 -7 30 -42 66 -78 74 -71 103 -121 83 -145 -20 -24
-109 -18 -163 11 -82 44 -105 23 -39 -35 52 -46 137 -81 209 -87 58 -5 62 -4
83 23 52 66 -8 172 -162 288 -50 37 -77 45 -77 23z"/>
<path d="M3696 4818 c-11 -44 -6 -154 8 -174 14 -18 15 -18 25 9 6 16 11 52
11 82 0 84 -29 138 -44 83z"/>
<path d="M6250 4814 c-13 -32 -10 -168 3 -181 5 -4 15 1 24 12 11 15 14 40 11
97 -4 88 -20 119 -38 72z"/>
<path d="M1892 4804 c-25 -17 -29 -62 -7 -70 23 -9 45 15 45 47 0 35 -11 42
-38 23z"/>
<path d="M3942 4748 c5 -65 33 -140 53 -142 33 -3 -3 163 -42 196 -15 12 -16
7 -11 -54z"/>
<path d="M5999 4764 c-12 -26 -24 -74 -27 -108 l-5 -61 22 19 c37 33 67 175
41 191 -6 4 -20 -15 -31 -41z"/>
<path d="M1660 4704 c0 -29 21 -54 45 -54 20 0 25 5 25 25 0 24 -25 45 -54 45
-9 0 -16 -7 -16 -16z"/>
<path d="M2588 4708 c-30 -24 -149 -173 -169 -211 -11 -21 -18 -46 -16 -55 2
-12 36 15 120 98 90 89 117 122 117 142 0 14 -7 29 -16 32 -20 8 -18 8 -36 -6z"/>
<path d="M7352 4693 c-6 -10 -6 -27 -2 -38 12 -29 232 -242 237 -228 7 20 -23
76 -71 133 -26 30 -65 76 -87 103 -43 50 -63 58 -77 30z"/>
<path d="M5243 4690 c-13 -5 -23 -18 -23 -30 0 -18 6 -20 70 -20 73 0 125 -15
149 -43 7 -10 17 -17 22 -17 16 0 9 47 -9 63 -42 38 -165 66 -209 47z"/>
<path d="M1779 4667 c-64 -43 -62 -102 3 -150 39 -29 46 -14 19 37 -26 47 -23
62 17 77 32 12 42 -1 42 -58 0 -47 14 -63 29 -34 14 25 14 107 1 132 -15 26
-68 25 -111 -4z"/>
<path d="M2190 4648 c-31 -16 -45 -29 -45 -43 0 -37 37 -29 85 20 36 37 41 45
24 45 -11 0 -40 -10 -64 -22z"/>
<path d="M2328 4560 c-14 -11 -40 -43 -58 -72 -18 -29 -44 -69 -56 -88 -47
-71 -44 -139 7 -165 40 -21 79 -12 146 32 45 30 103 90 103 108 0 3 9 15 20
27 20 22 18 38 -4 38 -7 0 -35 -17 -62 -39 -55 -43 -105 -71 -128 -71 -22 0
-31 45 -16 80 7 16 32 58 56 92 24 35 44 66 44 71 0 13 -27 7 -52 -13z"/>
<path d="M1936 4563 c-8 -8 -8 -78 0 -85 9 -10 42 3 48 18 11 28 -30 85 -48
67z"/>
<path d="M2844 4562 c-22 -14 -97 -183 -113 -255 -18 -75 23 -43 84 68 82 148
86 160 63 183 -14 14 -19 14 -34 4z"/>
<path d="M7610 4565 c0 -2 23 -39 50 -81 55 -84 65 -111 55 -143 -12 -40 -57
-25 -159 53 -44 33 -76 46 -76 29 0 -20 71 -111 113 -145 109 -85 188 -90 217
-13 14 38 4 66 -63 168 -59 89 -102 137 -123 137 -8 0 -14 -2 -14 -5z"/>
<path d="M7100 4541 c-13 -25 -5 -46 57 -154 64 -113 84 -140 94 -130 13 13
-15 101 -66 211 -44 94 -64 111 -85 73z"/>
<path d="M1720 4473 c0 -42 14 -57 44 -49 30 7 32 17 10 51 -23 35 -54 33 -54
-2z"/>
<path d="M5446 4463 c-22 -24 -28 -25 -51 -15 -34 16 -35 15 -35 -6 0 -20 39
-62 57 -62 15 0 73 67 73 85 0 26 -19 25 -44 -2z"/>
<path d="M3127 4402 c-35 -87 -60 -222 -45 -238 4 -3 16 9 28 27 55 92 85 239
49 247 -11 2 -22 -10 -32 -36z"/>
<path d="M6806 4433 c-24 -24 29 -210 74 -265 l19 -23 1 37 c0 43 -24 153 -46
208 -15 37 -35 55 -48 43z"/>
<path d="M3463 4388 c-14 -23 -6 -181 12 -224 14 -34 17 -37 26 -21 17 30 22
198 7 226 -16 29 -33 37 -45 19z"/>
<path d="M5133 4370 c-56 -21 -70 -35 -54 -54 7 -8 26 -18 42 -21 31 -7 99
-59 99 -76 0 -13 -51 -11 -89 2 -56 20 -60 0 -17 -83 20 -40 52 -113 69 -163
l32 -90 67 -3 c37 -2 82 1 100 6 33 8 33 9 30 63 -3 53 -19 109 -31 109 -13 0
-49 67 -56 104 -13 75 -94 209 -132 218 -10 2 -37 -3 -60 -12z"/>
<path d="M6472 4378 c-13 -13 -17 -184 -6 -226 9 -32 27 -22 41 24 12 42 17
172 7 198 -7 19 -25 21 -42 4z"/>
<path d="M2608 4343 c-31 -36 -39 -65 -44 -161 -9 -150 16 -184 113 -147 59
23 113 78 147 148 50 108 28 134 -40 46 -75 -97 -144 -127 -165 -71 -8 20 -7
45 5 102 9 42 16 81 16 88 0 17 -14 15 -32 -5z"/>
<path d="M7354 4310 c23 -169 20 -190 -37 -190 -31 0 -76 39 -144 125 -27 34
-32 37 -38 22 -10 -24 20 -98 59 -150 44 -58 105 -98 158 -104 66 -8 74 7 71
134 -3 106 -19 161 -59 193 -15 13 -16 11 -10 -30z"/>
<path d="M2985 4256 c-9 -13 -22 -55 -30 -94 -41 -197 93 -313 194 -167 56 82
92 225 57 225 -7 0 -31 -38 -54 -84 -40 -84 -62 -106 -101 -106 -35 0 -46 36
-43 148 2 56 0 102 -2 102 -3 0 -13 -11 -21 -24z"/>
<path d="M6971 4168 c3 -114 -8 -148 -44 -148 -39 0 -67 30 -108 116 -41 87
-59 98 -59 39 0 -76 58 -195 115 -233 45 -31 81 -28 116 9 44 47 55 96 40 176
-11 60 -44 143 -56 143 -3 0 -5 -46 -4 -102z"/>
<path d="M3586 4223 c-17 -88 -84 -181 -122 -166 -19 7 -47 62 -68 136 -9 31
-21 57 -26 57 -15 0 -12 -166 4 -204 17 -41 74 -86 109 -86 33 0 95 53 113 97
8 18 14 65 14 105 0 86 -14 120 -24 61z"/>
<path d="M6367 4211 c-7 -56 2 -138 19 -172 17 -35 80 -89 103 -89 24 0 79 38
104 71 23 32 34 137 19 189 l-9 35 -11 -25 c-5 -14 -15 -44 -21 -67 -12 -45
-55 -103 -75 -103 -27 0 -79 70 -101 137 l-22 68 -6 -44z"/>
<path d="M4681 3964 c-24 -30 -27 -54 -9 -72 20 -20 38 -14 38 13 0 25 3 27
54 29 40 2 44 22 7 40 -43 23 -67 20 -90 -10z"/>
<path d="M4830 3873 c-43 -7 -90 -24 -90 -33 0 -4 6 -13 13 -19 26 -21 187 21
187 49 0 10 -61 11 -110 3z"/>
<path d="M4914 3809 c-41 -10 -84 -40 -84 -61 0 -29 142 23 148 55 4 19 -3 19
-64 6z"/>
<path d="M4990 3754 c-31 -20 -64 -63 -55 -72 12 -13 100 44 103 67 4 25 -13
27 -48 5z"/>
<path d="M5330 3761 c0 -5 16 -23 35 -40 61 -53 104 -33 47 22 -27 26 -82 38
-82 18z"/>
<path d="M3741 3699 c-69 -46 -147 -136 -157 -182 -9 -42 1 -44 49 -9 51 39
131 82 152 82 18 0 19 -15 3 -75 -7 -24 -9 -47 -6 -51 4 -3 32 8 63 26 36 21
83 37 137 46 45 8 84 17 87 20 3 3 -3 12 -14 21 -15 11 -36 13 -82 9 l-63 -5
26 39 c14 21 24 49 22 62 -3 20 -8 23 -46 21 -24 -1 -59 -11 -78 -22 -49 -29
-59 -26 -33 10 36 51 10 55 -60 8z"/>
<path d="M6160 3714 c0 -3 9 -19 21 -35 25 -35 16 -36 -53 -4 -29 14 -65 25
-80 25 -24 0 -28 -4 -28 -28 0 -15 11 -43 25 -62 14 -19 25 -36 25 -38 0 -2
-20 0 -45 4 -56 8 -115 -2 -115 -21 0 -8 16 -16 43 -20 90 -13 137 -28 182
-56 71 -45 76 -40 50 44 -12 41 -12 49 0 53 20 8 100 -30 147 -71 51 -43 73
-46 63 -7 -13 56 -83 139 -161 193 -39 27 -74 38 -74 23z"/>
<path d="M5310 3691 c0 -24 47 -81 66 -81 8 0 14 5 14 10 0 21 -30 70 -49 80
-27 14 -31 13 -31 -9z"/>
<path d="M5045 3675 c-24 -24 -34 -55 -16 -55 15 0 61 49 61 65 0 22 -17 19
-45 -10z"/>
<path d="M7423 3673 c-8 -3 -13 -23 -13 -49 l0 -44 -41 0 -40 0 3 -42 c3 -42
4 -43 40 -46 36 -3 37 -5 40 -45 l3 -42 53 -3 52 -3 0 45 0 46 40 0 40 0 0 45
0 45 -40 0 c-33 0 -41 4 -45 23 -4 13 -5 27 -4 33 6 35 -2 44 -38 43 -21 0
-44 -3 -50 -6z"/>
<path d="M3432 3595 c-55 -46 -65 -89 -72 -315 -5 -135 -12 -216 -21 -237 -7
-18 -10 -36 -6 -40 14 -13 100 18 149 54 34 24 53 32 60 25 5 -5 12 -38 14
-73 10 -129 18 -134 98 -59 29 28 57 50 63 50 5 0 27 -38 47 -84 21 -47 46
-92 56 -101 17 -16 19 -15 29 4 6 11 11 51 11 90 0 66 10 95 25 71 4 -6 11
-41 16 -78 11 -79 36 -114 62 -88 8 9 21 40 27 69 17 84 23 87 68 40 53 -55
122 -70 122 -27 0 8 -12 27 -26 41 -49 49 -64 84 -64 151 0 71 -14 81 -31 22
-7 -22 -15 -40 -18 -40 -4 0 -15 14 -24 30 -26 43 -51 40 -43 -4 9 -47 -2 -88
-23 -84 -9 2 -28 29 -43 61 -39 80 -67 74 -82 -18 -12 -73 -21 -76 -72 -22
-25 26 -49 47 -53 47 -4 0 -22 -16 -41 -35 -19 -19 -38 -34 -44 -32 -5 2 -15
27 -23 57 -15 61 -37 100 -56 100 -6 0 -37 -16 -67 -35 -30 -19 -58 -35 -63
-35 -12 0 1 344 15 390 6 19 23 53 39 74 42 57 24 76 -29 31z"/>
<path d="M6490 3595 c0 -2 13 -25 29 -51 41 -64 51 -122 51 -299 0 -177 1
-175 -79 -120 -28 19 -55 35 -61 35 -16 0 -38 -41 -54 -103 -8 -33 -18 -62
-21 -65 -4 -4 -22 10 -40 31 -17 20 -39 37 -47 37 -8 0 -31 -18 -52 -40 -20
-22 -41 -40 -46 -40 -5 0 -14 19 -20 43 -19 77 -25 92 -43 95 -13 3 -24 -11
-42 -53 -40 -89 -81 -85 -69 8 7 58 -13 64 -45 15 l-20 -33 -17 43 c-9 23 -21
42 -26 42 -4 0 -8 -25 -8 -55 0 -67 -17 -110 -59 -149 -31 -30 -40 -59 -21
-71 20 -12 79 16 114 55 41 45 51 40 65 -36 12 -64 20 -81 36 -88 21 -8 43 20
50 62 14 91 21 117 30 117 12 0 24 -62 24 -127 2 -88 30 -70 91 57 22 47 44
85 48 85 5 0 26 -18 48 -40 21 -23 51 -47 66 -55 33 -18 35 -14 44 91 5 50 12
78 21 81 7 3 41 -13 74 -35 58 -39 114 -60 127 -48 3 4 0 28 -7 54 -6 27 -15
138 -20 248 -8 209 -14 237 -64 292 -18 19 -57 31 -57 17z"/>
<path d="M4010 3501 c-98 -31 -188 -103 -251 -200 -27 -42 -37 -89 -23 -104 4
-4 35 9 69 28 88 50 161 72 319 100 77 14 148 27 158 31 26 8 14 21 -27 28
-40 8 -260 -10 -319 -25 -83 -22 -47 20 82 93 66 38 82 57 56 64 -5 2 -34 -5
-64 -15z"/>
<path d="M4706 3505 c-9 -9 -16 -24 -16 -33 0 -33 116 -206 160 -241 53 -39
64 -26 23 27 -44 55 -68 99 -98 174 -32 80 -46 95 -69 73z"/>
<path d="M4196 3487 c-41 -23 -65 -51 -54 -62 4 -4 30 -2 58 4 93 20 132 15
215 -29 42 -22 80 -40 85 -40 40 0 -38 82 -112 120 -75 37 -136 40 -192 7z"/>
<path d="M4545 3490 c-10 -30 2 -56 66 -155 54 -82 121 -147 135 -132 4 3 -9
28 -29 55 -38 54 -87 141 -87 156 0 5 -9 29 -21 53 -23 47 -53 58 -64 23z"/>
<path d="M5232 3497 c-7 -8 -25 -46 -41 -85 -16 -39 -51 -101 -77 -137 -25
-36 -44 -68 -41 -71 3 -3 23 7 46 21 54 36 163 207 159 250 -3 33 -28 45 -46
22z"/>
<path d="M5365 3458 c-14 -29 -25 -58 -25 -64 0 -6 -27 -51 -59 -100 -32 -49
-55 -91 -50 -92 21 -8 85 57 141 142 47 74 58 98 56 126 -5 57 -33 52 -63 -12z"/>
<path d="M5892 3499 c2 -7 40 -34 83 -59 100 -57 158 -130 81 -100 -45 17
-285 42 -332 35 -45 -6 -57 -20 -26 -29 9 -3 49 -10 87 -16 192 -30 320 -70
399 -123 50 -35 56 -34 56 6 0 43 -61 139 -121 191 -53 45 -141 92 -193 102
-30 5 -38 4 -34 -7z"/>
<path d="M5594 3476 c-58 -27 -124 -81 -124 -102 0 -21 17 -17 75 16 73 42
129 51 217 34 39 -8 74 -11 77 -8 11 11 -17 40 -59 62 -58 29 -121 28 -186 -2z"/>
<path d="M3466 3414 c-11 -29 -7 -212 5 -220 7 -4 26 10 46 35 19 22 39 41 44
41 6 0 19 -20 29 -44 40 -88 66 -80 76 25 l5 64 -23 -27 c-31 -37 -38 -35 -38
8 0 37 -15 74 -29 74 -5 0 -21 -20 -35 -45 -15 -25 -31 -45 -36 -45 -6 0 -10
20 -10 44 0 83 -18 131 -34 90z"/>
<path d="M6476 3373 c-3 -21 -6 -55 -6 -77 0 -34 -2 -37 -16 -25 -8 7 -24 30
-35 51 -11 21 -24 38 -29 38 -9 0 -30 -62 -30 -92 0 -25 -11 -22 -38 10 l-23
27 6 -53 c13 -113 38 -127 74 -41 12 27 27 49 34 49 7 0 25 -18 40 -40 16 -22
33 -40 38 -40 17 0 29 49 29 115 0 101 -31 156 -44 78z"/>
<path d="M7335 3341 c-51 -13 -88 -37 -147 -98 -66 -68 -118 -147 -118 -180 0
-39 17 -26 71 55 83 125 136 172 194 172 l25 0 0 -145 0 -145 -156 0 c-143 0
-155 -1 -152 -17 3 -16 21 -18 175 -21 l172 -2 0 189 c0 161 -2 190 -15 195
-9 3 -16 6 -17 5 -1 -1 -15 -4 -32 -8z"/>
<path d="M7567 3343 c-4 -3 -7 -91 -7 -194 0 -169 2 -189 18 -197 9 -5 73 -12
142 -16 69 -3 137 -9 153 -12 43 -10 33 14 -15 36 -33 15 -66 20 -138 20 -61
0 -100 4 -108 12 -8 8 -12 57 -12 155 0 122 2 143 15 143 54 0 152 -101 214
-220 40 -75 63 -101 78 -86 22 21 -67 184 -144 263 -65 68 -173 120 -196 96z"/>
<path d="M7434 3285 c-8 -31 10 -55 42 -55 29 0 45 27 33 58 -13 33 -66 31
-75 -3z"/>
<path d="M7440 3140 c-15 -28 4 -60 35 -60 30 0 46 27 34 58 -11 28 -54 30
-69 2z"/>
<path d="M4820 3050 c-22 -42 25 -213 75 -275 30 -36 31 -24 5 58 -11 34 -26
98 -35 141 -17 91 -28 109 -45 76z"/>
<path d="M5122 3050 c-5 -14 -14 -55 -21 -91 -6 -36 -22 -98 -35 -137 -14 -40
-21 -72 -17 -72 21 0 63 76 86 155 29 100 31 124 11 151 -14 18 -15 18 -24 -6z"/>
<path d="M7450 3005 c-15 -18 -6 -61 16 -69 24 -9 54 12 54 37 0 43 -44 63
-70 32z"/>
<path d="M4982 2988 c-18 -18 -15 -97 3 -105 23 -8 30 4 30 52 0 50 -14 72
-33 53z"/>
<path d="M4675 2916 c-14 -46 -42 -96 -65 -116 -14 -12 -40 -55 -40 -67 0 -18
47 -16 78 3 35 21 112 116 112 139 0 13 -6 16 -25 13 -23 -5 -25 -2 -25 33 0
58 -17 56 -35 -5z"/>
<path d="M5266 2953 c-3 -3 -6 -22 -6 -40 0 -30 -3 -34 -22 -31 -33 4 -27 -23
18 -82 41 -54 118 -100 136 -82 12 12 1 35 -48 99 -19 25 -39 65 -45 89 -12
45 -21 59 -33 47z"/>
<path d="M7165 2850 c-36 -40 7 -96 55 -70 24 13 26 52 4 74 -21 21 -37 20
-59 -4z"/>
<path d="M7305 2840 c-14 -43 19 -79 59 -64 22 8 31 50 16 69 -19 23 -67 19
-75 -5z"/>
<path d="M7457 2853 c-12 -11 -8 -48 6 -68 10 -13 21 -16 40 -11 52 13 42 86
-12 86 -15 0 -31 -3 -34 -7z"/>
<path d="M7604 2833 c-4 -14 -2 -33 3 -42 25 -39 91 -11 77 33 -14 45 -70 51
-80 9z"/>
<path d="M7012 2838 c-30 -30 -3 -83 39 -76 32 5 45 31 31 62 -13 28 -49 35
-70 14z"/>
<path d="M7747 2833 c-11 -11 -8 -58 5 -71 36 -36 93 11 69 57 -11 20 -59 30
-74 14z"/>
<path d="M7882 2798 c-18 -18 -15 -43 8 -63 17 -15 24 -16 45 -7 43 20 28 82
-20 82 -12 0 -26 -5 -33 -12z"/>
<path d="M3980 2714 c0 -50 -9 -58 -96 -87 -90 -29 -95 -47 -14 -47 71 0 145
16 161 36 16 20 3 79 -26 111 l-24 28 -1 -41z"/>
<path d="M5967 2722 c-19 -21 -37 -66 -37 -92 0 -12 13 -26 32 -36 39 -20 198
-33 198 -16 0 14 -55 38 -106 48 -49 9 -67 30 -61 71 7 39 -4 49 -26 25z"/>
<path d="M7122 2704 c-12 -8 -22 -25 -22 -38 0 -45 119 -176 160 -176 36 0 19
31 -55 101 -81 77 -75 85 65 81 206 -5 484 -24 502 -33 12 -7 18 -22 18 -47
l1 -37 24 28 c27 30 32 68 13 85 -31 25 -310 52 -543 52 -111 0 -145 -3 -163
-16z"/>
<path d="M2555 2657 c-42 -42 -62 -109 -45 -152 19 -49 17 -60 -13 -63 -35 -4
-55 11 -59 46 -2 19 -9 27 -23 27 -16 0 -21 -8 -23 -37 -3 -31 2 -40 32 -63
36 -27 81 -35 127 -21 56 16 76 -55 27 -96 -29 -25 -79 -22 -122 7 -43 29 -56
31 -56 9 0 -24 57 -73 93 -79 18 -3 61 -4 97 -3 55 3 65 0 68 -15 2 -9 -10
-30 -26 -47 -25 -24 -39 -30 -76 -30 -53 0 -64 -12 -36 -40 28 -28 75 -26 112
5 35 30 39 30 68 7 21 -17 22 -18 4 -55 -13 -28 -15 -40 -7 -48 9 -9 20 -4 42
19 48 47 40 122 -15 142 -22 9 -24 15 -24 75 0 65 -5 76 -28 53 -16 -16 -32 5
-32 42 0 29 32 140 41 140 4 0 14 -21 23 -47 44 -123 90 -213 108 -213 6 0 8
12 4 31 -5 24 -1 35 17 49 l22 18 -28 11 c-16 6 -32 11 -37 11 -15 0 -39 67
-51 141 -12 80 -31 112 -63 107 -16 -2 -24 -16 -35 -55 -23 -86 -81 -83 -81 3
0 36 6 51 35 83 19 21 35 46 35 55 0 27 -40 18 -75 -17z"/>
<path d="M4959 2613 c-11 -29 -4 -882 8 -950 3 -18 11 -33 19 -33 31 0 37 71
41 526 4 410 3 452 -12 467 -24 25 -44 21 -56 -10z"/>
<path d="M4474 2402 c-230 -236 -274 -293 -274 -355 0 -48 12 -71 63 -124 26
-27 38 -47 33 -58 -10 -27 -73 -46 -141 -43 -85 3 -95 -6 -95 -91 1 -102 46
-180 117 -197 35 -9 28 -20 -33 -50 -50 -24 -59 -26 -94 -15 -22 6 -58 31 -84
56 -48 49 -69 98 -85 204 -13 83 -21 91 -68 63 -86 -52 -123 -66 -135 -54 -19
19 17 92 82 165 33 38 60 76 60 86 0 9 -14 30 -31 47 -35 34 -74 93 -66 101 3
3 22 0 42 -7 20 -7 67 -10 105 -8 77 4 173 47 280 125 74 53 160 135 160 151
0 31 -46 11 -189 -83 -251 -164 -324 -180 -387 -85 -30 45 -42 42 -71 -13 -25
-49 -13 -115 30 -172 21 -26 37 -54 37 -61 0 -8 -19 -34 -43 -57 -53 -54 -69
-105 -68 -215 0 -105 8 -146 31 -167 17 -15 21 -13 62 52 70 107 91 116 101
42 12 -93 115 -244 185 -270 13 -5 44 -9 70 -9 49 0 81 16 162 78 52 39 84 40
151 7 57 -29 74 -25 65 17 -13 66 -88 124 -205 159 -81 24 -166 131 -91 114
67 -15 202 51 235 114 19 37 14 49 -36 84 -81 56 -100 132 -51 205 15 23 71
86 123 139 128 131 244 264 263 301 40 77 19 59 -210 -176z"/>
<path d="M4778 2585 c-14 -22 -46 -71 -70 -110 -24 -38 -111 -144 -192 -235
-82 -91 -152 -176 -157 -189 -14 -34 -2 -61 26 -61 29 0 77 55 214 245 161
220 219 324 209 371 -3 15 -9 11 -30 -21z"/>
<path d="M5160 2594 c0 -47 58 -152 178 -320 189 -265 235 -315 264 -286 6 6
8 26 4 45 -5 25 -45 77 -157 203 -97 109 -169 201 -204 259 -30 50 -61 99 -69
110 -15 19 -15 19 -16 -11z"/>
<path d="M5270 2609 c0 -32 58 -103 263 -319 61 -63 123 -135 138 -159 49 -76
34 -133 -55 -206 -25 -20 -46 -46 -46 -56 0 -57 128 -139 217 -139 59 0 66
-11 36 -56 -19 -29 -62 -53 -153 -83 -36 -12 -80 -34 -98 -49 -34 -29 -67
-101 -52 -116 6 -5 34 2 70 18 53 24 65 26 94 16 18 -6 42 -20 51 -30 37 -41
111 -80 151 -80 71 0 109 17 163 75 56 60 84 113 102 193 6 32 16 52 25 52 13
0 49 -44 97 -120 13 -19 27 -35 32 -35 21 0 38 64 43 155 6 121 -7 167 -63
230 -25 28 -45 58 -45 68 0 9 18 40 40 67 33 42 40 58 40 95 0 45 -27 111 -47
117 -6 2 -21 -11 -34 -29 -35 -49 -49 -57 -102 -58 -60 0 -109 24 -285 141
-130 86 -175 109 -190 94 -12 -12 142 -150 223 -200 128 -80 216 -102 322 -81
39 8 41 7 37 -12 -3 -11 -26 -39 -50 -63 -24 -24 -44 -51 -44 -61 0 -9 29 -52
65 -95 69 -82 98 -144 77 -165 -12 -12 -50 3 -134 54 -33 20 -39 21 -52 8 -8
-8 -19 -50 -25 -93 -12 -87 -29 -127 -75 -175 -63 -68 -123 -79 -200 -36 -25
14 -46 27 -46 29 0 2 19 13 43 23 73 33 106 91 107 190 0 84 -8 92 -96 92 -73
0 -134 16 -148 39 -4 6 15 37 43 68 31 34 53 70 57 90 9 48 -19 114 -77 181
-96 113 -418 437 -419 421z"/>
<path d="M7380 2575 c-12 -25 -26 -45 -31 -45 -18 0 -49 -65 -49 -102 0 -30
-4 -38 -17 -38 -30 0 -81 37 -85 62 -4 30 -34 36 -43 9 -5 -17 -15 -21 -46
-21 -36 0 -40 -2 -37 -22 3 -20 11 -24 63 -30 65 -9 101 -31 75 -48 -8 -5 -22
-7 -30 -4 -36 14 -78 16 -85 4 -12 -19 68 -90 99 -90 17 0 35 13 57 40 18 22
47 44 66 51 56 18 114 119 69 119 -38 0 -25 43 15 53 44 12 76 -62 49 -113
-15 -28 -138 -143 -173 -162 -56 -30 -122 -23 -216 22 -46 22 -86 38 -90 34
-9 -9 58 -62 118 -91 87 -43 178 -35 238 20 17 15 43 22 110 28 104 8 126 16
197 68 62 46 86 69 86 82 0 21 -36 6 -106 -45 -77 -57 -159 -85 -192 -67 -13
7 -11 13 14 36 35 33 64 45 107 45 26 0 42 11 88 60 31 33 60 60 66 60 5 0 18
-9 28 -20 46 -51 59 -5 21 75 -37 81 -80 100 -70 32 4 -29 -2 -39 -65 -104
-87 -89 -122 -97 -101 -24 11 41 -1 75 -43 119 -55 57 -62 58 -87 7z"/>
<path d="M6991 2507 c-79 -39 -93 -63 -33 -55 50 7 102 42 102 69 0 10 -1 19
-2 18 -2 0 -32 -15 -67 -32z"/>
<path d="M6797 2452 c-47 -52 23 -132 72 -83 25 25 27 49 5 79 -18 27 -55 29
-77 4z"/>
<path d="M2906 2418 c-23 -33 -20 -65 9 -84 52 -34 105 25 67 75 -25 34 -56
38 -76 9z"/>
<path d="M4793 2313 c-56 -126 -212 -618 -219 -691 -10 -108 13 -171 88 -243
l61 -58 -29 -11 c-47 -18 -119 -23 -156 -11 -19 6 -58 27 -88 46 -99 64 -118
31 -28 -50 119 -107 271 -94 391 34 26 27 47 59 47 71 0 18 -6 20 -52 20 -63
0 -106 29 -137 93 -25 52 -28 147 -6 222 8 28 28 97 45 155 17 58 47 157 65
220 68 229 77 336 18 203z"/>
<path d="M5136 2323 c3 -27 18 -86 32 -133 13 -47 39 -139 57 -205 18 -66 45
-160 60 -210 37 -120 37 -194 0 -271 -23 -47 -35 -60 -72 -76 -31 -14 -56 -18
-79 -13 -43 8 -46 -13 -8 -62 86 -113 205 -159 315 -121 51 17 118 66 140 101
30 51 7 54 -66 8 -56 -36 -124 -59 -160 -56 -48 5 -97 19 -101 30 -3 7 15 33
41 56 75 69 90 107 88 219 -1 90 -6 109 -88 364 -89 280 -141 416 -157 416 -5
0 -6 -20 -2 -47z"/>
<path d="M4149 2197 c-30 -24 -76 -60 -102 -81 -60 -48 -169 -174 -164 -189 2
-7 17 -11 32 -10 46 4 53 -9 43 -74 -11 -64 -4 -151 12 -167 19 -19 30 9 40
95 16 142 53 235 146 373 75 110 74 118 -7 53z"/>
<path d="M5769 2201 c7 -11 32 -50 57 -85 24 -35 55 -89 69 -118 29 -64 65
-197 65 -242 0 -41 19 -106 30 -106 5 0 14 19 21 43 10 39 9 79 -7 170 l-7 37
47 0 c25 0 46 4 46 9 0 26 -112 149 -201 221 -113 91 -138 106 -120 71z"/>
<path d="M4523 1953 c-67 -115 -89 -246 -58 -351 25 -84 75 -111 60 -33 -20
108 -17 191 11 284 34 115 39 147 26 147 -6 0 -23 -21 -39 -47z"/>
<path d="M5390 1986 c0 -7 14 -58 31 -112 35 -113 42 -212 20 -287 -16 -54 -5
-81 24 -57 44 37 58 197 25 301 -32 102 -100 208 -100 155z"/>
<path d="M4292 1728 c-19 -19 -15 -66 8 -78 25 -13 33 2 28 51 -3 36 -17 46
-36 27z"/>
<path d="M5634 1694 c-7 -39 5 -60 30 -51 16 6 21 42 10 71 -11 28 -33 17 -40
-20z"/>
<path d="M4751 1657 c-15 -34 -21 -69 -21 -117 0 -59 3 -71 22 -84 12 -8 25
-13 30 -10 10 7 9 212 -2 239 -7 17 -11 13 -29 -28z"/>
<path d="M5175 1658 c-10 -53 -1 -211 11 -215 26 -9 44 28 44 91 0 62 -24 156
-40 156 -5 0 -12 -15 -15 -32z"/>
<path d="M4847 1312 c-29 -31 -20 -52 53 -124 84 -84 87 -84 185 13 l70 69
-28 27 -28 28 -45 -52 c-60 -70 -79 -69 -134 2 -23 30 -46 55 -50 55 -4 0 -14
-8 -23 -18z"/>
</g>
</svg>
