<?xml version="1.0" encoding="UTF-8" standalone="no" ?>
<!DOCTYPE svg PUBLIC "-//W3C//DTD SVG 1.1//EN" "http://www.w3.org/Graphics/SVG/1.1/DTD/svg11.dtd">
<svg xmlns="http://www.w3.org/2000/svg" xmlns:xlink="http://www.w3.org/1999/xlink" version="1.1" width="500" height="500" viewBox="0 0 500 500" xml:space="preserve">
<desc>Created with Fabric.js 3.6.3</desc>
<defs>
</defs>
<g transform="matrix(1 0 0 1 247.50000640922877 234.81746161289794)" style=""  ><path fill="url(#CUSTOM_SVGID_3660)" opacity="1" d="M-133.66 27.72Q-141.57 27.72-147.73 24.02Q-153.89 20.33-157.25 13.99Q-160.61 7.66-160.61 0.18L-160.61 0.18Q-160.61-8.57-156.19-14.82Q-151.77-21.07-144.84-24.21Q-137.91-27.36-130.69-27.36L-130.69-27.36Q-122.61-27.36-116.49-23.58Q-110.37-19.79-107.10-13.59Q-103.83-7.38-103.83-0.41L-103.83-0.41Q-103.83 7.32-107.91 13.78Q-111.99 20.24-118.83 23.98Q-125.67 27.72-133.66 27.72L-133.66 27.72ZM-130.69 25.94Q-124.91 25.94-120.27 23.13Q-115.64 20.33-112.96 14.89Q-110.29 9.45-110.29 1.97L-110.29 1.97Q-110.29-6.02-113.26-12.23Q-116.24-18.43-121.63-21.92Q-127.03-25.40-134.26-25.40L-134.26-25.40Q-143.61-25.40-148.88-19.37Q-154.15-13.33-154.15-2.79L-154.15-2.79Q-154.15 5.20-151.17 11.78Q-148.20 18.37-142.84 22.15Q-137.49 25.94-130.69 25.94L-130.69 25.94Z"/>
    <linearGradient id="CUSTOM_SVGID_3660" gradientUnits="userSpaceOnUse" gradientTransform="matrix(1 0 0 1 -216.50000640922877 -48.02499999999999)"  x1="0" y1="0" x2="433.00001281845755" y2="96.04999999999998">
      <stop  offset="0" style="stop-color:#8F5E25;stop-opacity:undefined"/><stop  offset="0.514" style="stop-color:#FBF4A1;stop-opacity:undefined"/><stop  offset="1" style="stop-color:#8F5E25;stop-opacity:undefined"/>
    </linearGradient>
  <path fill="url(#CUSTOM_SVGID_3661)" opacity="1" d="M-31.07 25.68Q-30.90 25.68-30.90 26.19Q-30.90 26.70-31.07 26.70L-31.07 26.70L-42.03 26.70Q-44.16 26.70-50.02 19.65Q-55.89 12.59-63.96 0.27L-63.96 0.27Q-66.26 0.78-68.72 0.78L-68.72 0.78Q-69.23 0.78-72.55 0.52L-72.55 0.52L-72.55 19.82Q-72.55 22.45-72.04 23.64Q-71.53 24.83-70.04 25.26Q-68.55 25.68-65.32 25.68L-65.32 25.68Q-65.07 25.68-65.07 26.19Q-65.07 26.70-65.32 26.70L-65.32 26.70Q-67.96 26.70-69.49 26.62L-69.49 26.62L-75.35 26.53L-81.13 26.62Q-82.66 26.70-85.47 26.70L-85.47 26.70Q-85.64 26.70-85.64 26.19Q-85.64 25.68-85.47 25.68L-85.47 25.68Q-82.24 25.68-80.71 25.26Q-79.18 24.83-78.62 23.60Q-78.07 22.37-78.07 19.82L-78.07 19.82L-78.07-19.54Q-78.07-22.09-78.58-23.28Q-79.09-24.47-80.58-24.94Q-82.07-25.40-85.30-25.40L-85.30-25.40Q-85.55-25.40-85.55-25.91Q-85.55-26.42-85.30-26.42L-85.30-26.42L-81.13-26.34Q-77.56-26.17-75.35-26.17L-75.35-26.17Q-73.48-26.17-71.87-26.25Q-70.25-26.34-69.15-26.42L-69.15-26.42Q-66.00-26.68-63.45-26.68L-63.45-26.68Q-56.74-26.68-53.08-23.62Q-49.43-20.56-49.43-15.46L-49.43-15.46Q-49.43-10.87-52.10-7.17Q-54.78-3.47-59.20-1.35L-59.20-1.35Q-52.06 8.94-47.17 14.76Q-42.29 20.58-38.50 23.13Q-34.72 25.68-31.07 25.68L-31.07 25.68ZM-72.55-1.52Q-70.42-1.18-67.53-1.18L-67.53-1.18Q-60.90-1.18-58.05-4.07Q-55.21-6.96-55.21-12.99L-55.21-12.99Q-55.21-19.62-58.14-22.51Q-61.07-25.40-66.68-25.40L-66.68-25.40Q-70.00-25.40-71.27-24.21Q-72.55-23.02-72.55-19.37L-72.55-19.37L-72.55-1.52Z"/>
    <linearGradient id="CUSTOM_SVGID_3661" gradientUnits="userSpaceOnUse" gradientTransform="matrix(1 0 0 1 -216.50000640922877 -48.02499999999999)"  x1="0" y1="0" x2="433.00001281845755" y2="96.04999999999998">
      <stop  offset="0" style="stop-color:#8F5E25;stop-opacity:undefined"/><stop  offset="0.514" style="stop-color:#FBF4A1;stop-opacity:undefined"/><stop  offset="1" style="stop-color:#8F5E25;stop-opacity:undefined"/>
    </linearGradient>
  <path fill="url(#CUSTOM_SVGID_3662)" opacity="1" d="M-5.65-19.45L-5.65 19.48Q-5.65 21.94-5.14 23.05Q-4.63 24.15-3.27 24.53Q-1.91 24.92 1.15 24.92L1.15 24.92L10.41 24.92Q15.26 24.92 18.15 21.94Q21.04 18.97 21.97 13.70L21.97 13.70Q21.97 13.44 22.44 13.48Q22.91 13.53 22.91 13.78L22.91 13.78Q22.14 20.84 22.14 25.43L22.14 25.43Q22.14 26.11 21.89 26.40Q21.63 26.70 20.87 26.70L20.87 26.70L-18.40 26.70Q-18.57 26.70-18.57 26.19Q-18.57 25.68-18.40 25.68L-18.40 25.68Q-15.17 25.68-13.68 25.26Q-12.20 24.83-11.69 23.60Q-11.18 22.37-11.18 19.82L-11.18 19.82L-11.18-19.54Q-11.18-22.09-11.69-23.28Q-12.20-24.47-13.68-24.94Q-15.17-25.40-18.40-25.40L-18.40-25.40Q-18.57-25.40-18.57-25.91Q-18.57-26.42-18.40-26.42L-18.40-26.42L-14.24-26.34Q-10.67-26.17-8.46-26.17L-8.46-26.17Q-6.08-26.17-2.51-26.34L-2.51-26.34L1.57-26.42Q1.83-26.42 1.83-25.91Q1.83-25.40 1.57-25.40L1.57-25.40Q-1.57-25.40-3.06-24.94Q-4.55-24.47-5.10-23.24Q-5.65-22.00-5.65-19.45L-5.65-19.45Z"/>
    <linearGradient id="CUSTOM_SVGID_3662" gradientUnits="userSpaceOnUse" gradientTransform="matrix(1 0 0 1 -216.50000640922877 -48.02499999999999)"  x1="0" y1="0" x2="433.00001281845755" y2="96.04999999999998">
      <stop  offset="0" style="stop-color:#8F5E25;stop-opacity:undefined"/><stop  offset="0.514" style="stop-color:#FBF4A1;stop-opacity:undefined"/><stop  offset="1" style="stop-color:#8F5E25;stop-opacity:undefined"/>
    </linearGradient>
  <path fill="url(#CUSTOM_SVGID_3663)" opacity="1" d="M65.58 27.72Q57.67 27.72 51.51 24.02Q45.35 20.33 41.99 13.99Q38.63 7.66 38.63 0.18L38.63 0.18Q38.63-8.57 43.05-14.82Q47.47-21.07 54.40-24.21Q61.33-27.36 68.55-27.36L68.55-27.36Q76.63-27.36 82.75-23.58Q88.87-19.79 92.14-13.59Q95.41-7.38 95.41-0.41L95.41-0.41Q95.41 7.32 91.33 13.78Q87.25 20.24 80.41 23.98Q73.57 27.72 65.58 27.72L65.58 27.72ZM68.55 25.94Q74.33 25.94 78.96 23.13Q83.60 20.33 86.27 14.89Q88.95 9.45 88.95 1.97L88.95 1.97Q88.95-6.02 85.98-12.23Q83.00-18.43 77.60-21.92Q72.21-25.40 64.98-25.40L64.98-25.40Q55.63-25.40 50.36-19.37Q45.09-13.33 45.09-2.79L45.09-2.79Q45.09 5.20 48.07 11.78Q51.04 18.37 56.40 22.15Q61.75 25.94 68.55 25.94L68.55 25.94Z"/>
    <linearGradient id="CUSTOM_SVGID_3663" gradientUnits="userSpaceOnUse" gradientTransform="matrix(1 0 0 1 -216.50000640922877 -48.02499999999999)"  x1="0" y1="0" x2="433.00001281845755" y2="96.04999999999998">
      <stop  offset="0" style="stop-color:#8F5E25;stop-opacity:undefined"/><stop  offset="0.514" style="stop-color:#FBF4A1;stop-opacity:undefined"/><stop  offset="1" style="stop-color:#8F5E25;stop-opacity:undefined"/>
    </linearGradient>
  <path fill="url(#CUSTOM_SVGID_3664)" opacity="1" d="M165.03-26.42Q165.28-26.42 165.28-25.91Q165.28-25.40 165.03-25.40L165.03-25.40Q162.14-25.40 160.01-23.87Q157.89-22.34 156.44-18.69L156.44-18.69L138.34 26.62Q138.25 26.96 137.40 26.96L137.40 26.96Q136.72 26.96 136.47 26.62L136.47 26.62L115.30-19.37Q113.86-22.68 112.24-24.04Q110.63-25.40 108.08-25.40L108.08-25.40Q107.82-25.40 107.82-25.91Q107.82-26.42 108.08-26.42L108.08-26.42L111.31-26.34Q113.69-26.17 115.13-26.17L115.13-26.17Q118.53-26.17 122.44-26.34L122.44-26.34L125.93-26.42Q126.18-26.42 126.18-25.91Q126.18-25.40 125.93-25.40L125.93-25.40Q120.66-25.40 120.66-22.43L120.66-22.43Q120.66-21.41 121.42-19.71L121.42-19.71L139.19 19.22L154.49-19.11Q155.17-20.90 155.17-21.92L155.17-21.92Q155.17-23.70 153.55-24.55Q151.94-25.40 148.54-25.40L148.54-25.40Q148.28-25.40 148.28-25.91Q148.28-26.42 148.54-26.42L148.54-26.42L152.19-26.34Q155.08-26.17 157.46-26.17L157.46-26.17Q159.25-26.17 161.46-26.34L161.46-26.34L165.03-26.42Z"/>
    <linearGradient id="CUSTOM_SVGID_3664" gradientUnits="userSpaceOnUse" gradientTransform="matrix(1 0 0 1 -216.50000640922877 -48.02499999999999)"  x1="0" y1="0" x2="433.00001281845755" y2="96.04999999999998">
      <stop  offset="0" style="stop-color:#8F5E25;stop-opacity:undefined"/><stop  offset="0.514" style="stop-color:#FBF4A1;stop-opacity:undefined"/><stop  offset="1" style="stop-color:#8F5E25;stop-opacity:undefined"/>
    </linearGradient>
  </g><g transform="matrix(1 0 0 1 249.00000002985516 290.7778425578692)" style=""  ><path fill="url(#CUSTOM_SVGID_undefined)" opacity="1" d="M-95.93 7.55L-97.23 4.64Q-99.00 0.70-99.98-1.57Q-100.96-3.84-101.89-6.36L-101.89-6.36L-101.91-5.33Q-102.12 1.49-102.17 4.41L-102.17 4.41Q-102.17 4.76-102.19 4.92L-102.19 4.92Q-102.19 5.71-102.26 6.39L-102.26 6.39L-100.52 6.29L-100.52 7.32L-104.97 7.32L-104.97 6.55Q-103.99 6.53-103.70 6.00Q-103.41 5.48-103.36 4.41L-103.36 4.41L-102.85-8.06L-104.52-7.99L-104.52-8.99L-100.96-8.99L-97.79-1.67Q-96.07 2.38-95.13 4.48L-95.13 4.48L-95.09 4.48Q-94.81 3.78-93.90 1.47L-93.90 1.47Q-93.01-0.77-91.87-3.45L-91.87-3.45Q-90.54-6.57-89.59-8.99L-89.59-8.99L-86.14-8.99L-86.14-8.22Q-86.98-8.24-87.37-7.77Q-87.77-7.29-87.77-6.15L-87.77-6.15L-87.75-5.68L-87.14 4.92Q-87.10 5.46-87.10 6.36L-87.10 6.36L-85.39 6.29L-85.39 7.32L-90.61 7.32L-90.61 6.55Q-89.70 6.53-89.38 6.03Q-89.05 5.53-89.05 4.45L-89.05 4.45Q-89.05 4.01-89.08 3.78L-89.08 3.78L-89.68-6.15Q-89.73-6.03-89.81-5.85Q-89.89-5.66-89.98-5.40L-89.98-5.40L-95.23 7.55L-95.93 7.55Z"/>
    <linearGradient id="CUSTOM_SVGID_undefined" gradientUnits="userSpaceOnUse" gradientTransform="matrix(1 0 0 1 -180.3410300951733 -13.164499999999999)"  x1="0" y1="0" x2="360.6820601903466" y2="26.328999999999997">
      <stop  offset="0" style="stop-color:#8f5e25;stop-opacity:undefined"/><stop  offset="0.5" style="stop-color:#fbf4a1;stop-opacity:undefined"/><stop  offset="1" style="stop-color:#8f5e25;stop-opacity:undefined"/>
    </linearGradient>
  <path fill="url(#CUSTOM_SVGID_undefined)" opacity="1" d="M-82.76 7.32L-82.76 6.55Q-82.18 6.55-81.83 6.28Q-81.48 6.01-81.26 5.58Q-81.04 5.15-80.73 4.29L-80.73 4.29L-80.50 3.64L-75.70-9.43L-75.14-9.43L-69.95 3.82Q-69.69 4.45-69.50 5.19Q-69.32 5.92-69.34 6.39L-69.34 6.39L-67.76 6.29L-67.76 7.32L-73.09 7.32L-73.09 6.55Q-71.72 6.53-71.72 5.43L-71.72 5.43Q-71.72 4.99-71.95 4.34L-71.95 4.34L-72.77 2.15L-78.82 2.29Q-79.17 3.24-79.64 4.78L-79.64 4.78Q-79.87 5.55-80.22 6.39L-80.22 6.39L-78.40 6.29L-78.40 7.32L-82.76 7.32ZM-78.47 1.28L-73.09 1.28L-74.75-3.17L-75.79-6.03L-75.84-6.03L-76.82-3.40L-78.08 0.14L-78.47 1.28Z"/>
    <linearGradient id="CUSTOM_SVGID_undefined" gradientUnits="userSpaceOnUse" gradientTransform="matrix(1 0 0 1 -180.3410300951733 -13.164499999999999)"  x1="0" y1="0" x2="360.6820601903466" y2="26.328999999999997">
      <stop  offset="0" style="stop-color:#8f5e25;stop-opacity:undefined"/><stop  offset="0.5" style="stop-color:#fbf4a1;stop-opacity:undefined"/><stop  offset="1" style="stop-color:#8f5e25;stop-opacity:undefined"/>
    </linearGradient>
  <path fill="url(#CUSTOM_SVGID_undefined)" opacity="1" d="M-64.77 7.32L-64.77 6.55Q-63.96 6.53-63.61 6.18Q-63.26 5.83-63.21 5.35Q-63.17 4.87-63.17 3.68L-63.17 3.68L-63.17-6.38Q-63.17-7.36-63.10-8.06L-63.10-8.06L-64.77-7.97L-64.77-8.99L-59.28-9.01Q-54.89-9.04-52.33-6.96Q-49.77-4.89-49.77-0.81L-49.77-0.81Q-49.77 1.38-50.79 3.24Q-51.82 5.11-53.82 6.21Q-55.83 7.32-58.65 7.32L-58.65 7.32L-64.77 7.32ZM-58.72 6.43Q-56.76 6.43-55.24 5.48Q-53.73 4.52-52.89 2.85Q-52.05 1.17-52.05-0.91L-52.05-0.91Q-52.05-4.31-53.92-6.23Q-55.78-8.15-59.53-8.15L-59.53-8.15Q-60.35-8.15-60.70-7.83Q-61.05-7.50-61.09-7.02Q-61.14-6.54-61.14-5.36L-61.14-5.36L-61.14 4.57Q-61.14 5.78-61.21 6.39L-61.21 6.39Q-60.39 6.43-58.72 6.43L-58.72 6.43Z"/>
    <linearGradient id="CUSTOM_SVGID_undefined" gradientUnits="userSpaceOnUse" gradientTransform="matrix(1 0 0 1 -180.3410300951733 -13.164499999999999)"  x1="0" y1="0" x2="360.6820601903466" y2="26.328999999999997">
      <stop  offset="0" style="stop-color:#8f5e25;stop-opacity:undefined"/><stop  offset="0.5" style="stop-color:#fbf4a1;stop-opacity:undefined"/><stop  offset="1" style="stop-color:#8f5e25;stop-opacity:undefined"/>
    </linearGradient>
  <path fill="url(#CUSTOM_SVGID_undefined)" opacity="1" d="M-45.67 7.32L-45.67 6.55Q-44.85 6.53-44.50 6.18Q-44.15 5.83-44.11 5.35Q-44.06 4.87-44.06 3.68L-44.06 3.68L-44.06-6.38Q-44.06-7.36-43.99-8.06L-43.99-8.06L-45.67-7.97L-45.67-8.99L-34.46-8.99L-34.34-4.91L-35.11-4.91Q-35.11-6.82-35.94-7.52Q-36.77-8.22-38.26-8.18L-38.26-8.18L-40.26-8.13Q-41.10-8.11-41.47-7.81Q-41.85-7.52-41.94-7.00Q-42.03-6.47-42.03-5.36L-42.03-5.36L-42.03-1.63L-37.65-1.60L-37.82-3.61L-36.79-3.61L-36.79 1.28L-37.56 1.28Q-37.56 0.42-37.77-0.03Q-37.98-0.49-38.41-0.64Q-38.84-0.79-39.61-0.79L-39.61-0.79L-40.33-0.77L-42.03-0.70L-42.03 4.64Q-42.03 5.85-42.10 6.46L-42.10 6.46L-37.65 6.39Q-36.02 6.36-35.16 5.56Q-34.30 4.76-34.30 2.78L-34.30 2.78L-33.51 2.78L-33.65 7.32L-45.67 7.32Z"/>
    <linearGradient id="CUSTOM_SVGID_undefined" gradientUnits="userSpaceOnUse" gradientTransform="matrix(1 0 0 1 -180.3410300951733 -13.164499999999999)"  x1="0" y1="0" x2="360.6820601903466" y2="26.328999999999997">
      <stop  offset="0" style="stop-color:#8f5e25;stop-opacity:undefined"/><stop  offset="0.5" style="stop-color:#fbf4a1;stop-opacity:undefined"/><stop  offset="1" style="stop-color:#8f5e25;stop-opacity:undefined"/>
    </linearGradient>
  <path fill="url(#CUSTOM_SVGID_undefined)" opacity="1" d=""/>
    <linearGradient id="CUSTOM_SVGID_undefined" gradientUnits="userSpaceOnUse" gradientTransform="matrix(1 0 0 1 -180.3410300951733 -13.164499999999999)"  x1="0" y1="0" x2="360.6820601903466" y2="26.328999999999997">
      <stop  offset="0" style="stop-color:#8f5e25;stop-opacity:undefined"/><stop  offset="0.5" style="stop-color:#fbf4a1;stop-opacity:undefined"/><stop  offset="1" style="stop-color:#8f5e25;stop-opacity:undefined"/>
    </linearGradient>
  <path fill="url(#CUSTOM_SVGID_undefined)" opacity="1" d="M-21.09 7.32L-21.09 6.55Q-20.27 6.53-19.92 6.18Q-19.57 5.83-19.53 5.35Q-19.48 4.87-19.48 3.68L-19.48 3.68L-19.48-6.38Q-19.48-7.36-19.41-8.06L-19.41-8.06L-21.09-7.97L-21.09-8.99L-15.84-8.99L-15.84-8.22Q-16.66-8.20-17.01-7.85Q-17.36-7.50-17.41-7.02Q-17.45-6.54-17.45-5.36L-17.45-5.36L-17.45 4.55Q-17.45 5.78-17.52 6.39L-17.52 6.39L-15.84 6.29L-15.84 7.32L-21.09 7.32Z"/>
    <linearGradient id="CUSTOM_SVGID_undefined" gradientUnits="userSpaceOnUse" gradientTransform="matrix(1 0 0 1 -180.3410300951733 -13.164499999999999)"  x1="0" y1="0" x2="360.6820601903466" y2="26.328999999999997">
      <stop  offset="0" style="stop-color:#8f5e25;stop-opacity:undefined"/><stop  offset="0.5" style="stop-color:#fbf4a1;stop-opacity:undefined"/><stop  offset="1" style="stop-color:#8f5e25;stop-opacity:undefined"/>
    </linearGradient>
  <path fill="url(#CUSTOM_SVGID_undefined)" opacity="1" d="M1.44 7.69L-8.67-5.89L-8.69-5.89L-8.62 4.08Q-8.62 5.64-8.67 6.39L-8.67 6.39L-6.99 6.29L-6.99 7.32L-11.25 7.32L-11.25 6.55Q-10.32 6.55-10.02 6.01Q-9.72 5.48-9.72 4.71L-9.72 4.71L-9.69-8.06L-11.25-7.97L-11.25-8.99L-8.48-8.99L1.44 4.29L1.47 4.29L1.49-6.38Q1.49-7.36 1.56-8.06L1.56-8.06L-0.12-7.97L-0.12-8.99L4.17-8.99L4.17-8.22Q3.47-8.20 3.13-7.95Q2.80-7.71 2.70-7.29Q2.61-6.87 2.61-6.17L2.61-6.17L2.61-5.36L2.56 7.69L1.44 7.69Z"/>
    <linearGradient id="CUSTOM_SVGID_undefined" gradientUnits="userSpaceOnUse" gradientTransform="matrix(1 0 0 1 -180.3410300951733 -13.164499999999999)"  x1="0" y1="0" x2="360.6820601903466" y2="26.328999999999997">
      <stop  offset="0" style="stop-color:#8f5e25;stop-opacity:undefined"/><stop  offset="0.5" style="stop-color:#fbf4a1;stop-opacity:undefined"/><stop  offset="1" style="stop-color:#8f5e25;stop-opacity:undefined"/>
    </linearGradient>
  <path fill="url(#CUSTOM_SVGID_undefined)" opacity="1" d=""/>
    <linearGradient id="CUSTOM_SVGID_undefined" gradientUnits="userSpaceOnUse" gradientTransform="matrix(1 0 0 1 -180.3410300951733 -13.164499999999999)"  x1="0" y1="0" x2="360.6820601903466" y2="26.328999999999997">
      <stop  offset="0" style="stop-color:#8f5e25;stop-opacity:undefined"/><stop  offset="0.5" style="stop-color:#fbf4a1;stop-opacity:undefined"/><stop  offset="1" style="stop-color:#8f5e25;stop-opacity:undefined"/>
    </linearGradient>
  <path fill="url(#CUSTOM_SVGID_undefined)" opacity="1" d="M16.54 7.32L16.54 6.55Q17.36 6.53 17.71 6.18Q18.06 5.83 18.10 5.35Q18.15 4.87 18.15 3.68L18.15 3.68L18.15-6.38Q18.15-7.36 18.22-8.06L18.22-8.06L16.54-7.97L16.54-8.99Q18.97-9.04 20.20-9.04L20.20-9.04Q21.32-9.04 21.88-9.01L21.88-9.01Q25.16-8.97 26.69-7.91Q28.22-6.85 28.22-4.84L28.22-4.84Q28.24-3.24 27.26-1.95Q26.28-0.67 23.86-0.18L23.86-0.18Q24.26 0.12 24.58 0.54Q24.91 0.96 25.47 1.84L25.47 1.84L27.05 4.34Q27.56 5.15 27.90 5.58Q28.24 6.01 28.72 6.28Q29.19 6.55 29.89 6.55L29.89 6.55L29.89 7.32L26.96 7.32Q26.33 6.78 25.90 6.21Q25.47 5.64 24.88 4.73L24.88 4.73L23.32 2.24L23.02 1.75Q22.65 1.12 22.37 0.73Q22.09 0.33 21.76 0.03L21.76 0.03Q21.55 0.05 21.11 0.05L21.11 0.05Q20.48 0.05 20.18 0.03L20.18 0.03L20.18 4.55Q20.18 5.78 20.11 6.39L20.11 6.39L21.79 6.29L21.79 7.32L16.54 7.32ZM21.20-0.84Q25.96-0.84 25.96-4.59L25.96-4.59Q25.96-6.36 24.93-7.24Q23.91-8.13 21.79-8.13L21.79-8.13Q20.97-8.13 20.62-7.80Q20.27-7.48 20.22-7.01Q20.18-6.54 20.18-5.36L20.18-5.36L20.18-0.88Q20.88-0.84 21.20-0.84L21.20-0.84Z"/>
    <linearGradient id="CUSTOM_SVGID_undefined" gradientUnits="userSpaceOnUse" gradientTransform="matrix(1 0 0 1 -180.3410300951733 -13.164499999999999)"  x1="0" y1="0" x2="360.6820601903466" y2="26.328999999999997">
      <stop  offset="0" style="stop-color:#8f5e25;stop-opacity:undefined"/><stop  offset="0.5" style="stop-color:#fbf4a1;stop-opacity:undefined"/><stop  offset="1" style="stop-color:#8f5e25;stop-opacity:undefined"/>
    </linearGradient>
  <path fill="url(#CUSTOM_SVGID_undefined)" opacity="1" d="M40.61 7.69Q38.14 7.69 36.71 6.82Q35.28 5.94 34.66 4.14Q34.04 2.33 34.04-0.63L34.04-0.63L34.04-5.36Q34.04-6.85 34.13-8.06L34.13-8.06L32.46-7.99L32.46-8.99L37.68-8.99L37.68-8.22Q36.65-8.22 36.37-7.69Q36.09-7.15 36.09-6.38L36.09-6.38L36.09-0.51Q36.09 1.52 36.45 3.00Q36.81 4.48 37.87 5.42Q38.93 6.36 40.91 6.36L40.91 6.36Q43.34 6.36 44.51 4.70Q45.69 3.03 45.74 0.17L45.74 0.17L45.81-6.38Q45.81-7.36 45.88-8.06L45.88-8.06L44.22-7.97L44.22-8.99L48.56-8.99L48.56-8.22Q47.72-8.20 47.37-7.85Q47.02-7.50 46.97-7.02Q46.93-6.54 46.93-5.36L46.93-5.36L46.88 0.05Q46.86 3.43 45.38 5.56Q43.90 7.69 40.61 7.69L40.61 7.69Z"/>
    <linearGradient id="CUSTOM_SVGID_undefined" gradientUnits="userSpaceOnUse" gradientTransform="matrix(1 0 0 1 -180.3410300951733 -13.164499999999999)"  x1="0" y1="0" x2="360.6820601903466" y2="26.328999999999997">
      <stop  offset="0" style="stop-color:#8f5e25;stop-opacity:undefined"/><stop  offset="0.5" style="stop-color:#fbf4a1;stop-opacity:undefined"/><stop  offset="1" style="stop-color:#8f5e25;stop-opacity:undefined"/>
    </linearGradient>
  <path fill="url(#CUSTOM_SVGID_undefined)" opacity="1" d="M57.97 7.69Q56.88 7.69 55.77 7.39Q54.66 7.09 53.82 6.50L53.82 6.50L53.94 7.51L52.73 7.51L52.59 2.54L53.50 2.54Q53.61 4.55 54.87 5.63Q56.13 6.71 58.06 6.71L58.06 6.71Q59.48 6.71 60.45 5.93Q61.42 5.15 61.42 3.80L61.42 3.80Q61.42 2.80 60.87 2.09Q60.32 1.38 59.52 0.90Q58.72 0.42 57.34-0.21L57.34-0.21Q55.78-0.95 54.86-1.51Q53.94-2.07 53.29-2.99Q52.63-3.91 52.63-5.26L52.63-5.26Q52.63-6.19 53.07-7.13Q53.50-8.06 54.56-8.71Q55.62-9.36 57.36-9.36L57.36-9.36Q58.41-9.36 59.47-9.10Q60.53-8.83 61.42-8.18L61.42-8.18L61.33-9.18L62.51-9.18L62.51-4.05L61.68-4.05Q61.56-5.89 60.50-7.16Q59.44-8.43 57.53-8.43L57.53-8.43Q56.13-8.43 55.34-7.65Q54.55-6.87 54.55-5.71L54.55-5.71Q54.55-4.77 55.08-4.10Q55.62-3.42 56.39-2.98Q57.15-2.54 58.55-1.88L58.55-1.88Q60.14-1.16 61.10-0.58Q62.07 0.00 62.75 0.95Q63.42 1.89 63.42 3.27L63.42 3.27Q63.42 4.57 62.78 5.57Q62.14 6.57 60.91 7.13Q59.67 7.69 57.97 7.69L57.97 7.69Z"/>
    <linearGradient id="CUSTOM_SVGID_undefined" gradientUnits="userSpaceOnUse" gradientTransform="matrix(1 0 0 1 -180.3410300951733 -13.164499999999999)"  x1="0" y1="0" x2="360.6820601903466" y2="26.328999999999997">
      <stop  offset="0" style="stop-color:#8f5e25;stop-opacity:undefined"/><stop  offset="0.5" style="stop-color:#fbf4a1;stop-opacity:undefined"/><stop  offset="1" style="stop-color:#8f5e25;stop-opacity:undefined"/>
    </linearGradient>
  <path fill="url(#CUSTOM_SVGID_undefined)" opacity="1" d="M73.16 7.69Q72.07 7.69 70.96 7.39Q69.85 7.09 69.01 6.50L69.01 6.50L69.13 7.51L67.92 7.51L67.78 2.54L68.69 2.54Q68.80 4.55 70.06 5.63Q71.32 6.71 73.26 6.71L73.26 6.71Q74.68 6.71 75.64 5.93Q76.61 5.15 76.61 3.80L76.61 3.80Q76.61 2.80 76.06 2.09Q75.52 1.38 74.71 0.90Q73.91 0.42 72.53-0.21L72.53-0.21Q70.97-0.95 70.05-1.51Q69.13-2.07 68.48-2.99Q67.83-3.91 67.83-5.26L67.83-5.26Q67.83-6.19 68.26-7.13Q68.69-8.06 69.75-8.71Q70.81-9.36 72.56-9.36L72.56-9.36Q73.60-9.36 74.66-9.10Q75.73-8.83 76.61-8.18L76.61-8.18L76.52-9.18L77.71-9.18L77.71-4.05L76.87-4.05Q76.75-5.89 75.69-7.16Q74.63-8.43 72.72-8.43L72.72-8.43Q71.32-8.43 70.53-7.65Q69.74-6.87 69.74-5.71L69.74-5.71Q69.74-4.77 70.27-4.10Q70.81-3.42 71.58-2.98Q72.35-2.54 73.74-1.88L73.74-1.88Q75.33-1.16 76.30-0.58Q77.26 0.00 77.94 0.95Q78.61 1.89 78.61 3.27L78.61 3.27Q78.61 4.57 77.97 5.57Q77.33 6.57 76.10 7.13Q74.86 7.69 73.16 7.69L73.16 7.69Z"/>
    <linearGradient id="CUSTOM_SVGID_undefined" gradientUnits="userSpaceOnUse" gradientTransform="matrix(1 0 0 1 -180.3410300951733 -13.164499999999999)"  x1="0" y1="0" x2="360.6820601903466" y2="26.328999999999997">
      <stop  offset="0" style="stop-color:#8f5e25;stop-opacity:undefined"/><stop  offset="0.5" style="stop-color:#fbf4a1;stop-opacity:undefined"/><stop  offset="1" style="stop-color:#8f5e25;stop-opacity:undefined"/>
    </linearGradient>
  <path fill="url(#CUSTOM_SVGID_undefined)" opacity="1" d="M82.90 7.32L82.90 6.55Q83.72 6.53 84.07 6.18Q84.42 5.83 84.46 5.35Q84.51 4.87 84.51 3.68L84.51 3.68L84.51-6.38Q84.51-7.36 84.58-8.06L84.58-8.06L82.90-7.97L82.90-8.99L88.14-8.99L88.14-8.22Q87.33-8.20 86.98-7.85Q86.63-7.50 86.58-7.02Q86.54-6.54 86.54-5.36L86.54-5.36L86.54 4.55Q86.54 5.78 86.47 6.39L86.47 6.39L88.14 6.29L88.14 7.32L82.90 7.32Z"/>
    <linearGradient id="CUSTOM_SVGID_undefined" gradientUnits="userSpaceOnUse" gradientTransform="matrix(1 0 0 1 -180.3410300951733 -13.164499999999999)"  x1="0" y1="0" x2="360.6820601903466" y2="26.328999999999997">
      <stop  offset="0" style="stop-color:#8f5e25;stop-opacity:undefined"/><stop  offset="0.5" style="stop-color:#fbf4a1;stop-opacity:undefined"/><stop  offset="1" style="stop-color:#8f5e25;stop-opacity:undefined"/>
    </linearGradient>
  <path fill="url(#CUSTOM_SVGID_undefined)" opacity="1" d="M91.27 7.32L91.27 6.55Q91.85 6.55 92.20 6.28Q92.55 6.01 92.77 5.58Q92.99 5.15 93.29 4.29L93.29 4.29L93.53 3.64L98.33-9.43L98.89-9.43L104.08 3.82Q104.34 4.45 104.52 5.19Q104.71 5.92 104.69 6.39L104.69 6.39L106.27 6.29L106.27 7.32L100.94 7.32L100.94 6.55Q102.31 6.53 102.31 5.43L102.31 5.43Q102.31 4.99 102.08 4.34L102.08 4.34L101.26 2.15L95.20 2.29Q94.85 3.24 94.39 4.78L94.39 4.78Q94.16 5.55 93.81 6.39L93.81 6.39L95.62 6.29L95.62 7.32L91.27 7.32ZM95.55 1.28L100.94 1.28L99.28-3.17L98.23-6.03L98.19-6.03L97.21-3.40L95.95 0.14L95.55 1.28Z"/>
    <linearGradient id="CUSTOM_SVGID_undefined" gradientUnits="userSpaceOnUse" gradientTransform="matrix(1 0 0 1 -180.3410300951733 -13.164499999999999)"  x1="0" y1="0" x2="360.6820601903466" y2="26.328999999999997">
      <stop  offset="0" style="stop-color:#8f5e25;stop-opacity:undefined"/><stop  offset="0.5" style="stop-color:#fbf4a1;stop-opacity:undefined"/><stop  offset="1" style="stop-color:#8f5e25;stop-opacity:undefined"/>
    </linearGradient>
  </g><g transform="matrix(-0.0015041470738106808 0.4699759965504102 -0.49999743925741547 -0.0016002299919400398 85.52405209698252 312.3131168614974)"  >
<linearGradient id="SVGID_11167" gradientUnits="userSpaceOnUse" gradientTransform="matrix(1 0 0 1 -50 0)"  x1="0" y1="0" x2="100" y2="0">
<stop offset="0%" style="stop-color:rgb(143,94,37);stop-opacity: 1"/>
<stop offset="51.4%" style="stop-color:rgb(251,244,161);stop-opacity: 1"/>
<stop offset="100%" style="stop-color:rgb(143,94,37);stop-opacity: 1"/>
</linearGradient>
<linearGradient id="SVGID_11168" gradientUnits="userSpaceOnUse" gradientTransform="matrix(1 0 0 1 -50 0)"  x1="0" y1="0" x2="100" y2="0">
<stop offset="0%" style="stop-color:rgb(143,94,37);stop-opacity: 1"/>
<stop offset="51.4%" style="stop-color:rgb(251,244,161);stop-opacity: 1"/>
<stop offset="100%" style="stop-color:rgb(143,94,37);stop-opacity: 1"/>
</linearGradient>
<line style="stroke: url(#SVGID_11168); stroke-width: 3; stroke-dasharray: ; stroke-linecap: butt; stroke-dashoffset: 0; stroke-linejoin: miter; stroke-miterlimit: 4; fill: url(#SVGID_11167); fill-rule: nonzero; opacity: 1;"  x1="-50" y1="0" x2="50" y2="0" />
</g>
<g transform="matrix(1.2555241349518407 0 0 -1.2555241349518407 138.2469529401019 334.5566679211514)"  >
<linearGradient id="SVGID_11169" gradientUnits="userSpaceOnUse" gradientTransform="matrix(1 0 0 1 7.300000000000004 49)"  x1="0" y1="0" x2="85.3" y2="2">
<stop offset="0%" style="stop-color:rgb(143,94,37);stop-opacity: 1"/>
<stop offset="51.4%" style="stop-color:rgb(251,244,161);stop-opacity: 1"/>
<stop offset="100%" style="stop-color:rgb(143,94,37);stop-opacity: 1"/>
</linearGradient>
<path style="stroke: none; stroke-width: 0; stroke-dasharray: none; stroke-linecap: butt; stroke-dashoffset: 0; stroke-linejoin: miter; stroke-miterlimit: 4; fill: url(#SVGID_11169); fill-rule: nonzero; opacity: 1;"  transform=" translate(-49.95, -50)" d="M 91.7 49 H 8.3 c -0.6 0 -1 0.4 -1 1 s 0.4 1 1 1 h 83.3 c 0.6 0 1 -0.4 1 -1 S 92.2 49 91.7 49 z" stroke-linecap="round" />
</g>
<g transform="matrix(1.257649112854377 0 0 1.257649112854377 359.2530471196083 334.5566679211514)"  >
<linearGradient id="SVGID_11170" gradientUnits="userSpaceOnUse" gradientTransform="matrix(1 0 0 1 7.300000000000004 49)"  x1="0" y1="0" x2="85.3" y2="2">
<stop offset="0%" style="stop-color:rgb(143,94,37);stop-opacity: 1"/>
<stop offset="51.4%" style="stop-color:rgb(251,244,161);stop-opacity: 1"/>
<stop offset="100%" style="stop-color:rgb(143,94,37);stop-opacity: 1"/>
</linearGradient>
<path style="stroke: none; stroke-width: 0; stroke-dasharray: none; stroke-linecap: butt; stroke-dashoffset: 0; stroke-linejoin: miter; stroke-miterlimit: 4; fill: url(#SVGID_11170); fill-rule: nonzero; opacity: 1;"  transform=" translate(-49.95, -50)" d="M 91.7 49 H 8.3 c -0.6 0 -1 0.4 -1 1 s 0.4 1 1 1 h 83.3 c 0.6 0 1 -0.4 1 -1 S 92.2 49 91.7 49 z" stroke-linecap="round" />
</g>
<g transform="matrix(0.4964163428039683 0 0 0.4964163428039683 390.5530463566688 313.4755816078272)"  >
<g style=""   >
		<g transform="matrix(1 0 0 1 -6.352035360233771 -19.527499999999996)"  >
<linearGradient id="SVGID_11150_11174" gradientUnits="userSpaceOnUse" gradientTransform="matrix(1 0 0 1 12.839999999999996 10.466000000000006)"  x1="0" y1="0" x2="90" y2="90">
<stop offset="0%" style="stop-color:rgb(143,94,37);"/>
<stop offset="51.4%" style="stop-color:rgb(251,244,161);"/>
<stop offset="100%" style="stop-color:rgb(143,94,37);"/>
</linearGradient>
<path style="stroke: none; stroke-width: 1; stroke-dasharray: none; stroke-linecap: butt; stroke-dashoffset: 0; stroke-linejoin: miter; stroke-miterlimit: 4; fill: url(#SVGID_11150_11174); fill-rule: nonzero; opacity: 1;"  transform=" translate(-38.64796463976623, -25.472500000000004)" d="M 62.773 26.101 c 0 0 2.3 -6.963 -2.914 -9.066 c 0 0 0.656 4.776 -0.315 3.899 c -0.974 -0.878 -1.901 -1.164 -1.901 -1.164 s -0.047 6.717 -1.422 6.654 c -1.377 -0.06 -1.884 -2.186 -3.199 -3.552 c -1.315 -1.369 -4.412 -2.863 -5.955 -0.901 c -1.543 1.959 -1.062 3.348 -1.062 3.348 s -13.637 3.205 -14.892 4.18 l 2.839 0.432 L 12.84 40.479 l 5.837 -6.574 l -2.492 0.941 c 0 0 3.513 -7.659 10.981 -9.448 c 0 0 -7.943 -2.381 -8.428 -3.767 c 0 0 13.733 1.639 18.156 -1.056 c 4.422 -2.691 -0.229 -1.206 -1.109 -0.898 c -0.874 0.308 -8.874 0.119 -8.874 0.119 s 9.22 -3.284 8.137 -3.447 c -1.086 -0.163 -6.965 -3.394 -6.033 -5.883 c 0 0 6.444 3.167 7.767 2.635 c 1.327 -0.531 25.098 -4.832 27.466 6.938 c 0 0 0.515 3.001 -0.076 5.984 L 62.773 26.101 z" stroke-linecap="round" />
</g>
		<g transform="matrix(1 0 0 1 5.884000000000004 -19.63872431652417)"  >
<linearGradient id="SVGID_11151_11175" gradientUnits="userSpaceOnUse" gradientTransform="matrix(1 0 0 1 47.756 22.358551366951666)"  x1="0" y1="0" x2="90" y2="90">
<stop offset="0%" style="stop-color:rgb(143,94,37);"/>
<stop offset="51.4%" style="stop-color:rgb(251,244,161);"/>
<stop offset="100%" style="stop-color:rgb(143,94,37);"/>
</linearGradient>
<path style="stroke: none; stroke-width: 1; stroke-dasharray: none; stroke-linecap: butt; stroke-dashoffset: 0; stroke-linejoin: miter; stroke-miterlimit: 4; fill: url(#SVGID_11151_11175); fill-rule: nonzero; opacity: 1;"  transform=" translate(-50.884, -25.36127568347583)" d="M 54.012 26.385 l -3.344 1.979 c 0 0 0.074 -2.329 -1.209 -2.081 c -1.281 0.241 2.17 -2.456 -1.703 -2.456 c 0 0 0.371 -1.551 1.885 -1.465 C 51.148 22.44 53.027 23.749 54.012 26.385 z" stroke-linecap="round" />
</g>
		<g transform="matrix(1 0 0 1 -15.986394972825703 6.1845)"  >
<linearGradient id="SVGID_11152_11176" gradientUnits="userSpaceOnUse" gradientTransform="matrix(1 0 0 1 10.9402100543486 26.831000000000003)"  x1="0" y1="0" x2="90" y2="90">
<stop offset="0%" style="stop-color:rgb(143,94,37);"/>
<stop offset="51.4%" style="stop-color:rgb(251,244,161);"/>
<stop offset="100%" style="stop-color:rgb(143,94,37);"/>
</linearGradient>
<path style="stroke: none; stroke-width: 1; stroke-dasharray: none; stroke-linecap: butt; stroke-dashoffset: 0; stroke-linejoin: miter; stroke-miterlimit: 4; fill: url(#SVGID_11152_11176); fill-rule: nonzero; opacity: 1;"  transform=" translate(-29.0136050271743, -51.1845)" d="M 45.362 26.831 l 0.444 2.551 c 0 0 -5.481 3.269 -7.104 6.678 l 7.65 -4.839 c 0 0 -8.316 6.493 -9.526 8.064 c -1.204 1.573 -3.843 5.27 -3.843 5.27 s 9.314 -9.416 14.104 -10.878 c 0 0 -13.509 8.774 -17.438 18.271 c -3.933 9.492 -6.31 17.912 4.178 23.59 c 0 0 -24.912 -5.52 -16.21 -27.312 c 0 0 -4.793 5.125 -6.188 12.518 c 0 0 -2.589 -10.332 4.15 -17.357 c 6.739 -7.025 21.69 -13.394 21.69 -13.394 l -2.396 -0.651 C 34.876 29.338 42.864 26.889 45.362 26.831 z" stroke-linecap="round" />
</g>
		<g transform="matrix(1 0 0 1 3.2183057071383665 -14.3295)"  >
<linearGradient id="SVGID_11153_11177" gradientUnits="userSpaceOnUse" gradientTransform="matrix(1 0 0 1 47.14999999999999 28.975)"  x1="0" y1="0" x2="90" y2="90">
<stop offset="0%" style="stop-color:rgb(143,94,37);"/>
<stop offset="51.4%" style="stop-color:rgb(251,244,161);"/>
<stop offset="100%" style="stop-color:rgb(143,94,37);"/>
</linearGradient>
<path style="stroke: none; stroke-width: 1; stroke-dasharray: none; stroke-linecap: butt; stroke-dashoffset: 0; stroke-linejoin: miter; stroke-miterlimit: 4; fill: url(#SVGID_11153_11177); fill-rule: nonzero; opacity: 1;"  transform=" translate(-48.21830570713837, -30.6705)" d="M 47.945 28.975 c 0 0 0.863 1.594 1.293 1.511 c 0.426 -0.082 -2.088 1.88 -2.088 1.88 L 47.945 28.975 z" stroke-linecap="round" />
</g>
		<g transform="matrix(1 0 0 1 -3.0539554307278536 12.772562002399805)"  >
<linearGradient id="SVGID_11154_11178" gradientUnits="userSpaceOnUse" gradientTransform="matrix(1 0 0 1 27.480263265548203 38.61399999999999)"  x1="0" y1="0" x2="90" y2="90">
<stop offset="0%" style="stop-color:rgb(143,94,37);"/>
<stop offset="51.4%" style="stop-color:rgb(251,244,161);"/>
<stop offset="100%" style="stop-color:rgb(143,94,37);"/>
</linearGradient>
<path style="stroke: none; stroke-width: 1; stroke-dasharray: none; stroke-linecap: butt; stroke-dashoffset: 0; stroke-linejoin: miter; stroke-miterlimit: 4; fill: url(#SVGID_11154_11178); fill-rule: nonzero; opacity: 1;"  transform=" translate(-41.946044569272146, -57.77256200239981)" d="M 43.991 38.614 c 0 0 -1.202 2.448 -0.923 3.371 c 0.271 0.917 1.08 3.817 1.08 3.817 s -3.682 2.367 -3.899 3.802 c -0.215 1.428 10.409 3.477 13.804 13.057 c 3.395 9.582 2.127 12.459 2.127 12.459 s -2.805 -12.564 -8.423 -13.852 c 0 0 5.169 5.17 5.798 8.336 s 1.368 6.494 0.492 6.803 c -0.879 0.307 -15.72 1.42 -18.125 -0.992 c -2.4 -2.412 -12.353 -8.008 -6.761 -19.303 C 34.743 44.821 40.862 39.162 43.991 38.614 z" stroke-linecap="round" />
</g>
		<g transform="matrix(1 0 0 1 20.336500000000004 -14.149500000000005)"  >
<linearGradient id="SVGID_11155_11179" gradientUnits="userSpaceOnUse" gradientTransform="matrix(1 0 0 1 59.08800000000001 28.407999999999994)"  x1="0" y1="0" x2="90" y2="90">
<stop offset="0%" style="stop-color:rgb(143,94,37);"/>
<stop offset="51.4%" style="stop-color:rgb(251,244,161);"/>
<stop offset="100%" style="stop-color:rgb(143,94,37);"/>
</linearGradient>
<path style="stroke: none; stroke-width: 1; stroke-dasharray: none; stroke-linecap: butt; stroke-dashoffset: 0; stroke-linejoin: miter; stroke-miterlimit: 4; fill: url(#SVGID_11155_11179); fill-rule: nonzero; opacity: 1;"  transform=" translate(-65.3365, -30.850499999999997)" d="M 71.585 32.847 c 0 0 -2.845 -0.43 -3.586 -0.106 c -0.74 0.326 -2.16 0.552 -2.16 0.552 s -1.345 -2.105 -2.604 -2.006 c -1.262 0.106 -4.147 -0.038 -4.147 -0.038 l 2.511 -2.841 l -0.601 2.107 c 0 0 4.252 -1.552 5.217 1.222 c 0 0 1.733 0.412 1.324 -0.53 c -0.41 -0.938 -1.414 -2.549 -1.414 -2.549 s 2.844 0.431 2.924 2.633 L 71.585 32.847 z" stroke-linecap="round" />
</g>
		<g transform="matrix(1 0 0 1 30.440961034228508 -1.4769730030520272)"  >
<linearGradient id="SVGID_11156_11180" gradientUnits="userSpaceOnUse" gradientTransform="matrix(1 0 0 1 71.8237705018359 37.376999999999995)"  x1="0" y1="0" x2="90" y2="90">
<stop offset="0%" style="stop-color:rgb(143,94,37);"/>
<stop offset="51.4%" style="stop-color:rgb(251,244,161);"/>
<stop offset="100%" style="stop-color:rgb(143,94,37);"/>
</linearGradient>
<path style="stroke: none; stroke-width: 1; stroke-dasharray: none; stroke-linecap: butt; stroke-dashoffset: 0; stroke-linejoin: miter; stroke-miterlimit: 4; fill: url(#SVGID_11156_11180); fill-rule: nonzero; opacity: 1;"  transform=" translate(-75.44096103422851, -43.523026996947976)" d="M 78.281 37.953 c 0 0 -0.485 1.387 -1.799 0.9 c -1.305 -0.49 -1.99 -1.476 -1.99 -1.476 s -0.283 0.984 0.779 2.167 c 1.068 1.188 0.943 2.923 0.584 3.454 c -0.358 0.533 -2.861 3.372 -3.56 3.409 c -0.698 0.04 -0.612 3.125 0.201 3.25 c 0.812 0.123 2.044 -0.716 2.174 -1.573 c 0.129 -0.855 -0.305 -1.65 0.32 -3.023 c 0.618 -1.365 1.946 -1.896 2.303 -2.43 C 77.652 42.099 80.359 38.853 78.281 37.953 z" stroke-linecap="round" />
</g>
		<g transform="matrix(1 0 0 1 24.026778945980453 -4.389647310077915)"  >
<linearGradient id="SVGID_11157_11181" gradientUnits="userSpaceOnUse" gradientTransform="matrix(1 0 0 1 65.10951007047353 36.400999999999996)"  x1="0" y1="0" x2="90" y2="90">
<stop offset="0%" style="stop-color:rgb(143,94,37);"/>
<stop offset="51.4%" style="stop-color:rgb(251,244,161);"/>
<stop offset="100%" style="stop-color:rgb(143,94,37);"/>
</linearGradient>
<path style="stroke: none; stroke-width: 1; stroke-dasharray: none; stroke-linecap: butt; stroke-dashoffset: 0; stroke-linejoin: miter; stroke-miterlimit: 4; fill: url(#SVGID_11157_11181); fill-rule: nonzero; opacity: 1;"  transform=" translate(-69.02677894598045, -40.61035268992208)" d="M 72.833 41.954 c 0 0 0.521 1.105 -0.694 0.922 c -1.216 -0.187 -4.035 -0.761 -4.035 -0.761 s 0.457 1.531 1.402 1.674 c 0.947 0.145 2.916 0.882 2.916 0.882 s -6.259 1.103 -7.206 -2.699 c -0.946 -3.798 4.722 -5.571 4.722 -5.571 S 67.238 41.403 72.833 41.954 z" stroke-linecap="round" />
</g>
		<g transform="matrix(1 0 0 1 13.403100019777415 11.809500000000003)"  >
<linearGradient id="SVGID_11158_11182" gradientUnits="userSpaceOnUse" gradientTransform="matrix(1 0 0 1 43.2470851278364 34.08500000000001)"  x1="0" y1="0" x2="90" y2="90">
<stop offset="0%" style="stop-color:rgb(143,94,37);"/>
<stop offset="51.4%" style="stop-color:rgb(251,244,161);"/>
<stop offset="100%" style="stop-color:rgb(143,94,37);"/>
</linearGradient>
<path style="stroke: none; stroke-width: 1; stroke-dasharray: none; stroke-linecap: butt; stroke-dashoffset: 0; stroke-linejoin: miter; stroke-miterlimit: 4; fill: url(#SVGID_11158_11182); fill-rule: nonzero; opacity: 1;"  transform=" translate(-58.40310001977741, -56.8095)" d="M 54.643 34.085 l 3.108 3.247 c 0 0 -4.31 2.859 -4.589 4.719 c -0.285 1.855 -0.988 4.676 2.559 5.944 s 5.487 2.146 5.985 -1.146 c 0 0 1.44 3.293 3.558 3.029 c 0 0 -0.798 2.51 0.789 3.922 c 1.586 1.41 1.749 2.166 2.398 1.531 c 0.65 -0.637 2.812 -0.309 3.586 0.105 c 0.768 0.403 1.49 1.104 1.49 1.104 s 0.189 1.49 -0.35 1.406 c -0.546 -0.08 -1.398 0.082 -2.025 0.572 c -0.629 0.489 -2.523 0.205 -3.248 -0.494 c -0.725 -0.693 -2.937 -4.387 -4.059 -4.271 c -1.125 0.123 -1.439 0.373 -0.762 1.348 c 0.682 0.982 7.555 11.388 3.914 24.433 c 0 0 -4.663 -14.888 -7.214 -15.42 l -1.935 8.188 c 0 0 -2.396 -16.157 -8.975 -19.346 c -6.573 -3.188 -7.278 -4.026 -2.682 -4.21 c 0 0 1.162 -8.597 8.447 -11.003 L 54.643 34.085 z" stroke-linecap="round" />
</g>
		<g transform="matrix(1 0 0 1 22.21034542113236 1.6201755704370768)"  >
<linearGradient id="SVGID_11159_11183" gradientUnits="userSpaceOnUse" gradientTransform="matrix(1 0 0 1 63.25069084226471 44.97101264967659)"  x1="0" y1="0" x2="90" y2="90">
<stop offset="0%" style="stop-color:rgb(143,94,37);"/>
<stop offset="51.4%" style="stop-color:rgb(251,244,161);"/>
<stop offset="100%" style="stop-color:rgb(143,94,37);"/>
</linearGradient>
<path style="stroke: none; stroke-width: 1; stroke-dasharray: none; stroke-linecap: butt; stroke-dashoffset: 0; stroke-linejoin: miter; stroke-miterlimit: 4; fill: url(#SVGID_11159_11183); fill-rule: nonzero; opacity: 1;"  transform=" translate(-67.21034542113236, -46.62017557043708)" d="M 71.17 46.53 l -0.602 1.223 c 0 0 -2.865 -0.284 -3.467 0.063 c -0.609 0.348 -4.771 1.322 -3.664 -1.437 c 1.112 -2.753 4.121 -0.688 4.752 -0.301 C 68.827 46.468 71.17 46.53 71.17 46.53 z" stroke-linecap="round" />
</g>
</g>
</g>
<g transform="matrix(0.44554072244673193 0 0 0.44554072244673193 106.97588470674248 309.5762153677538)"  >
<g style=""   >
		<g transform="matrix(1 0 0 1 -21.9955 37.54550000000001)"  >
<linearGradient id="SVGID_11160_11184" gradientUnits="userSpaceOnUse" gradientTransform="matrix(1 0 0 1 -6.422499999999999 -7.079500000000003)"  x1="0" y1="0" x2="100" y2="100">
<stop offset="0%" style="stop-color:rgb(143,94,37);"/>
<stop offset="51.4%" style="stop-color:rgb(251,244,161);"/>
<stop offset="100%" style="stop-color:rgb(143,94,37);"/>
</linearGradient>
<polygon style="stroke: none; stroke-width: 1; stroke-dasharray: none; stroke-linecap: butt; stroke-dashoffset: 0; stroke-linejoin: miter; stroke-miterlimit: 4; fill: url(#SVGID_11160_11184); fill-rule: nonzero; opacity: 1;"  points="-6.422499999999999,5.206499999999998 -3.5524999999999984,0.6015000000000086 -3.000499999999999,-3.3954999999999913 -3.400500000000001,-7.079500000000003 0.14949999999999974,-5.103500000000004 4.047499999999999,-2.0004999999999953 6.422499999999999,1.63750000000001 6.422499999999999,4.812500000000007 4.110500000000002,7.079500000000003 -1.8024999999999984,7.079500000000003 " />
</g>
		<g transform="matrix(1 0 0 1 -21.6755 28.0845)"  >
<linearGradient id="SVGID_11161_11185" gradientUnits="userSpaceOnUse" gradientTransform="matrix(1 0 0 1 -17.570500000000003 -11.555500000000002)"  x1="0" y1="0" x2="100" y2="100">
<stop offset="0%" style="stop-color:rgb(143,94,37);"/>
<stop offset="51.4%" style="stop-color:rgb(251,244,161);"/>
<stop offset="100%" style="stop-color:rgb(143,94,37);"/>
</linearGradient>
<polygon style="stroke: none; stroke-width: 1; stroke-dasharray: none; stroke-linecap: butt; stroke-dashoffset: 0; stroke-linejoin: miter; stroke-miterlimit: 4; fill: url(#SVGID_11161_11185); fill-rule: nonzero; opacity: 1;"  points="17.570500000000003,-0.8385000000000034 13.3735,-2.8484999999999943 7.985500000000002,-4.474499999999999 2.304500000000001,-5.683500000000002 -2.724499999999999,-5.9084999999999965 -5.897500000000001,-5.420499999999997 -6.904499999999999,-2.768499999999996 -10.6205,-4.193499999999993 -6.897500000000001,-6.515499999999996 -2.9224999999999994,-7.377500000000005 2.476499999999998,-7.817500000000003 7.412500000000001,-7.299500000000002 10.887500000000003,-6.724499999999999 7.9765000000000015,-9.051499999999997 3.7774999999999963,-10.7365 1.0154999999999994,-11.3675 -3.177500000000002,-11.555500000000002 -7.813500000000001,-10.676499999999997 -11.8705,-8.721499999999999 -14.1385,-6.317500000000003 -14.8315,-4.325499999999998 -14.9185,-3.0904999999999987 -16.1455,-1.6814999999999927 -17.1885,0.19950000000000756 -17.570500000000003,2.228500000000004 -17.2165,4.5334999999999965 -15.425500000000001,7.339500000000008 -14.6945,4.8675 -13.7065,2.9935000000000045 -12.2135,1.8775000000000048 -9.956500000000002,1.0304999999999964 -6.961500000000001,1.0154999999999959 -3.564499999999999,1.4365000000000023 0.14949999999999974,2.8625000000000043 2.944499999999998,4.430500000000002 5.6895000000000024,6.3955000000000055 7.8765,8.324500000000008 9.3155,11.555500000000002 13.8765,6.811500000000002 16.329500000000003,2.768499999999996 " />
</g>
		<g transform="matrix(1 0 0 1 3.6000000000000014 0)"  >
<linearGradient id="SVGID_11162_11186" gradientUnits="userSpaceOnUse" gradientTransform="matrix(1 0 0 1 -18.526000000000003 -44.625)"  x1="0" y1="0" x2="100" y2="100">
<stop offset="0%" style="stop-color:rgb(143,94,37);"/>
<stop offset="51.4%" style="stop-color:rgb(251,244,161);"/>
<stop offset="100%" style="stop-color:rgb(143,94,37);"/>
</linearGradient>
<polygon style="stroke: none; stroke-width: 1; stroke-dasharray: none; stroke-linecap: butt; stroke-dashoffset: 0; stroke-linejoin: miter; stroke-miterlimit: 4; fill: url(#SVGID_11162_11186); fill-rule: nonzero; opacity: 1;"  points="-5.951999999999998,-40.906 1.213000000000001,-37.26 8.927999999999997,-31.472 14.716999999999992,-24.678 14.729999999999997,-24.664 17.362000000000002,-17.476 18.526000000000003,-10.662999999999997 18.029000000000003,1.365000000000002 18.026999999999994,1.3789999999999978 14.905999999999999,11.646 9.482,21.224000000000004 2.798000000000002,29.760999999999996 -6.190000000000005,37.147000000000006 -18.526000000000003,44.625 -8.707999999999998,36.093 -1.8269999999999982,27.232 2.266999999999996,19.397000000000006 4.719999999999999,10.637999999999998 5.963000000000001,1.1199999999999974 4.832999999999998,-8.564 2.125,-18.208 -3.0720000000000027,-27.625 -9.310000000000002,-36.682 -16.773000000000003,-44.625 " />
</g>
		<g transform="matrix(1 0 0 1 12.014000000000003 15.609000000000009)"  >
<linearGradient id="SVGID_11163_11187" gradientUnits="userSpaceOnUse" gradientTransform="matrix(1 0 0 1 -23.002000000000002 -29.016)"  x1="0" y1="0" x2="100" y2="100">
<stop offset="0%" style="stop-color:rgb(143,94,37);"/>
<stop offset="51.4%" style="stop-color:rgb(251,244,161);"/>
<stop offset="100%" style="stop-color:rgb(143,94,37);"/>
</linearGradient>
<polygon style="stroke: none; stroke-width: 1; stroke-dasharray: none; stroke-linecap: butt; stroke-dashoffset: 0; stroke-linejoin: miter; stroke-miterlimit: 4; fill: url(#SVGID_11163_11187); fill-rule: nonzero; opacity: 1;"  points="-11.797000000000004,22.32999999999999 -6.0760000000000005,18.58299999999999 1.448999999999998,12.984999999999992 6.332999999999991,7.317 10.773000000000003,0.2919999999999945 13.81799999999999,-5.082000000000001 15.839999999999996,-12.415 16.422999999999995,-19.584000000000003 17.068999999999996,-29.016 20.607999999999997,-21.949000000000005 22.54,-16.576 23.002000000000002,-10.221000000000004 21.660999999999994,-3.2920000000000016 21.657000000000004,-3.2820000000000036 18.678999999999995,3.6639999999999944 13.892999999999994,9.746999999999993 6.033999999999999,16.389999999999993 -2.950000000000003,21.491999999999997 -9.708000000000006,24.648999999999994 -17.105000000000004,27.302 -23.002000000000002,29.016 -18.188000000000002,26.148999999999994 " />
</g>
		<g transform="matrix(1 0 0 1 16.950000000000006 31.133499999999998)"  >
<linearGradient id="SVGID_11164_11188" gradientUnits="userSpaceOnUse" gradientTransform="matrix(1 0 0 1 -22.295999999999996 -13.491500000000002)"  x1="0" y1="0" x2="100" y2="100">
<stop offset="0%" style="stop-color:rgb(143,94,37);"/>
<stop offset="51.4%" style="stop-color:rgb(251,244,161);"/>
<stop offset="100%" style="stop-color:rgb(143,94,37);"/>
</linearGradient>
<polygon style="stroke: none; stroke-width: 1; stroke-dasharray: none; stroke-linecap: butt; stroke-dashoffset: 0; stroke-linejoin: miter; stroke-miterlimit: 4; fill: url(#SVGID_11164_11188); fill-rule: nonzero; opacity: 1;"  points="-2.9330000000000034,7.410499999999999 3.759000000000004,4.3125 9.140000000000004,1.0734999999999957 13.813999999999997,-2.659499999999994 17.783000000000005,-7.447499999999991 22.295999999999996,-13.491500000000002 21.572999999999997,-6.014499999999998 19.572999999999997,-0.7295000000000016 16.718000000000007,3.4825000000000017 16.706000000000007,3.498500000000007 11.673000000000005,6.979500000000002 5.042999999999996,9.132500000000007 -1.8209999999999944,10.499499999999998 -10.394000000000002,12.171500000000009 -22.295999999999996,13.491500000000002 -10.770999999999997,10.216499999999996 " />
</g>
</g>
</g>
<g transform="matrix(0.8191050876049171 0 0 0.9520359458608616 248.75000002985516 148.2056441221732)"  >
<linearGradient id="SVGID_11171" gradientUnits="userSpaceOnUse" gradientTransform="matrix(1 0 0 1 4.414000000000009 9.868000000000016)"  x1="0" y1="0" x2="91.17" y2="80.26092772710682">
<stop offset="0%" style="stop-color:rgb(143,94,37);stop-opacity: 1"/>
<stop offset="51.4%" style="stop-color:rgb(251,244,161);stop-opacity: 1"/>
<stop offset="100%" style="stop-color:rgb(143,94,37);stop-opacity: 1"/>
</linearGradient>
<path style="stroke: none; stroke-width: 0; stroke-dasharray: none; stroke-linecap: butt; stroke-dashoffset: 0; stroke-linejoin: miter; stroke-miterlimit: 4; fill: url(#SVGID_11171); fill-rule: nonzero; opacity: 1;"  transform=" translate(-49.99900000000001, -49.998463863553425)" d="M 93.413 47.392 c 1.199 0 2.171 -0.972 2.171 -2.171 c 0 -1.199 -0.972 -2.171 -2.171 -2.171 c -0.316 0 -0.614 0.071 -0.884 0.192 c -0.011 -0.204 -0.025 -0.406 -0.046 -0.605 c -0.025 -0.137 -0.054 -0.269 -0.081 -0.404 c 0.191 0.055 0.389 0.094 0.597 0.094 c 1.199 0 2.171 -0.972 2.171 -2.171 c 0 -1.199 -0.972 -2.171 -2.171 -2.171 c -0.626 0 -1.186 0.269 -1.582 0.693 c -0.172 -0.47 -0.356 -0.921 -0.551 -1.352 c 0.123 0.021 0.247 0.038 0.376 0.038 c 1.199 0 2.171 -0.972 2.171 -2.171 c 0 -1.199 -0.972 -2.171 -2.171 -2.171 c -0.937 0 -1.728 0.597 -2.032 1.429 c -0.257 -0.354 -0.523 -0.689 -0.798 -1.005 c 0.753 -0.34 1.28 -1.095 1.28 -1.975 c 0 -1.199 -0.972 -2.171 -2.171 -2.171 c -0.997 0 -1.827 0.676 -2.082 1.591 c -0.426 -0.269 -0.861 -0.511 -1.303 -0.726 c 0.366 -0.389 0.594 -0.909 0.594 -1.485 c 0 -1.199 -0.972 -2.171 -2.171 -2.171 c -1.199 0 -2.171 0.972 -2.171 2.171 c 0 0.082 0.015 0.16 0.024 0.24 c -0.32 -0.064 -0.64 -0.119 -0.958 -0.165 c 0.195 -0.326 0.314 -0.702 0.314 -1.109 c 0 -1.199 -0.972 -2.171 -2.171 -2.171 c -1.199 0 -2.171 0.972 -2.171 2.171 c 0 0.334 0.082 0.647 0.217 0.93 c -0.568 0.025 -1.117 0.07 -1.641 0.131 c 0.178 -0.315 0.288 -0.673 0.288 -1.061 c 0 -1.199 -0.972 -2.171 -2.171 -2.171 c -1.199 0 -2.171 0.972 -2.171 2.171 c 0 0.678 0.317 1.276 0.805 1.674 c -0.294 0.079 -0.564 0.16 -0.805 0.238 c -0.316 0.13 -0.626 0.254 -0.931 0.374 c 0.062 -0.201 0.105 -0.411 0.105 -0.632 c 0 -1.199 -0.972 -2.171 -2.171 -2.171 c -1.199 0 -2.171 0.972 -2.171 2.171 c 0 0.745 0.376 1.401 0.947 1.792 c -0.551 0.171 -1.081 0.325 -1.59 0.46 c 0.076 -0.221 0.126 -0.454 0.126 -0.701 c 0 -1.199 -0.972 -2.171 -2.171 -2.171 c -1.199 0 -2.171 0.972 -2.171 2.171 c 0 0.562 0.219 1.07 0.57 1.455 c -0.469 0.067 -0.916 0.118 -1.336 0.154 c 0.154 -0.298 0.249 -0.631 0.249 -0.989 c 0 -1.199 -0.972 -2.171 -2.171 -2.171 c -1.199 0 -2.171 0.972 -2.171 2.171 c 0 0.335 0.082 0.648 0.218 0.931 c -0.743 -0.097 -1.302 -0.225 -1.699 -0.311 c 1.619 -1.378 1.817 -3.204 1.817 -3.204 h 0.879 v -2.455 c 0 0 -0.207 0 -0.827 0 c -0.103 -1.499 -1.137 -3.747 -3.85 -4.264 h 3.463 c 0 0 -2.946 -2.998 -2.584 -4.496 c 2.481 0.517 4.341 3.049 4.341 3.049 s 0 -1.861 0 -9.354 c -0.775 1.085 -3.308 2.842 -4.445 2.842 c 0.155 -2.171 2.946 -4.341 2.946 -4.341 H 50 h -5.323 c 0 0 2.791 2.171 2.946 4.341 c -1.137 0 -3.669 -1.757 -4.445 -2.842 c 0 7.494 0 9.354 0 9.354 s 1.861 -2.532 4.341 -3.049 c 0.362 1.499 -2.584 4.496 -2.584 4.496 h 3.463 c -2.713 0.517 -3.747 2.765 -3.85 4.264 c -0.62 0 -0.827 0 -0.827 0 v 2.455 h 0.879 c 0 0 0.198 1.826 1.817 3.204 c -0.397 0.086 -0.956 0.214 -1.699 0.311 c 0.135 -0.283 0.218 -0.597 0.218 -0.931 c 0 -1.199 -0.972 -2.171 -2.171 -2.171 c -1.199 0 -2.171 0.972 -2.171 2.171 c 0 0.358 0.095 0.691 0.249 0.989 c -0.42 -0.036 -0.866 -0.087 -1.336 -0.154 c 0.351 -0.386 0.57 -0.893 0.57 -1.455 c 0 -1.199 -0.972 -2.171 -2.171 -2.171 c -1.199 0 -2.171 0.972 -2.171 2.171 c 0 0.247 0.05 0.48 0.126 0.701 c -0.509 -0.136 -1.039 -0.289 -1.59 -0.46 c 0.571 -0.391 0.947 -1.047 0.947 -1.792 c 0 -1.199 -0.972 -2.171 -2.171 -2.171 c -1.199 0 -2.171 0.972 -2.171 2.171 c 0 0.221 0.043 0.431 0.105 0.632 c -0.305 -0.119 -0.616 -0.244 -0.931 -0.374 c -0.241 -0.078 -0.511 -0.159 -0.805 -0.238 c 0.487 -0.398 0.805 -0.996 0.805 -1.674 c 0 -1.199 -0.972 -2.171 -2.171 -2.171 c -1.199 0 -2.171 0.972 -2.171 2.171 c 0 0.387 0.11 0.746 0.288 1.061 c -0.525 -0.061 -1.074 -0.106 -1.641 -0.131 c 0.135 -0.283 0.217 -0.596 0.217 -0.93 c 0 -1.199 -0.972 -2.171 -2.171 -2.171 c -1.199 0 -2.171 0.972 -2.171 2.171 c 0 0.407 0.119 0.784 0.314 1.109 c -0.319 0.046 -0.638 0.101 -0.958 0.165 c 0.009 -0.08 0.024 -0.158 0.024 -0.24 c 0 -1.199 -0.972 -2.171 -2.171 -2.171 c -1.199 0 -2.171 0.972 -2.171 2.171 c 0 0.576 0.228 1.096 0.594 1.485 c -0.441 0.216 -0.876 0.457 -1.303 0.726 c -0.255 -0.915 -1.086 -1.591 -2.082 -1.591 c -1.199 0 -2.171 0.972 -2.171 2.171 c 0 0.88 0.527 1.635 1.28 1.975 c -0.275 0.316 -0.541 0.65 -0.798 1.005 c -0.304 -0.832 -1.095 -1.429 -2.032 -1.429 c -1.199 0 -2.171 0.972 -2.171 2.171 c 0 1.199 0.972 2.171 2.171 2.171 c 0.129 0 0.253 -0.016 0.376 -0.038 c -0.195 0.43 -0.378 0.881 -0.551 1.352 c -0.396 -0.424 -0.956 -0.693 -1.582 -0.693 c -1.199 0 -2.171 0.972 -2.171 2.171 c 0 1.199 0.972 2.171 2.171 2.171 c 0.209 0 0.406 -0.039 0.597 -0.094 c -0.027 0.135 -0.055 0.267 -0.081 0.404 c -0.021 0.199 -0.035 0.401 -0.046 0.605 c -0.271 -0.121 -0.569 -0.192 -0.884 -0.192 c -1.199 0 -2.171 0.972 -2.171 2.171 c 0 1.199 0.972 2.171 2.171 2.171 c 0.414 0 0.798 -0.122 1.127 -0.324 c 0.042 0.268 0.087 0.533 0.136 0.794 c -0.109 -0.017 -0.219 -0.034 -0.333 -0.034 c -1.199 0 -2.171 0.972 -2.171 2.171 c 0 1.199 0.972 2.171 2.171 2.171 c 0.487 0 0.933 -0.166 1.295 -0.438 c 0.21 0.678 0.359 1.087 0.359 1.087 L 8.5 53.284 c 0 0 2.357 3.456 4.655 8.355 c -0.414 0.395 -0.675 0.95 -0.675 1.567 c 0 1.199 0.972 2.171 2.171 2.171 c 0.036 0 0.07 -0.009 0.107 -0.011 c 0.832 2.136 1.569 4.418 2.064 6.729 c 0 0 -1.292 0 -1.292 1.292 c 0 0.761 1.292 0.93 1.292 0.93 v 0.672 c 0 0 0.362 1.24 -0.362 2.274 c -0.31 0.517 -0.569 0.93 0 1.705 c 0.568 0.775 1.292 1.55 1.292 1.55 s -0.052 0.879 0.62 0.879 c 0.362 0 0.31 0.827 0.31 0.827 s -1.189 0.672 -0.362 1.499 c -2.016 1.292 -2.739 1.809 -2.739 3.566 c 0.052 1.344 1.705 3.153 4.6 2.791 S 38.32 87.911 50 87.911 s 26.926 1.809 29.82 2.171 s 4.548 -1.447 4.6 -2.791 c 0 -1.757 -0.724 -2.274 -2.739 -3.566 c 0.827 -0.827 -0.362 -1.499 -0.362 -1.499 s -0.052 -0.827 0.31 -0.827 c 0.672 0 0.62 -0.879 0.62 -0.879 s 0.724 -0.775 1.292 -1.55 c 0.568 -0.775 0.31 -1.189 0 -1.705 c -0.724 -1.034 -0.362 -2.274 -0.362 -2.274 v -0.672 c 0 0 1.292 -0.169 1.292 -0.93 c 0 -1.292 -1.292 -1.292 -1.292 -1.292 c 0.495 -2.311 1.232 -4.593 2.064 -6.729 c 0.036 0.002 0.07 0.011 0.107 0.011 c 1.199 0 2.171 -0.972 2.171 -2.171 c 0 -0.618 -0.261 -1.172 -0.675 -1.567 c 2.298 -4.899 4.655 -8.355 4.655 -8.355 l -0.672 -0.465 c 0 0 0.149 -0.409 0.359 -1.087 c 0.362 0.271 0.807 0.438 1.295 0.438 c 1.199 0 2.171 -0.972 2.171 -2.171 c 0 -1.199 -0.972 -2.171 -2.171 -2.171 c -0.114 0 -0.223 0.017 -0.333 0.034 c 0.048 -0.26 0.094 -0.525 0.136 -0.794 C 92.615 47.27 92.998 47.392 93.413 47.392 z M 47.261 58.091 c -0.827 0.207 -2.326 -0.569 -6.305 -5.375 c 0 9.871 0 13.696 0 13.696 s 4.29 -4.135 6.305 -4.29 c 0 1.602 -0.827 6.46 -7.339 6.46 s -6.719 -2.842 -6.719 -2.842 s 0.62 -0.362 0.62 -1.24 c 0 -0.879 -1.034 -1.292 -1.034 -1.292 s -0.052 -1.757 0.724 -1.757 s 1.137 0.827 1.292 2.429 c 0.155 1.602 2.119 2.584 3.049 2.429 c -0.207 -0.775 -0.982 -2.222 -0.258 -3.876 c 0.724 -1.654 0.31 -6.512 -3.979 -4.548 c -0.362 -4.29 -1.912 -5.607 -3.359 -7.455 c -1.705 2.339 -3.359 4.302 -3.101 7.558 c -2.067 -0.207 -4.186 -0.052 -3.876 3.928 c 0.31 1.344 2.171 2.222 0.724 4.91 c 0.775 0.775 2.894 0.103 3.049 -2.119 c 0.155 -2.222 0.207 -2.894 0.775 -2.946 c 0.569 -0.052 0.812 0.465 0.897 1.447 c -0.277 0.31 -0.897 0.517 -0.897 1.344 c 0 0.827 0.897 1.137 0.897 1.137 s -2.292 3.153 -4.98 3.153 s -5.943 -3.049 -6.667 -4.445 c 1.085 -0.207 4.186 0.62 5.995 1.447 c -1.964 -6.667 -3.204 -11.525 -3.204 -11.525 s -2.313 6.545 -3.741 7.304 c -0.021 -0.011 -0.039 -0.031 -0.06 -0.045 c -0.046 -0.04 -0.091 -0.08 -0.14 -0.116 c -0.819 -0.872 -0.79 -4.19 1.563 -9.521 c -0.71 0 -1.317 -0.008 -1.84 -0.019 c 0.767 -1.112 2.067 -2.523 3.289 -3.242 c 0.542 -0.319 1.333 -0.48 2.351 -0.48 c 1.281 0 2.452 0.266 2.464 0.269 l 0.262 0.06 l 0.162 -0.215 c 0.044 -0.059 4.488 -5.882 10.058 -5.882 c 4.928 0 9.2 2.369 10.233 2.989 v 4.97 l -2.016 0.103 C 42.454 50.493 47.106 56.023 47.261 58.091 z M 84.071 61.461 c -0.049 0.036 -0.095 0.076 -0.14 0.116 c -0.02 0.014 -0.039 0.033 -0.06 0.045 c -1.427 -0.759 -3.741 -7.304 -3.741 -7.304 s -1.24 4.858 -3.204 11.525 c 1.809 -0.827 4.91 -1.654 5.995 -1.447 c -0.724 1.395 -3.979 4.445 -6.667 4.445 c -2.687 0 -4.98 -3.153 -4.98 -3.153 s 0.897 -0.31 0.897 -1.137 c 0 -0.827 -0.62 -1.034 -0.897 -1.344 c 0.085 -0.982 0.328 -1.499 0.897 -1.447 s 0.62 0.724 0.775 2.946 c 0.155 2.222 2.274 2.894 3.049 2.119 c -1.447 -2.687 0.413 -3.566 0.724 -4.91 c 0.31 -3.979 -1.809 -4.135 -3.876 -3.928 c 0.258 -3.256 -1.395 -5.22 -3.101 -7.558 c -1.447 1.848 -2.998 3.165 -3.359 7.455 c -4.29 -1.964 -4.703 2.894 -3.979 4.548 c 0.724 1.654 -0.052 3.101 -0.258 3.876 c 0.93 0.155 2.894 -0.827 3.049 -2.429 c 0.155 -1.602 0.517 -2.429 1.292 -2.429 c 0.775 0 0.724 1.757 0.724 1.757 s -1.034 0.413 -1.034 1.292 c 0 0.879 0.62 1.24 0.62 1.24 s -0.207 2.842 -6.719 2.842 s -7.339 -4.858 -7.339 -6.46 c 2.016 0.155 6.305 4.29 6.305 4.29 s 0 -3.824 0 -13.696 c -3.979 4.806 -5.478 5.582 -6.305 5.375 c 0.155 -2.067 4.806 -7.597 4.806 -7.597 L 55.53 50.39 v -4.97 c 1.033 -0.62 5.305 -2.989 10.233 -2.989 c 5.561 0 10.013 5.823 10.058 5.882 l 0.162 0.215 l 0.262 -0.06 c 0.012 -0.003 1.179 -0.269 2.463 -0.269 c 1.018 0 1.809 0.162 2.351 0.48 c 1.222 0.719 2.522 2.13 3.289 3.242 c -0.523 0.012 -1.129 0.019 -1.84 0.019 C 84.861 57.271 84.89 60.589 84.071 61.461 z M 13.874 36.746 c 5.648 -7.449 15.556 -3.411 16.176 -3.101 c 0.62 0.31 7.752 2.791 11.577 2.946 c 1.55 0.103 2.842 -0.103 2.842 -0.103 v 7.972 c -1.559 -0.884 -5.559 -2.856 -10.233 -2.856 c -5.424 0 -9.672 4.905 -10.555 6.004 c -0.438 -0.084 -1.37 -0.236 -2.389 -0.236 c -1.167 0 -2.099 0.2 -2.77 0.595 c -1.447 0.851 -3.041 2.601 -3.843 3.926 c -1.16 -0.046 -1.633 -0.107 -1.633 -0.107 S 8.227 44.195 13.874 36.746 z M 86.952 51.785 c 0 0 -0.472 0.061 -1.633 0.107 c -0.802 -1.324 -2.396 -3.075 -3.843 -3.926 c -0.671 -0.394 -1.602 -0.595 -2.77 -0.595 c -1.019 0 -1.951 0.152 -2.389 0.236 c -0.883 -1.098 -5.132 -6.004 -10.556 -6.004 c -4.674 0 -8.674 1.971 -10.233 2.856 v -7.972 c 0 0 1.292 0.207 2.842 0.103 c 3.824 -0.155 10.957 -2.636 11.577 -2.946 c 0.62 -0.31 10.529 -4.348 16.176 3.101 C 91.773 44.195 86.952 51.785 86.952 51.785 z" stroke-linecap="round" />
</g>
<g transform="matrix(-0.0014103560333144933 0.44067065899919433 -0.46882011564997367 -0.001500447704296436 412.1180338077068 313.1726298031648)"  >
<linearGradient id="SVGID_11172" gradientUnits="userSpaceOnUse" gradientTransform="matrix(1 0 0 1 -50 0)"  x1="0" y1="0" x2="100" y2="0">
<stop offset="0%" style="stop-color:rgb(143,94,37);stop-opacity: 1"/>
<stop offset="51.4%" style="stop-color:rgb(251,244,161);stop-opacity: 1"/>
<stop offset="100%" style="stop-color:rgb(143,94,37);stop-opacity: 1"/>
</linearGradient>
<linearGradient id="SVGID_11173" gradientUnits="userSpaceOnUse" gradientTransform="matrix(1 0 0 1 -50 0)"  x1="0" y1="0" x2="100" y2="0">
<stop offset="0%" style="stop-color:rgb(143,94,37);stop-opacity: 1"/>
<stop offset="51.4%" style="stop-color:rgb(251,244,161);stop-opacity: 1"/>
<stop offset="100%" style="stop-color:rgb(143,94,37);stop-opacity: 1"/>
</linearGradient>
<line style="stroke: url(#SVGID_11173); stroke-width: 3; stroke-dasharray: ; stroke-linecap: butt; stroke-dashoffset: 0; stroke-linejoin: miter; stroke-miterlimit: 4; fill: url(#SVGID_11172); fill-rule: nonzero; opacity: 1;"  x1="-50" y1="0" x2="50" y2="0" />
</g>
<g transform="matrix(0.17077598741875216 0 0 0.17077598741875216 252 354.7869776398182)"  >
	<image style="stroke: none; stroke-width: 0; stroke-dasharray: none; stroke-linecap: butt; stroke-dashoffset: 0; stroke-linejoin: miter; stroke-miterlimit: 4; fill: rgb(0,0,0); fill-rule: nonzero; opacity: 1;"  xlink:href="https://uploads.turbologo.com/uploads/upload/file/645840/d641be3b37c3ee018c52e1caa4336e7b.png" x="-519" y="-361" width="1038" height="722"></image>
</g>
</svg>